<?xml version="1.0" encoding="UTF-8" standalone="no"?>
<svg xmlns:rdf="http://www.w3.org/1999/02/22-rdf-syntax-ns#" xmlns="http://www.w3.org/2000/svg" height="263.65901" width="241.96002" version="1.1" xmlns:cc="http://creativecommons.org/ns#" xmlns:dc="http://purl.org/dc/elements/1.1/" viewBox="0 0 241.96002 263.65901"><path d="M2.07417,0,0,70.12293H36.298l1.75507-24.4114a4.969,4.969,0,0,1,4.9461-4.627H89.74778a8.34179,8.34179,0,0,1,8.29668,8.29668V218.42614a4.17075,4.17075,0,0,1-4.14835,4.14834H50.81719V263.659H191.14281V222.57448H148.06388a4.10327,4.10327,0,0,1-4.06866-4.13758l.0001-.01075V49.38122a8.27358,8.27358,0,0,1,8.21692-8.29668h46.74861a4.969,4.969,0,0,1,4.9461,4.627l1.75508,24.4114H241.96L239.88583,0Z" fill="#003087"/></svg>