<?xml version="1.0" encoding="UTF-8" standalone="no"?>
<svg xmlns:rdf="http://www.w3.org/1999/02/22-rdf-syntax-ns#" xmlns="http://www.w3.org/2000/svg" height="239.13603" width="236.48307" version="1.1" xmlns:cc="http://creativecommons.org/ns#" xmlns:dc="http://purl.org/dc/elements/1.1/" viewBox="0 0 236.48307 239.13603"><path d="M115.87543,238.136c-24.93026,0-52.23825-10.30355-73.63794-27.88442C23.864,195.04846,1.67177,167.88457.0866,124.43673-1.4265,81.92559,16.947,44.38609,50.59561,21.47328A124.26115,124.26115,0,0,1,108.88632.578,130.98971,130.98971,0,0,1,173.37357,10.9536c21.39967,9.2948,33.36044,21.39969,40.49367,28.677,4.179,4.25109,6.98911,7.06115,8.79043,6.34065,5.90832-2.23366,6.55681-5.476,6.62886-5.54806l.36027.072-.36027-.072a2.9651,2.9651,0,0,1,2.8821-2.44981h.07207a3.05743,3.05743,0,0,1,2.30569.72054,2.83675,2.83675,0,0,1,.57642,2.16157c0,1.297.36026,68.95452.36026,69.603,0,.21617-.072,4.7555-1.87337,6.41272a16.72126,16.72126,0,0,1-4.25112,2.44978c-2.37774,1.00874-4.39522,1.87337-4.53932,4.035-.21615,2.44979,2.16158,5.404,4.39522,8.28606,1.72927,2.08954,3.31442,4.035,3.96291,5.9804,1.72925,4.53932,3.24237,14.19439.36025,22.1202-5.62011,15.5634-13.54593,33.43249-29.82985,48.49152-19.88657,18.51757-48.41947,28.605-84.59,29.90191Z" fill="#111"/><path d="M170.34734,119.10485a3.95261,3.95261,0,0,1-.14409,2.88211,9.35537,9.35537,0,0,0-.57644,3.24237c-.1441.72055.21617,2.16159.21617,4.035,0,1.80132-.93669,6.70092-2.30569,8.64634s-1.00875,2.81-1.72927,3.67468-.072.50437-1.80132,1.58518-1.72927,2.44978-2.30569,4.03493c-.64848,1.58517,0,2.08954-.72051,3.02623a7.648,7.648,0,0,1-3.81881,2.4498,6.98055,6.98055,0,0,0-2.738,1.72925,4.79927,4.79927,0,0,1-1.87336,1.297c-1.0808.43231-2.3057.86465-2.3057.86465a3.293,3.293,0,0,1-2.738-.36029c-1.441-.86463-.72051-.50436-1.6572-.072-1.00875.36027-1.00875.36027-1.369,1.44107a30.01825,30.01825,0,0,1-1.0808,3.31443c-.36027.57639-.21615.43231-1.441.72051-1.22491.21617-2.08952-.36027-2.59389.21617a3.21156,3.21156,0,0,0-.57644,1.5131,4.0706,4.0706,0,0,1-.36026,2.88212,6.43609,6.43609,0,0,1-2.37774,2.30569c-.79259.64849,0,.86464-1.58515,1.22489a19.31111,19.31111,0,0,1-3.60264.28821c-.79259.14412-.79259,0-1.15286.50437-.36026.43234,0,1.22489-.57641,1.65722-.64849.50437-1.08081.50437-1.58517.86462s-.50437.50437-.86464,1.00873-.93668.93672-1.22488,1.297c-.21617.43234,0,2.08952-.36029,2.95416a3.46913,3.46913,0,0,1-1.08078,1.369s-1.00874.5764-1.369.86463c-.36027.21615-1.08079.57644-1.08079.57644s-.72053.50435-1.2249.86463.28822.2882-1.2249.8646a5.28389,5.28389,0,0,1-3.38648.28824c-.57641-.07209-1.08078-1.00874-1.58515-1.51312s-.64848-.36029-2.08954-1.58517a16.3761,16.3761,0,0,1-1.94543-1.94542c-1.08079-1.08079-2.66594-3.17031-3.31442-3.53056-.57642-.36028-2.44979-1.22493-3.02623-.86467a25.38565,25.38565,0,0,1-3.0262,1.08082c-.64849.21615-2.95417,1.22489-3.53059,1.369a11.05734,11.05734,0,0,1-3.81881,0c-1.44105-.36025-5.69216-1.87337-5.69216-1.87337L81.074,172.13571s-4.107-1.58517-5.33192-2.08954-2.66594-.86461-3.17031-1.5131a21.15041,21.15041,0,0,1-1.58517-3.02622,1.3821,1.3821,0,0,0-1.369-1.22488c-1.22491,0-1.08081.50436-2.4498.14409-1.29695-.36028-3.53059.21615-3.53059-3.89085,0-4.17908-.57642-80.19476-.57642-80.19476s-.50438-2.4498.21615-2.81005l33.28838-.86464a4.5235,4.5235,0,0,1,2.59391,1.00874c.72052.86463,2.30569,2.44978,3.74674,2.666,1.44107.28822,3.17032,0,3.81881.36025.57641.36029.57641.28822,2.30568,2.59391,1.6572,2.30568,2.44979,3.38649,3.53059,3.6747,1.08079.21615,1.94542.93667,4.61138-.64848s4.89959-2.66594,6.48476-2.88211c1.58515-.28821,9.72711-.50436,10.952-.64848s2.81007-1.08079,5.25988-2.30569,2.81-.64846,3.89084-1.44105a11.31657,11.31657,0,0,0,1.80132-1.5131c.64846-.57642.1441-.21617,1.369-.86464a36.62569,36.62569,0,0,1,3.38647-1.65722c1.2249-.50436,1.58517-.36025,2.4498-.79258a4.37455,4.37455,0,0,1,1.58517-.43232c.64847-.1441.1441.21617,1.08079-.1441a28.9872,28.9872,0,0,0,3.45854-1.58515,3.00984,3.00984,0,0,1,1.94542-.64849,4.67828,4.67828,0,0,0,1.94544-.36025c.72051-.21616,1.22488-.36028,1.22488-.36028a4.92435,4.92435,0,0,1,1.44105-.93667c.86464-.36028,2.23364-1.2249,3.02623-1.2249a8.51889,8.51889,0,0,0,2.23363-.50437s.36025.21615.36025,1.00874c0,.72053.14412,42.00675.14412,42.00675s.36025.9367-.86464,1.94544-1.441,1.2249-1.441,2.08954S170.05913,117.952,170.34734,119.10485Zm57.85839,40.06134c-1.369,4.39522-8.57427,37.03518-50.65311,60.45234C150.38873,234.74959,84.24426,244.98107,41.589,202.83022c-19.2381-18.94992-35.81023-43.0876-37.32334-78.39348-1.369-32.20758,10.73586-57.85838,20.7512-71.044C64.86207.93826,117.10034,2.01909,139.00437,5.83787c19.02194,3.24239,39.91726,10.08739,52.0942,19.02194,13.2577,9.79918,19.45423,20.24685,23.56125,23.0569,5.548,3.74674,9.0066,2.01747,11.45641,1.29694s3.96289-4.32318,3.96289-4.32318l.79258.14414v63.91081s1.00873,6.91706-6.48476,5.83626c-9.29482-1.369-20.03067-11.02407-26.87568-19.166-5.404-6.41272-25.3626-39.34082-54.32781-47.84307-13.47388-4.03494-32.56788-8.50221-69.38684,12.60924-2.81006,1.58517-38.188,27.59623-38.69235,60.092C34.67194,143.819,60.32274,168.389,70.84245,176.53092c29.10932,22.48051,60.66844,17.4368,79.69038,11.0241,26.44336-8.93455,39.91725-44.02428,62.39772-48.70772,2.738-.5764,11.31229-1.22488,14.33851,3.53061C230.36731,147.20543,229.50268,154.843,228.20573,159.16619Zm.36026-27.0198c-2.37773-2.95415-4.82752-6.12448-4.61137-8.86248.21617-2.666,2.666-3.74676,5.04369-4.75549a16.1855,16.1855,0,0,0,3.96291-2.23362c1.297-1.2249,1.6572-4.61139,1.6572-5.83628,0-.64848-.36025-68.306-.36025-69.603a2.18246,2.18246,0,0,0-.36027-1.58517,2.50356,2.50356,0,0,0-1.72927-.4323,2.18467,2.18467,0,0,0-2.08951,1.80132c0,.21615-.79259,3.74674-7.13323,6.19654-2.30569.8646-5.11575-1.94546-9.65509-6.62888-7.13321-7.20528-19.02193-19.23808-40.2775-28.46087a130.28734,130.28734,0,0,0-52.02212-10.88c-4.03494,0-8.0699.21619-12.03281.57644A124.77851,124.77851,0,0,0,51.02792,22.1218C17.66748,44.89047-.56187,82.21382.95124,124.43674c1.51311,43.08758,23.63331,70.10738,41.86267,85.09437,22.1202,18.30143,50.58105,28.605,76.23185,27.74033,86.60746-3.17034,105.6294-55.48063,113.69931-77.817,2.81-7.70964,1.297-17.14856-.36027-21.54376C231.73634,136.10932,230.22323,134.23593,228.566,132.14639Z" fill="#fff"/><path d="M227.48521,57.49971v-.8646c.1441-1.00877.4323-3.89087-.79258-3.45854a17.81981,17.81981,0,0,1-12.321-1.00873c-5.404-2.66595-10.80792-11.1682-16.21188-16.42806C187.568,25.43624,172.00455,18.44711,163.71848,15.42091,100.88846-7.636,51.02792,26.80523,37.26583,43.73764,26.53,56.92331,11.32684,76.1614,8.37266,105.70305c-2.8821,29.54163,5.1878,66.50471,32.35171,91.435,27.236,24.93028,53.82343,33.64866,94.74941,30.8386,46.402-3.17032,68.162-32.92812,81.05939-51.5898,12.82541-18.66167,10.88-31.19886,7.4935-33.64864s-14.05029-2.16159-26.65953,9.43891-25.50669,29.03727-39.05262,35.37791c-13.618,6.2686-47.19458,18.87784-84.15766-5.11574-33.21632-21.54378-42.94346-48.92385-43.15962-64.34314C30.709,96.12,55.279,64.05654,86.55,49.2857c21.47172-10.15943,39.77313-9.655,50.6531-7.27733,10.952,2.44981,28.89317,10.15947,41.71858,24.20974,12.89743,14.05029,22.33635,32.42376,34.94559,39.9893,12.60924,7.49348,14.26646,5.3319,14.05029-.50436C227.70136,100.227,227.48521,62.11112,227.48521,57.49971Z" fill="#c8102e"/><path d="M68.3206,79.61992H66.087s-.86464-.1441-1.0808,1.00875c-.21616,1.08078.1441,10.08738.1441,10.08738l.72054,68.81042a3.39747,3.39747,0,0,0,.72052,2.08954,2.88688,2.88688,0,0,0,2.81006.57642c.86463-.21617,1.44106-.72054,2.16158-.072a5.14193,5.14193,0,0,1,1.369,3.0262c.14411,1.0808.50436,1.2249,2.52184,2.44981,2.08953,1.2249,17.00447,6.12449,17.43677,6.19652.50437.14412,1.369.79259,4.8996-.4323s7.34938-2.37775,7.70964-2.4498c.36027-.1441.72054-.86464,2.16159.57642,1.441,1.51312,4.25111,5.404,4.89959,5.98039.57642.64847.57642,0,1.297,1.00874.79257.93668.64847,1.72927,1.94542,2.16158,1.369.50437,2.37774.28822,3.81879-.72053,1.44107-.93669,3.17033-1.72927,3.31444-2.666.07205-1.00873-.50436-1.94542,0-2.666.43232-.79259,1.44106-1.22489,2.16159-1.87337.72052-.57642,2.81006-2.30569,3.0262-3.17032.28822-.86464-.57641-1.369.36027-1.94542,1.00874-.64849,1.369-1.00876,2.44979-.64849,1.15285.43232,2.738,1.369,4.17907-.36027,1.44106-1.6572,1.72927-2.30568,1.80132-3.60264.1441-1.369,0-2.81005,1.00874-2.95415.93668-.1441,1.44105.57642,2.666-.1441a4.93949,4.93949,0,0,0,2.16159-2.95417c.50437-1.22489.50437-2.37774,1.58515-2.88211,1.15286-.50436,2.738-.1441,4.25113,0,3.02622.2882,2.44978-.21616,5.04369-1.87338,1.5131-.93669,3.09827-1.08079,4.035-2.44979a6.74557,6.74557,0,0,0,1.2249-2.88211l1.22488-2.81007,3.02623-2.95415,2.23363-4.035s1.51312-4.53932,1.80132-5.62011a18.92517,18.92517,0,0,0-.1441-4.39522,15.43356,15.43356,0,0,1,.2882-3.81881l.57644-4.035s-2.08954-3.17032-1.72927-4.46727c.36027-1.369,2.08952-2.44979,2.37773-3.09826.21615-.57643,0-33.79277,0-33.79277V72.99107s.57642-1.80132-1.369-1.29695a12.7617,12.7617,0,0,0-2.5939.86464,11.08539,11.08539,0,0,0-3.24237.72051c-.86464.50439-2.23364,1.369-2.23364,1.369l-4.107.72053s-4.39522,1.08079-6.34064,2.666a14.47007,14.47007,0,0,1-4.68343,2.95417c-2.52185,1.08078-3.17032,1.44105-3.17032,1.44105s-3.02622,2.30569-4.39522,2.59389c-1.297.21616-6.34065.21616-7.92582.43231-1.58515.28822-2.16159-.36025-4.32315.14412-2.23364.50437-4.68345,2.23364-6.48477,3.09827a8.70673,8.70673,0,0,1-5.98037.43232,9.38271,9.38271,0,0,1-4.035-3.67471c-.93668-1.44105.1441-1.44105-1.2249-2.01747-1.29695-.64846-.86464-.28821-2.88211-.64846-2.08953-.36027-4.32317-1.08081-5.404-2.44981-1.0808-1.297-.86463-1.44105-1.94543-1.44105S68.3206,79.61992,68.3206,79.61992Z" fill="#fff"/><path d="M164.65517,118.2402c-.86464-2.59389-1.00876-2.08952-.50439-4.25111.57644-2.666,2.08954-1.65722,2.08954-4.75549,0-3.0262-.21615-34.081-.21615-34.081s-1.369-.21617-4.39522,1.08079a32.39365,32.39365,0,0,1-4.82755,1.87337c-3.89085,1.29695-1.72927-.57642-6.05242,2.01748-2.44981,1.44106-1.00876,2.666-7.27735,4.68343-3.17032,1.00873-3.09825,2.01749-6.19653,2.4498-3.02622.43232-4.68344.07205-8.28608.43232-3.53059.36025-4.75547,0-8.28606,1.72925-3.45854,1.72927-3.38649,2.37776-6.19655,2.44981-4.39522.07205-5.11574-.43232-6.55679-1.87337-1.94544-2.01749-1.72927-4.035-4.035-4.39523-3.9629-.64846-5.69217.43232-7.20528-1.72927C94.11548,82.57407,96.78143,82.43,90.729,82.43c-6.12449,0-22.69662.50437-22.69662.50437l.50436,76.08775,5.25985.21617s.72053.072,1.44106,1.22488c.43231.79258.07205,2.5939,1.08079,3.60264,1.87338,2.01749,6.19654,3.38649,6.19654,3.38649.21616.072,3.24238,1.15283,5.83628,2.01747a21.267,21.267,0,0,0,3.74675,1.297c4.82752.86464.93668.72054,5.33189-.1441,2.52186-.50437,5.54806-2.52185,8.142-2.08954s3.74676.57642,5.04371,2.30569.79257,2.23364,2.59389,3.53059c1.72927,1.297.86464,1.369,2.59391,2.738,1.80132,1.297,2.16158,1.65722,2.95417.21617.93668-1.72927.21615-2.01748,1.5131-3.31444,1.369-1.369.43232-1.369,2.44979-2.08952,2.3057-.86463,1.0808-1.00875,2.37775-2.738s1.80132-3.96291,4.39521-4.39523,3.96291.86464,4.46727-1.29695c.43232-2.16159-.21615-3.67469,1.94544-4.97164,2.23364-1.297,2.81006-.21617,4.107-1.5131s.21615-3.60264,2.37773-4.89959,2.666-1.65722,4.39523-1.22491,1.94542.43232,4.17906-.43231a15.48562,15.48562,0,0,0,3.9629-2.30569c1.15284-.79259,1.08079-4.82754,3.96291-6.34065,1.72927-.86463,4.89959-6.62886,5.33191-11.38433a47.4225,47.4225,0,0,0,.43232-6.845C164.65517,120.5459,165.51978,120.8341,164.65517,118.2402Z" fill="#c8102e"/><path d="M131.94321,144.97181v.64847a2.80908,2.80908,0,0,1-.14412,1.15285,4.418,4.418,0,0,1-.57641.36025c-.072,0-.1441.07205-.2882.07205a15.24377,15.24377,0,0,0-1.51312.79259,1.80639,1.80639,0,0,0-.50437.28822,2.47807,2.47807,0,0,1-1.44105.36025,4.37146,4.37146,0,0,1-1.00874-.50437,3.86036,3.86036,0,0,0-.79258-.36025,35.96944,35.96944,0,0,0-6.845-1.80132c-.43234,0-4.6114-.07207-7.13323-.07207h-.79259c1.369-.93667,2.81006-2.01747,3.17032-2.30569l.36027-.2882c.50437-.43231,1.00874-.86465,1.441-1.297a4.60385,4.60385,0,0,0,.93669-1.0808,2.36194,2.36194,0,0,1,.43232-.5764,4.25137,4.25137,0,0,0,.64846-.9367c.14412-.36025.28822-.64847.43234-1.00874v-.07207c.21615-.50436,1.00873-4.179,1.08078-4.75547a12.48474,12.48474,0,0,0,.21615-2.30569,16.48323,16.48323,0,0,1,2.44981-2.01747,4.31241,4.31241,0,0,0,.50437-.43233c.57643-.4323,2.01747-1.5131,2.95417-2.08954a3.1993,3.1993,0,0,1,.79256-.5764c.21617-.21615.43234-.36027.64849-.57643.1441-.14412.36027-.2882.50437-.4323.1441-.07207.72051-.28822.93668-.36027a1.87859,1.87859,0,0,1,.79257.21615,4.48662,4.48662,0,0,1,2.37775,2.5939,17.44609,17.44609,0,0,1,.1441,3.53058v1.369c.07205.86463.14412,4.3952.07205,5.25986,0,1.00873,0,2.01747.07207,3.0262a15.67222,15.67222,0,0,1,.072,1.87339ZM119.334,110.24237a24.83152,24.83152,0,0,1,.93669-5.54808,5.7865,5.7865,0,0,1,2.66595-2.81,3.56661,3.56661,0,0,1,.93669-.28822,3.10047,3.10047,0,0,1,1.15283,0c.21617.07205.79259.28822.93671.36027a3.01758,3.01758,0,0,1,1.15283.79258,18.845,18.845,0,0,1,2.16159,2.52184l.072.1441a7.87653,7.87653,0,0,1,.57641,1.0808c.072.21615.14412.50437.21617.72052a6.69,6.69,0,0,1,.2882.9367,11.30456,11.30456,0,0,1,.28822,3.17031,13.92046,13.92046,0,0,1-.50437,3.24239,18.82722,18.82722,0,0,1-1.15283,3.02622,11.79961,11.79961,0,0,1-1.94544,2.30569,22.97657,22.97657,0,0,1-2.52185,2.30568l-.2882.21615c-.79259.64849-1.58517,1.369-2.44979,2.01747q-.75655.54044-1.51312,1.08081l-.64849.43233c0-.72055-.07205-1.51314-.14408-2.23365-.07207-.43232-.07207-.86462-.14412-1.22491C119.406,121.48259,119.18986,112.25984,119.334,110.24237Zm24.78616,35.45a10.60556,10.60556,0,0,1,0-1.5131c.07205-.72055.07205-1.5131.07205-2.23366s0-2.738-.07205-4.61137c0-1.297-.072-2.52184-.072-2.81005v-1.94542l-.072-.14412a24.30238,24.30238,0,0,0-.72053-5.25984,8.68313,8.68313,0,0,0-2.08952-3.02621,1.26519,1.26519,0,0,0-.28822-.36028l-.93668-.93667a7.56662,7.56662,0,0,0-1.51312-.86465,14.26238,14.26238,0,0,0-3.38648-1.08079l-1.297-.21617-.28822-.07205c.28822-.28821,1.15284-1.22488,1.94542-2.08953l.43232-.50437c.43234-.4323.86464-.93668,1.297-1.44105a33.958,33.958,0,0,0,2.37774-3.24236l.14412-.21618a9.22841,9.22841,0,0,0,.79258-1.44105c.2882-.57642,1.08079-2.95418,1.297-3.67469a19.481,19.481,0,0,0,.072-4.53933,8.05982,8.05982,0,0,0-1.29694-3.81879,14.2755,14.2755,0,0,0-2.95415-2.95417,12.39619,12.39619,0,0,0-4.107-2.16159,8.935,8.935,0,0,0-4.61137.28822c-1.44107.43232-2.8821.86464-4.32317,1.44107a39.78479,39.78479,0,0,0-8.214,4.107,18.44611,18.44611,0,0,0-6.26859,6.48476,19.16806,19.16806,0,0,0-2.08952,9.22275c0,1.0808.07205,2.23364.1441,3.24237a9.18712,9.18712,0,0,0,.07205,1.44107v2.01747a16.4608,16.4608,0,0,0,0,2.66594c.07205,1.29695,0,6.70091-.07205,9.15072,0,.64846,0,1.441-.072,2.23363-.07205.36027-.14412.72052-.21617,1.15286-.07205.36024-.1441.72051-.21617,1.00873a8.14813,8.14813,0,0,1-1.441,3.67471,13.44514,13.44514,0,0,1-2.37776,2.738,4.9725,4.9725,0,0,1,.21615-.57641c.14412-.36025.28822-.72054.43234-1.00874a49.40182,49.40182,0,0,0,1.5131-6.05242,56.8185,56.8185,0,0,0,.1441-6.34067c0-1.00873,0-4.97162.07207-6.12447,0-1.297-.07207-2.59391-.07207-3.81881-.07205-.79259-.07205-1.58515-.07205-2.30569a55.67908,55.67908,0,0,1,.14412-5.98037l.07205-.43232a11.92586,11.92586,0,0,1,.21615-2.30569,11.42643,11.42643,0,0,1,.86463-2.30569c.21617-.36026,1.00874-1.87338,1.29695-2.30568a9.21388,9.21388,0,0,1,1.51311-2.01751,35.16965,35.16965,0,0,1,3.8188-3.45852,29.59492,29.59492,0,0,0,2.66594-2.30569c1.65724-1.65722,1.94544-2.16158,1.65724-2.8821a1.13589,1.13589,0,0,0-1.297-.50437c-.57644.21615-1.44107.50437-2.23364.79259a22.10817,22.10817,0,0,1-2.30571.79258c-1.00873.2882-2.08952.4323-3.1703.64845l-.72053.07207a21.53674,21.53674,0,0,1-3.45854.2882,17.21625,17.21625,0,0,1-3.45854-.2882,24.59149,24.59149,0,0,1-3.31443-.72052l-.64846-.21617a18.73526,18.73526,0,0,0-2.88213-.72053,9.58649,9.58649,0,0,0-3.81879.14412,10.13065,10.13065,0,0,0-3.31442,1.58515,19.25451,19.25451,0,0,0-2.5939,2.23364c0,.07205-3.02622,3.9629-1.72927,5.25985l.43232.50437.64847-.36027a6.50064,6.50064,0,0,0,1.44106-1.00873,2.19,2.19,0,0,1,.50437-.36029,4.95282,4.95282,0,0,1,1.65721-.93666,3.664,3.664,0,0,1,1.44106-.28822h.86463a6.99065,6.99065,0,0,1,1.22489.072,14.67188,14.67188,0,0,1,2.81007.72053,6.08543,6.08543,0,0,1,1.22489.36027,28.348,28.348,0,0,0,4.53932.93669,13.90317,13.90317,0,0,0,2.44981,0,10.33015,10.33015,0,0,0-1.44107,1.65722,16.2813,16.2813,0,0,0-3.17031,7.13321,47.86671,47.86671,0,0,0-.43233,7.99786v.1441c-.07205,0-.07205,0-.1441-.072a8.45522,8.45522,0,0,0-5.76422.5764h-.07206a18.47372,18.47372,0,0,0-4.17905,2.81005l-.21615.14412a2.33411,2.33411,0,0,0-.57644.64847c-.36026.36027-.79258.86463-.43232,1.5131l.43232.64849.79259-.2882a15.97681,15.97681,0,0,1,4.75548-1.297h.28822a4.51559,4.51559,0,0,1,4.75548,2.88211,10.40487,10.40487,0,0,1,1.00873,3.31444,17.73722,17.73722,0,0,1-.07206,3.38647,15.061,15.061,0,0,0-1.80132-.072H95.4845a6.24489,6.24489,0,0,0-2.738.57642,21.78315,21.78315,0,0,0-3.81878,2.81005,1.51421,1.51421,0,0,0,0,1.87339,1.20842,1.20842,0,0,0,1.441.28822,8.51668,8.51668,0,0,1,3.8188-1.22492,11.13914,11.13914,0,0,1,3.45854,2.81,9.96,9.96,0,0,1-.07207,1.94544v.07207a13.07979,13.07979,0,0,1-.79259,2.16157,29.70131,29.70131,0,0,1-2.738,4.179c-1.00874,1.22491-2.16158,2.44979-3.38648,3.67471a7.6297,7.6297,0,0,1-.86464.72052,8.15688,8.15688,0,0,0-.93668.72053,19.78556,19.78556,0,0,0-1.58517,1.87337l-.07205.1441a12.43153,12.43153,0,0,0-2.30569,5.04371,5.39766,5.39766,0,0,0,1.58517,5.33189l.072.1441.21616.07207a4.5548,4.5548,0,0,0,1.87338.50437c.93667,0,1.58515-.50437,2.52184-1.58517l.14411-.21615.072-.21617a6.83025,6.83025,0,0,0,.07206-2.738c-.1441-.43234-.36026-.86466-.50437-1.297-.1441-.28822-.21614-.57643-.36025-.86465a3.14169,3.14169,0,0,1,.86462-2.8821,17.61319,17.61319,0,0,1,1.94542-2.01747,9.413,9.413,0,0,1,2.01749-1.22491l.072-.072a13.29589,13.29589,0,0,1,5.11574-1.15283h.28822c3.67469-.36029,7.49348.64847,11.16818,1.6572l.28822.14412c.86462.21615,1.80132.4323,2.59389.72052.57642.21615,1.08078.43231,1.6572.64846.28822.14412.57644.28822.9367.43234a4.29547,4.29547,0,0,0,2.66594.21615,5.1596,5.1596,0,0,0,1.80132-1.15285,1.91094,1.91094,0,0,0,.43234-.36025c.57641-.43234,1.297-.86466,2.01747-1.297.36026-.21618.72053-.43233,1.15283-.64848s.86465-.50437,1.297-.72054c.86466-.50436,1.72927-.93666,2.59391-1.369a2.92,2.92,0,0,0,.64848-.36025c.64847-.28822,1.297-.64848,1.87337-.86463l1.29695-.43232a9.62412,9.62412,0,0,1,1.29694-.50437,20.10111,20.10111,0,0,1,2.4498-.86463c.57642-.1441,3.24238-.79259,3.67469-.79259h.93671l.72051-.07207.21615-.072A3.05121,3.05121,0,0,0,144.12013,145.69233Z" fill="#fff"/><path d="M118.75756,131.06562c-.07207.36025-.14412,1.94542-.21617,2.37772-.21615.79259-.93669,4.17908-1.08079,4.53935a6.76512,6.76512,0,0,1-.43231,1.0808c-.07205.1441-.93671,1.15283-1.08079,1.441a3.82148,3.82148,0,0,1-.72053.86466c-.50437.50436-1.15286,1.00873-1.72927,1.5131a64.52549,64.52549,0,0,1-5.62013,3.89085,5.11272,5.11272,0,0,0,2.08954.072c.21615,0,7.99786,0,8.79045.07206a45.24975,45.24975,0,0,1,6.48474,1.65722,12.63657,12.63657,0,0,0,2.01749.93667,2.66761,2.66761,0,0,0,2.08952-.4323,17.5523,17.5523,0,0,1,2.01748-1.00873,2.1162,2.1162,0,0,0,1.297-.93671,6.65377,6.65377,0,0,0,.21615-2.08953v-2.37772c0-1.65722-.21615-3.24239-.1441-4.89959.072-.86466,0-4.4673-.07205-5.33193-.07207-.93669.14408-4.46726-.21617-5.18781a5.29163,5.29163,0,0,0-2.8821-3.09824,2.13675,2.13675,0,0,0-1.369-.21618,4.16079,4.16079,0,0,0-1.22488.43233,15.09832,15.09832,0,0,1-1.2249,1.00874c-.43232.36025-2.95417,2.08953-3.74676,2.81005C121.63966,128.47172,118.75756,130.41714,118.75756,131.06562Zm4.89959-30.40628a5.4626,5.4626,0,0,0-1.15285.43231,6.60726,6.60726,0,0,0-3.09828,3.31443,22.51167,22.51167,0,0,0-1.00875,5.76422c-.14408,2.08954.07207,11.31229.14412,12.321.072,1.15284.21617,2.30571.21617,3.45856a2.97794,2.97794,0,0,0,.1441,1.369c.21615.21615.50436,0,.72051-.1441.93671-.72052,1.87337-1.297,2.81008-2.01747s1.80132-1.44107,2.738-2.23366c.86464-.72052,1.72925-1.5131,2.59391-2.30569a9.52667,9.52667,0,0,0,2.08951-2.66593,16.59135,16.59135,0,0,0,1.297-3.09827,18.95356,18.95356,0,0,0,.50436-3.53061,18.432,18.432,0,0,0-.2882-3.38646,16.21727,16.21727,0,0,0-.57643-1.72928c-.072-.21615-.50437-1.08081-.64847-1.369a17.05855,17.05855,0,0,0-2.37773-2.738,6.101,6.101,0,0,0-1.369-1.00874c-.21614-.07206-1.00873-.36024-1.15283-.43231A11.30138,11.30138,0,0,0,123.65715,100.65934Zm15.99571,10.59177c-.2882.5764-.64849,1.08076-.93669,1.58513a24.69023,24.69023,0,0,1-2.3057,3.09827,12.104,12.104,0,0,1-1.29694,1.51314c-.36026.4323-1.94542,2.16157-2.3057,2.52184a3.96024,3.96024,0,0,1-.64845.50436c-.21617.1441-.50439.28822-.43234.57644.07205.4323,1.00876.4323,1.297.4323.57641.1441,1.2249.21617,1.80132.36025a12.50074,12.50074,0,0,1,3.17032,1.00877,4.27067,4.27067,0,0,1,1.369.79255,5.82295,5.82295,0,0,1,1.15283,1.15287,8.52347,8.52347,0,0,1,1.87337,2.66595,40.32047,40.32047,0,0,1,.72052,5.18778,16.24583,16.24583,0,0,1,0,1.87339c0,.64848.14412,6.19654.14412,7.42142,0,.72056,0,1.44107-.07205,2.16159a7.54968,7.54968,0,0,0,.07205,1.80132,2.08661,2.08661,0,0,1-1.15285,2.37776h-1.369a37.2417,37.2417,0,0,0-3.89084.79258c-.86463.28822-1.72927.5764-2.5939.93669s-1.72927.57641-2.52186.93666c-.93668.36027-1.80132.86466-2.66593,1.297s-1.80132.86463-2.666,1.369c-.79258.4323-1.58515.93666-2.44978,1.369-.72054.43232-1.44105.86462-2.16159,1.369a5.99623,5.99623,0,0,1-1.87337,1.369,2.79062,2.79062,0,0,1-2.01749-.21616c-.93666-.36027-1.72925-.79259-2.59388-1.08079-.93669-.28822-1.87337-.57643-2.738-.79258-3.81879-1.00874-7.85376-2.16157-11.81665-1.80132a14.26723,14.26723,0,0,0-5.69218,1.29695,17.86168,17.86168,0,0,0-2.23364,1.297c-.36025.2882-1.72926,1.72925-2.08951,2.16159a4.16571,4.16571,0,0,0-1.00876,3.81879c.21617.72053.64848,1.369.79259,2.08953a4.16365,4.16365,0,0,1-.07205,2.30569c-1.22491,1.44105-1.58516,1.58517-3.31442.86462a4.6866,4.6866,0,0,1-1.369-4.46726,12.98591,12.98591,0,0,1,3.74675-6.55681c.57643-.57644,1.22491-.93668,1.80132-1.5131a42.59452,42.59452,0,0,0,3.45852-3.74674,21.1849,21.1849,0,0,0,2.81006-4.32319,14.32951,14.32951,0,0,0,.9367-2.44977c0-.50439.21615-2.16161-.07205-2.59391-.79258-1.2249-3.38649-3.38649-4.25112-3.31444a9.48816,9.48816,0,0,0-4.32317,1.29695c-.28822.21617-.43231-.43229-.21616-.72051a17.7871,17.7871,0,0,1,3.45854-2.52184,5.42923,5.42923,0,0,1,2.37774-.5044,19.25969,19.25969,0,0,1,2.8821.07207c.28822,0,.57644-.07207.57644-.43232a14.606,14.606,0,0,0,.07205-3.96291,8.85017,8.85017,0,0,0-1.00875-3.60264,5.40941,5.40941,0,0,0-5.69216-3.45852,14.82418,14.82418,0,0,0-5.3319,1.369c-.21617.07207.57641-.79258.72052-.93666a18.47088,18.47088,0,0,1,4.17907-2.81008c.79257-.2882,2.95416-1.29693,5.18778-.57641,1.0808.43233,1.369.14412,1.369-1.00874a35.28647,35.28647,0,0,1,.4323-7.78171,16.0799,16.0799,0,0,1,2.95417-6.70091,9.27163,9.27163,0,0,1,1.369-1.51311c.21615-.21615.50436-.43231.72053-.64846s.64847-.43234.50437-.79259c-.07205-.21615-.50437-.21615-.79259-.21615h-1.15285a11.571,11.571,0,0,1-2.23362,0,29.63865,29.63865,0,0,1-4.39522-.86463,30.0987,30.0987,0,0,0-4.17907-1.15284c-.72053-.07207-1.44106-.07207-2.16158-.07207a4.14545,4.14545,0,0,0-1.87337.36025,6.3891,6.3891,0,0,0-1.80132,1.00878c-.64847.43229-1.2249,1.00873-1.87338,1.369-.36026-.36025,1.00874-3.1703,1.80132-3.96289a14.21434,14.21434,0,0,1,2.4498-2.16159,10.2427,10.2427,0,0,1,2.95416-1.44107,11.60774,11.60774,0,0,1,3.53058-.072,19.47726,19.47726,0,0,1,3.38648.86462,25.75211,25.75211,0,0,0,3.38649.79256,30.33459,30.33459,0,0,0,3.60264.28822,29.16508,29.16508,0,0,0,3.60263-.28822,36.31867,36.31867,0,0,0,4.035-.79256c1.2249-.36025,3.31442-1.15284,4.53933-1.5131.93668-.28822-2.37774,2.95415-3.89084,4.03495a46.1934,46.1934,0,0,0-3.96293,3.53059,12.48169,12.48169,0,0,0-1.58515,2.23362c-.21617.36027-1.15283,1.94544-1.369,2.30569a10.441,10.441,0,0,0-.86464,2.52187,19.693,19.693,0,0,0-.36027,2.88209c-.14409,2.0175-.14409,4.035-.14409,6.05244s.14409,4.107.14409,6.1245c-.072,1.00873-.072,5.11574-.072,6.12447a44.24559,44.24559,0,0,1-.14411,6.19655,52.9171,52.9171,0,0,1-1.369,5.76422c-.43231.86462-.72053,1.72927-1.15285,2.52184-.50437.93669-1.15283,1.72927-1.58515,2.666a14.17223,14.17223,0,0,0,1.58515-1.00873c.57644-.43234,1.15285-.86465,1.65722-1.297a16.32663,16.32663,0,0,0,2.81007-3.09827,9.87955,9.87955,0,0,0,1.58516-4.035,20.66586,20.66586,0,0,0,.36024-2.23364,12.39457,12.39457,0,0,0,.14412-2.30568c.072-1.51311.1441-7.70965.072-9.22275-.1441-1.58517,0-3.09828,0-4.61138-.072-1.58517-.21617-3.09827-.21617-4.68344a17.72419,17.72419,0,0,1,2.01749-8.79043,17.19125,17.19125,0,0,1,5.90833-6.1245,38.41012,38.41012,0,0,1,8.06991-4.035,29.224,29.224,0,0,1,4.25113-1.369,7.25008,7.25008,0,0,1,4.107-.2882,12.38335,12.38335,0,0,1,3.74674,1.9454,10.16736,10.16736,0,0,1,2.738,2.81005,5.93652,5.93652,0,0,1,1.15285,3.31446,20.96368,20.96368,0,0,1-.07207,4.25111C140.58954,108.44105,139.797,110.81877,139.65286,111.25111Z" fill="#111"/><path d="M195.92609,189.21224c-.64849-1.80132-1.65722-2.81005-2.81006-2.81005a53.41917,53.41917,0,0,0-7.56554,2.16157,13.172,13.172,0,0,1-1.80132.5764c-1.29695.43233-5.11574,1.44107-7.13323,1.94542.43232-.4323,1.2249-1.08075,2.37775-2.08949,1.80132-1.58517,4.32316-3.81882,4.61138-3.89087.1441,0,.28822-.072.43232-.072a1.44746,1.44746,0,0,1,1.08078.072c.72054.4323,1.00874.64848,1.00874.64848l.14409.21615,2.81006-2.88214-3.24235-3.7467h-.07207l-.72052-.21619-.64847.21619-2.666,2.59387.07207.1441a3.36481,3.36481,0,0,1,.36025.72057c-.36025-.14414-.86462-.28824-.86462-.36029h-.07207a1.34154,1.34154,0,0,0-.93666.50439c-.36029.36025-6.4127,5.18777-9.583,7.63758-.072.072-2.01747,1.51308-1.58517,2.95415a1.696,1.696,0,0,0,.14412.57644.91378.91378,0,0,0,.072.4323v-.072a2.92056,2.92056,0,0,1-.36027-.64845c-.14412-.50439-.36027-1.00874-1.00873-1.00874-.72054,0-8.50223,4.32314-10.01534,5.11573a.79685.79685,0,0,0-.28821.36024,1.67762,1.67762,0,0,0,.21616,1.08083c.4323,1.00873.72052,1.22488.79257,1.22488a3.15677,3.15677,0,0,0,1.94542.21619c.14412-.07209.28822-.21619.50437-.36029.50437-.36029,1.0808-.79258,1.44107-.57644a47.55294,47.55294,0,0,1,2.95415,5.90835h-.072c-.2882-.072-3.96289-1.44107-6.91706-2.5939-5.04369-1.94542-5.98038-2.30571-6.12449-2.30571a.545.545,0,0,1-.28822-.072,2.69459,2.69459,0,0,0-1.369-.07209,3.11951,3.11951,0,0,1-.36027.07209c-4.46728,1.00873-5.404,1.58513-5.476,2.01747a2.42322,2.42322,0,0,0,1.00875,2.37775c.79257.5764,2.738,0,3.38647-.21619l2.88213,8.71837-2.30569,1.00877-.07207.072c-.1441.1441-.86461,1.22492-.50437,1.94542.07207.072.14412.1441.14412.21615.2882.50438.57642,1.00873,1.297,1.00873h.21614c.86464-.14406,9.511-3.3144,9.87124-3.45854h.07205v-.072a1.72217,1.72217,0,0,0,.43232-1.297,4.20147,4.20147,0,0,0-.79259-1.369v-.07208a2.4844,2.4844,0,0,0-1.441-.2882c-.57642.21619-2.08954.64848-2.08954.64848a3.19586,3.19586,0,0,1-.57642-1.00873,41.87954,41.87954,0,0,1-1.5131-4.53936c4.61138,1.72931,11.96077,4.46731,12.17692,4.46731.072,0,.1441.072.21615.072a1.39266,1.39266,0,0,0,1.08081,0c.50436-.21615,3.02622-1.80132,3.31442-2.01747a.62555.62555,0,0,0,.50436-.36029.969.969,0,0,0-.14408-.57643c-.43233-.50435-4.75551-8.79045-4.82756-9.2948,0-.07205-.072-.21615-.072-.2882-.072-.43233-.14412-.64848.072-1.00877a8.47651,8.47651,0,0,1,1.08079-.79255,2.81569,2.81569,0,0,0,1.0808-.86463l.072-.14414c.072-.14406.1441-.21615.1441-.36025a1.96806,1.96806,0,0,0,1.2249,1.00874c1.15285.36028,3.31442-.21615,6.91706-1.22489.93671-.2882,1.94544-.57643,3.09828-.86463,3.89085-1.00874,7.06118-1.65719,8.28608-1.94542,0,.07205-.07207.07205-.07207.1441-.50437.64848-6.91706,5.90834-7.49346,6.19654-.14412,0-.21619.1441-.36029.21615a1.497,1.497,0,0,1-.86463.36029c-.1441,0-.21615-.14414-.36025-.28824-.28822-.36025-.64849-.79258-1.80132-.36025a17.37083,17.37083,0,0,0-3.67471,2.30567l-.14408.07209.14408.21615s.28822.36024.43232.57639c0,.07209.07207.1441.14412.28824,2.08953,3.3144,2.37775,3.53059,2.66593,3.53059a7.10325,7.10325,0,0,0,1.22492-.1441,16.37607,16.37607,0,0,0,2.59391-1.87341l.21615-.14406-.14412-.14414c-.43232-.50434-.86462-1.08078-1.00873-1.29693.072,0,.21615.07205.28821.07205a2.497,2.497,0,0,0,1.80132.072,8.46141,8.46141,0,0,1,1.15286-.2882h.072c.07207-.07209,7.85376-6.98913,9.43893-8.2861l.36025-.2882C195.1335,192.09431,196.50252,190.94148,195.92609,189.21224Z" fill="#111"/><path d="M207.16633,74.43213a10.60086,10.60086,0,0,1-3.38649,2.16156,2.94922,2.94922,0,0,1-3.45853-.86461c-.14411-.21617-2.16158-3.17032-3.45854-5.11576-1.0808-1.72927-1.72927-2.66594-1.80132-2.738a.95817.95817,0,0,1-.21615-.57641.75467.75467,0,0,1,.21615-.43232c1.65722-1.15285,5.90833-4.107,6.19655-4.25111a.51212.51212,0,0,1,.72052.21615c1.58517,2.30569,5.83629,8.43018,5.98039,9.511A2.82712,2.82712,0,0,1,207.16633,74.43213ZM159.32326,30.8402c-.72052-.28823-1.441-.64848-1.87337-.86463,0,0,3.53061-2.16157,3.67469-2.30571.07207,1.08079.36028,3.02624.36028,4.035A19.0743,19.0743,0,0,1,159.32326,30.8402ZM49.2266,62.61547q-.64847.86466-1.29694,1.72927a.79566.79566,0,0,0-.21616.50437c0,.1441,0,.21615.072.2882-.072-.07205-.1441-.1441-.21616-.1441-1.29695-.79257-1.72926-.43232-1.87337-.28822a28.50981,28.50981,0,0,0-1.87338,2.44981,5.71123,5.71123,0,0,0-.57641,1.22488v.14412l.07205.07205a2.45916,2.45916,0,0,1,.57642,2.8821,9.47464,9.47464,0,0,1-.79257,1.87339,1.10778,1.10778,0,0,0-.28822.4323,2.7962,2.7962,0,0,0-.43232.79259A9.29939,9.29939,0,0,1,40.148,77.38628a5.23749,5.23749,0,0,1-6.12449.57644c-.86464-.50437-2.08953-3.38649-.93669-5.54808a77.38516,77.38516,0,0,1,4.46728-6.773c.93668-1.29695,1.08079-1.29695,1.72926-1.15285.28821,0,.36027.1441.50437.21615a.42105.42105,0,0,0,.64848.14412,19.13758,19.13758,0,0,0,2.23363-2.81.86312.86312,0,0,0,.21616-.57643c-.072-.072-.072-.28824-.28821-.50439a.99469.99469,0,0,1-.28821-.21615A8.92249,8.92249,0,0,0,40.43617,59.301a2.01554,2.01554,0,0,0,.93668-.64845l.07206-.07208c.50437-.50435,1.00874-1.00874,1.441-1.51309H42.958c.21615-.1441.28821-.1441.36026-.07205a47.834,47.834,0,0,1,3.81879,3.02621c1.0808.79258,1.87338,1.51312,2.08953,1.65722.21617.072.28822.21615.28822.2882C49.58687,62.18314,49.37071,62.39932,49.2266,62.61547Zm162.76725,9.0066c-.4323-1.72929-2.37772-5.62013-9.0066-13.97822-9.4389-11.88874-12.68127-13.90621-12.75334-13.97826a1.00709,1.00709,0,0,0-1.441.072,20.49359,20.49359,0,0,0-1.44107,1.51312c-.07207,0-.21617.21615-.21617.50435a.48707.48707,0,0,0,.21617.43233l.36027.36025a13.97443,13.97443,0,0,1,1.80132,1.87337c0,.07205,0,.07205-.072.1441,0,.14414,0,.14414-.28822.43234-.36025.36025-3.53059,3.1703-4.68344,4.25112,0-.07208-.072-.14413-.072-.21615l-.14411-13.04157a2.18608,2.18608,0,0,0-1.08081-2.01747c-.36025-.1441-5.04369-3.31444-8.06989-5.404a.61583.61583,0,0,0-.43234-.21618.4871.4871,0,0,0-.4323.21618c-.21617.36025-1.297,1.87337-1.369,1.94542v.072a.91941.91941,0,0,0,.21619.86464c.28818.21615,1.87335,1.369,2.01747,1.51308a1.57366,1.57366,0,0,1,.28821.36029c0,.072-.07206.1441-.07206.21615-.21615.28823-4.82753,5.90834-5.25986,6.48478a.81328.81328,0,0,1-.57642.072c-.2882-.1441-2.666-1.65718-3.53059-2.23362,0,0-.57642-.36025-.57642-.86463,0-.5764.50437-12.89744.50437-12.89744a2.22013,2.22013,0,0,0-.50437-1.00874c-.072-.07205-5.83627-2.81009-6.41269-2.8821a1.71175,1.71175,0,0,0-1.369,0c-.43232.21615-8.79045,8.214-9.79919,9.15066a.362.362,0,0,1-.36027.07209,18.3499,18.3499,0,0,1-1.80131-.57644.60908.60908,0,0,1-.1441-.4323c0-.21618.1441-1.51312.1441-2.1616,0-.07205.072-1.00874-.50437-1.15284-.43232-.07205-2.44979-.2882-2.44979-.2882-.28822-.14413-.72053-.07208-.86465.50435a13.81066,13.81066,0,0,0-.50437,2.08956v.21615c-.072.07205-.14408.07205-.36025.07205-.64848-.07205-4.53934-.79259-4.61137-.79259-.072-.07205-.43234-.1441-.43234-.2882.14412-.72053,1.00875-7.27736,1.2249-8.50225l2.37774.21615c.36029.07209,1.2249.1441,1.369-.2882a21.51811,21.51811,0,0,0,.1441-2.738v-.1441c-.072-.072-.36027-.72054-.79258-.72054a3.16785,3.16785,0,0,1-.64847-.072,33.58886,33.58886,0,0,0-4.89959-.86463,44.73086,44.73086,0,0,0-5.9804-.36029.7354.7354,0,0,0-.72051.57644,20.67058,20.67058,0,0,0-.21615,2.738c0,.21615.21615.57644.93666.64849,1.44107,0,2.88212.21615,3.09827.21615.07207.07205.21617.1441.21617.28823-.1441.2882-.93668,7.06115-1.00875,7.85373v.2882h-.14408c-.36029,0-4.82754-.21615-4.97166-.21615a.37679.37679,0,0,1-.36025-.07205c-.14412-.1441-.14412-.2882-.14412-.5764.07207-.64848.07207-2.0175.07207-2.08955a.42151.42151,0,0,0-.14412-.4323c-.07205-.1441-.21617-.21619-.50437-.21619-.50436,0-2.95415-.07205-2.95415-.07205a.99589.99589,0,0,0-.79259.21619.56093.56093,0,0,0-.21616.50435v.28823c.072,2.16157-.1441,2.37772-.21615,2.37772-.43234.14414-4.8996.14414-7.7817.14414-.07207-.07209-.14412-.14414-.14412-.21619,0-.2882-.07205-.72053-.07205-1.15283a5.02483,5.02483,0,0,1,.07205-2.16161,5.4603,5.4603,0,0,1,1.65722-.072,7.85935,7.85935,0,0,0,1.22489.072c.72053,0,1.44107.07205,1.80132-.4323a3.60644,3.60644,0,0,0,.14411-2.08952.44234.44234,0,0,0-.07205-.43233.811.811,0,0,0-.57643-.36025c-.64847-.07205-3.96289,0-4.107,0h-.28822V20.89692a.22325.22325,0,0,1,.07207-.14414c0-.07205.07205-.07205.21615-.07205.36027-.072,5.69218-.1441,7.6376-.21615a.22321.22321,0,0,1,.14412.072c0,.07209.07205.21615,0,.36029a12.34505,12.34505,0,0,0,.21615,1.80132l.07205.07205a1.21955,1.21955,0,0,0,.93668.5764c.43232,0,2.666-.21615,2.81006-.21615,0,0,.9367-.07205,1.00873-.86464.14412-.5764-.14408-4.32317-.14408-4.75547a.6704.6704,0,0,0-.14412-.57644.83546.83546,0,0,0-.72053-.2882c-1.22489,0-14.48261.36029-18.22935.72054a136.569,136.569,0,0,0-14.91493,3.3144h-.21615c-.36027.07205-.86464.21619-.93669.64849a8.67219,8.67219,0,0,0,.28822,2.52185.68585.68585,0,0,0,.14411.50435.88053.88053,0,0,0,.64845.21619,16.44242,16.44242,0,0,0,1.72928-.28824c.72052-.1441,2.01747-.4323,2.30569-.4323a.25155.25155,0,0,0,.072.1441,2.93786,2.93786,0,0,1-.1441.50439c-.21617.79258-3.31444,10.66378-3.45853,10.51972a43.74855,43.74855,0,0,1-4.82754-3.24239c-1.94543-1.51312-4.107-3.31444-4.32317-3.60264-.07206,0-.07206,0-.07206-.07205a.22316.22316,0,0,0,.14411-.07205c.36026-.14414,1.08079-.43234,1.72927-.72054a13.95175,13.95175,0,0,0,1.5131-.57643c.50437-.2882.28822-1.29694-.1441-2.44981a3.12052,3.12052,0,0,0-.07205-.36025c-.21616-.72053-.57642-.93668-1.369-.93668-1.08078,0-10.23149,4.53932-13.04155,5.90834a102.07312,102.07312,0,0,0-14.55466,9.07865l-.50437.36025a6.6633,6.6633,0,0,0-1.44106,1.369c-.28821.50435.14411,1.00874.72053,1.58513l.36025.36029c.64848.64845,1.00876,1.00874,1.51312.79259.2882-.14414.57642-.43234,1.00874-.72054a7.08459,7.08459,0,0,1,1.08078-.86463.90012.90012,0,0,1,.79259-.1441c.28822.43229,4.035,5.476,4.39522,6.12449a1.5931,1.5931,0,0,1,.1441,1.08078c-.36026.21615-2.59389,2.16157-3.17031,2.52186-.36028.1441-.72054-.36029-.79259-.36029,0,0-.72053-.79258-1.2249-1.369a1.06562,1.06562,0,0,0-.93667,0,19.94308,19.94308,0,0,0-2.81008,2.59387c-.50436.43233,0,1.22492.07206,1.297v.072a14.03384,14.03384,0,0,1,1.297,1.22488c.072.072.1441.21619.072.28824a.25155.25155,0,0,1-.072.1441l-.07206.072a45.69754,45.69754,0,0,1-3.9629,3.89084.57028.57028,0,0,1-.50438-.1441c0-.07205-5.25985-4.46728-5.83627-5.04371,0-.072-.072-.072-.1441-.1441-.1441-.1441-.21616-.21615-.07206-.5764.28821-.43234,1.72928-1.80132,2.37775-2.52186.1441-.1441.28821-.21615.36026-.28823a.72672.72672,0,0,0,.21616-.5764.73744.73744,0,0,0-.28821-.50439l-1.369-1.369c-.50437-.50439-.86463-.36029-1.5131,0a39.98614,39.98614,0,0,0-4.107,4.25109c-.64848.72053-1.15284,1.22492-1.297,1.44107-.64848.57643-3.24238,3.60264-3.31443,4.25112-.1441.72054.79258,1.29694,1.65722,1.94542A4.64621,4.64621,0,0,0,36.113,60.67005a23.78146,23.78146,0,0,0-1.51311,2.16157c-.57642.79259-1.15284,1.65722-1.58517,2.23364-.93668,1.297-3.31442,5.11574-4.179,6.70091a7.2044,7.2044,0,0,0-.57643,5.83628,9.59268,9.59268,0,0,0,4.035,5.04369,9.52731,9.52731,0,0,0,3.89085.93668c5.3319,0,8.43017-5.476,8.86249-6.19654.21615-.4323.64847-1.08078,1.15284-1.87337,1.297-2.01749,3.09827-4.75547,3.17032-5.90833a5.74557,5.74557,0,0,0-.93668-3.74674,10.80672,10.80672,0,0,0,1.80132,1.369h.21615c.43232,0,.79259-.50437.86464-.50437,0-.07205,1.94543-2.30569,4.107-4.89959,1.80132-2.16157,7.56554-6.9891,10.59177-9.583.79256-.64849,1.441-1.22492,1.87337-1.58517,1.2249-1.00874,5.6201-3.81879,8.93454-5.8363a32.54543,32.54543,0,0,0,3.67469-2.37771.65582.65582,0,0,0-.072-.93669c-.1441-.36029-1.94542-3.89087-2.16159-4.39522a1.35627,1.35627,0,0,0-1.08079-.72054A7.88967,7.88967,0,0,0,75.30971,37.397a6.93464,6.93464,0,0,1-1.08078.64848c-.36026.21615-.43232.4323-.43232.57644-.07205.14406,0,.2882,0,.36025,0,0,.72054,1.51308.86463,1.87337.21617.36024.14411.43229.07206.57643a52.42888,52.42888,0,0,1-5.11574,3.38645.53472.53472,0,0,1-.57643-.07205c-.43233-.57643-1.51311-2.08951-1.65722-2.37775-.072-.21615-.072-.2882.21616-.50435.36026-.21615,2.738-1.80132,3.17033-2.01747a.81585.81585,0,0,0,.36026-1.00873,6.87446,6.87446,0,0,0-.64848-1.297.83408.83408,0,0,0-.93668-.4323c-.14411.072-3.24238,1.87337-3.74675,2.16157-.21616.1441-.2882.1441-.36026.1441-.07205-.07205-.07205-.07205-.07205-.1441a6.8429,6.8429,0,0,0-.72054-1.22489c-.21615-.28824-.21615-.43233-.1441-.43233,2.30568-1.51309,5.76423-3.81879,5.98038-3.96289.14411-.07205.28822.21615.28822.21615a6.80009,6.80009,0,0,0,.86462,1.44107c.36027.4323,1.00875.1441,1.297,0,.07205-.072,2.08953-1.15287,2.52184-1.369.43232-.2882.50437-.4323.50437-.79259v-.07205a3.087,3.087,0,0,0-.36026-.93668,6.66337,6.66337,0,0,1-.36027-.7205v-.21619c0-.07205.14411-.07205.14411-.07205h.072c.07206-.07205,1.58516-.72053,2.08953-1.00873.28822-.1441.36027-.07205.57644.07205.072.07205.14409.07205.21615.1441a1.35,1.35,0,0,1,.50436.43233c.21616.21615.50437.4323.86464.7205.28821.21619,1.44105,1.15287,2.81005,2.30571,3.02623,2.52185,5.404,4.46727,5.76424,4.68342a1.38316,1.38316,0,0,0,1.22489.072c.072,0,6.26858-1.87337,6.34065-1.87337.4323-.1441.57641-.50435.79258-1.08078.21615-.93669,3.45852-11.96076,3.74672-12.46514.07207-.1441.07207-.21615.14412-.2882.1441-.28824.21617-.4323.57642-.50439.57642-.07205,5.98037-.7205,6.05244-.7205a.34787.34787,0,0,1,.28822,0,1.34847,1.34847,0,0,1,.2882.64845c.07205.57644.21617,2.01747.36027,3.45854s.2882,2.88211.36027,3.24239a.90953.90953,0,0,1-.07207.86464c0,.07205-.07205.1441-.21615.1441a4.97206,4.97206,0,0,1-1.65722.21615,1.59934,1.59934,0,0,0-.64847.07205H105.644c-.28822.072-.79258.1441-.86465.64848a22.7577,22.7577,0,0,0,.14412,2.52186,1.21571,1.21571,0,0,0,.64846.7205,11.36743,11.36743,0,0,0,2.95418-.1441c3.17032-.2882,8.50223-.79255,14.12234-.79255,10.3756,0,16.428,1.441,21.39968,2.95415a76.05705,76.05705,0,0,1,7.85375,2.738,1.43905,1.43905,0,0,0,.57643.21615c.72052.2882.93667.07205,1.15284-.2882a9.44174,9.44174,0,0,0,.79257-2.08956c0-.21615-.14409-.36025-.36025-.5764l-.86464-.43233c-.28822-.1441-.64847-.2882-.72052-.4323a1.41071,1.41071,0,0,1,.21615-.43234,1.57493,1.57493,0,0,0,.21615-.36025A2.192,2.192,0,0,1,154.35163,33.29h.072a15.33625,15.33625,0,0,1,3.8188,1.369c.36027.21615.72054.36029,1.00874.50435a4.02146,4.02146,0,0,1,1.369.72054c.43232.43233.43232.72053.28822,1.58517,0,.1441-.07205.36028-.07205.50438-.072.5764-.1441.5764-.28822.5764a1.91852,1.91852,0,0,1-.86462-.21615,2.82439,2.82439,0,0,0-.64848-.2882c-.1441-.072-.36027-.1441-.50437-.21615-.36027-.14413-.79258-.36028-1.0808.07205a19.574,19.574,0,0,0-1.08079,2.01747.91559.91559,0,0,0,.1441,1.00874,34.55391,34.55391,0,0,0,3.67471,2.08951c.93667.50439,2.01747,1.08079,2.88211,1.58517,2.44978,1.44108,7.85374,5.04371,9.511,6.19655,1.72925,1.15283,2.52184,1.58517,2.88209,1.22488a5.2027,5.2027,0,0,0,1.58517-2.16157c.14411-.57643-.1441-.79258-1.08081-1.44107l-.1441-.1441a7.54292,7.54292,0,0,1-.79256-.57643c-.79259-.4323-.93669-.64845-.86466-.8646.50437-.79258,4.25113-6.26863,4.82756-6.62888h.1441l.07205.1441c.07207.43234.36025,11.67255.50437,16.06778-.07205.072.07207.21618.50437.64848a2.29967,2.29967,0,0,0,.43232.50435c2.5939,2.666,3.17032,3.09829,3.38649,3.09829a1.59362,1.59362,0,0,0,.93666-.50438c2.01751-1.72924,8.64635-7.49348,8.79045-7.70963.072-.07205.28822.072.50437.36025s3.81879,4.82756,3.96291,5.04371a.46058.46058,0,0,1,0,.57643A74.8624,74.8624,0,0,1,192.1073,63.264c-.43234.1441-.50437.21615-.79259,0a8.7179,8.7179,0,0,1-1.369-1.44107,1.04618,1.04618,0,0,0-1.441-.07205,5.97988,5.97988,0,0,0-1.15285.93668,1.19063,1.19063,0,0,0,0,1.58517c.28822.36025,6.98911,10.01532,7.92579,11.24022a3.99794,3.99794,0,0,1,.43234.57642c1.297,1.72927,3.89086,5.25986,6.48473,5.25986h.07206a14.99234,14.99234,0,0,0,8.35814-4.035A7.75861,7.75861,0,0,0,211.99385,71.62207ZM144.12013,215.6556a3.46159,3.46159,0,0,1-2.3057.72054c-4.46726.5764-11.45637,1.369-12.24895,1.15283a1.662,1.662,0,0,1-1.15286-1.29693c-.072-.07209-.79258-3.81879-.21617-5.18781a3.72078,3.72078,0,0,1,2.52186-1.80132c.36027-.072,8.79043-1.00873,10.88-1.00873a2.36122,2.36122,0,0,1,2.37775,1.80131,46.00014,46.00014,0,0,1,.50437,4.68343A.93807.93807,0,0,1,144.12013,215.6556ZM122.072,218.53771a5.88677,5.88677,0,0,0-1.00874.072c-.79258,0-2.37775.1441-2.52185-.2882-.21615-.64849-.86464-2.01751-1.08079-2.59391a16.498,16.498,0,0,0,3.02621-.57643,3.66431,3.66431,0,0,0,1.72927-1.29694,18.76733,18.76733,0,0,0,1.2249,4.32318A2.30442,2.30442,0,0,1,122.072,218.53771Zm-7.27735-6.19655a17.27371,17.27371,0,0,0-1.80132-.1441,53.77183,53.77183,0,0,1-6.48474-.50438,1.67941,1.67941,0,0,1-1.08079-.50435,4.36771,4.36771,0,0,1,.07205-2.16157c.2882-.43234,1.08079-.43234,1.369-.36029,0,0,9.94328.50439,10.44765.72054.21616.072.36026.36025.43233.50435a2.56389,2.56389,0,0,1-.21617,1.94545C117.10034,212.55731,115.44312,212.41325,114.79463,212.34116Zm-27.7403-6.845a.44232.44232,0,0,1-.072.43234h-.07206c-.36027-.072-3.53058-1.29693-5.62012-2.16157a1.51564,1.51564,0,0,1-.50437-.36025c.50437-.50442,4.89959-2.30574,5.69218-2.666a16.35175,16.35175,0,0,1,.64848,4.68346h-.07206Zm-18.58962-9.36684a4.06371,4.06371,0,0,1-2.16159-.86464c-.57642-.4323-6.55681-5.11572-6.845-5.33191a.47874.47874,0,0,1-.36027-.2882.22313.22313,0,0,1,.07206-.1441c.28821-.36028,1.369-1.44107,1.58515-1.65722a.769.769,0,0,1,.79258,0c.36028.1441,4.89959,3.81879,7.92582,6.19655.14411.2882.50436,1.00873.2882,1.369-.072.072-.072.1441-.14409.21615A.97438.97438,0,0,1,68.46471,196.12929Zm-2.01749,3.89087a1.34009,1.34009,0,0,1-1.58515,1.29694,8.885,8.885,0,0,1-2.37774-1.29694c-.57642-.36028-1.00875-.64848-1.2249-.79258-.43232-.14414-3.5306-2.666-5.54807-4.32318-.1441-.07205-.50436-.2882-.43231-.50435.1441-.28823.86462-1.22492,1.08079-1.58517l.07205-.07208s.1441-.5764.50437-.5764h0c.43232.1441,4.107,3.0262,5.83627,4.39522.79259.64849,1.369,1.08079,1.51312,1.22489a1.57574,1.57574,0,0,0,.36025.21618C65.36644,198.435,66.59133,199.22758,66.44722,200.02016Zm80.12272,6.26856a7.65532,7.65532,0,0,0-2.666-2.08952,7.12054,7.12054,0,0,0-2.88211-.36025c-.1441,0-13.83414,1.00874-15.27519,2.30567,0,0-1.94544,1.87341-2.16159,2.738v.14414a4.492,4.492,0,0,0-4.17906-3.53063c-2.66595-.4323-16.71624-1.80132-18.08524-1.80132-.79259,0-1.22491.07209-1.369.36029a.26466.26466,0,0,0-.07206.21615,13.41981,13.41981,0,0,0-.36025,2.16161c0,.50434.57641.57643,1.00873.57643.36027.072.72054.072.79259.21615.21616.2882.1441.79259,0,1.441a8.02062,8.02062,0,0,1-.14412,1.22489,29.82987,29.82987,0,0,1-.93667,5.83629c-4.82754-.2882-6.62886-1.00873-6.62886-1.44107-.07205-.79258-2.08954-12.89743-2.16159-13.40182v-.072h-.07206c0-.07209-.21615-.21619-.79256-.57644-.64848-.36029-5.98039-2.81-6.05244-2.8821a1.24018,1.24018,0,0,0-.86464.14406c-.2882.14414-1.51311.86467-3.31443,1.87341-3.31443,1.80132-9.4389,5.25986-9.87123,5.33187a2.584,2.584,0,0,1-.79257,0c-.36027-.28816-.72053-.5764-.86464-.7205.07205,0,.14411-.072.28822-.072.57642-.1441,1.65721-.43234,2.01747-1.29693a3.65121,3.65121,0,0,0,.072-2.88214,7.87769,7.87769,0,0,0-.57642-1.08079,3.08708,3.08708,0,0,0,1.72926-.21615.55046.55046,0,0,1,.36028-.14414c1.08078-.50434,2.37773-1.08074,2.44978-2.66591a3.87134,3.87134,0,0,0-1.15285-3.38649A21.64776,21.64776,0,0,0,71.0586,190.221c-.93668-.57644-1.87337-1.15287-2.52185-1.65722-.93668-.64849-2.88211-2.30571-4.2511-3.53059a12.27119,12.27119,0,0,0-1.87337-1.65722c-.57643-.4323-3.60264-3.45854-3.60264-3.45854-.14411-.1441-.79259-.86464-1.297-.93669-.1441,0-.21616.07205-.36027.1441-.2882.36025-1.94541,1.72927-1.94541,1.72927a1.06993,1.06993,0,0,0-.36028.50439,1.16216,1.16216,0,0,0,.21617.64848l.57642.5764c.43231.43234,1.369,1.29694,1.29695,1.58517l-5.476,5.8363-.07206.072a.07059.07059,0,0,1-.07205.07209c-.072.072-.21616.072-.50437,0a5.95712,5.95712,0,0,1-1.65721-1.44107l-.07206-.07205c-.36027-.14414-1.08079-.2882-1.369.1441a4.669,4.669,0,0,1-1.15284,1.22492,1.04237,1.04237,0,0,0-.07206,1.22488c.43232.57644,5.404,5.04368,6.70091,6.19655a95.97782,95.97782,0,0,0,9.07866,6.77294c.57641.2882,1.94543,1.15283,3.45853,2.08952,5.11575,3.09829,9.43891,5.69219,10.08738,5.83629a1.25069,1.25069,0,0,0,1.0808-.072c0-.07205.072-.07205.1441-.14413a6.34246,6.34246,0,0,0,1.15285-2.08948c0-.07209.21616-.57644-.72052-1.08083-.64848-.36025-2.01749-1.22488-2.37775-1.44107,0-.072,0-.21615.28821-.4323a12.01464,12.01464,0,0,1,1.08079-1.00873,2.8135,2.8135,0,0,1,1.00875.1441c.57642.21619,8.79043,3.96293,9.36686,4.25112.64847.36029.79258.50435.86463.72054a13.43334,13.43334,0,0,1,.072,1.94542l-1.441-.36029h-.07206a1.70476,1.70476,0,0,0-.57642.64849,6.18487,6.18487,0,0,0-.28821,1.51312.51875.51875,0,0,0,0,.5764,1.35361,1.35361,0,0,0,.79258.57643,3.278,3.278,0,0,1,.79259.21615,90.57436,90.57436,0,0,0,12.96949,3.38649,53.17089,53.17089,0,0,0,9.29482,1.22489h.07205c.43232,0,.57642-.5764.57642-1.65719a.87879.87879,0,0,0-.72054-1.08082c-.57642-.07205-2.23362-.4323-2.23362-.4323l-.86465-.21618c.07207-.5764.21617-1.65719.21617-2.01747.43232-.2882,3.67469-.072,6.62886.28823a43.39658,43.39658,0,0,0,2.59389,5.98036l.07205.1441,7.85376.14414h.07205c.14412,0,.50437-.072.64849-.64849a5.60209,5.60209,0,0,0,.1441-1.80132,3.10284,3.10284,0,0,1,.50436.50435,4.37211,4.37211,0,0,0,3.24237,1.58517h.28822c1.87337,0,9.79919-.79258,11.60051-1.15283a19.92613,19.92613,0,0,0,5.404-1.369,8.65992,8.65992,0,0,0,2.59388-2.52185,8.337,8.337,0,0,0,.86464-3.24239,18.143,18.143,0,0,0-.64847-4.107A21.59765,21.59765,0,0,0,146.56994,206.28872Z" fill="#111"/><path d="M166.81676,198.86729c0-.072-.072-.21615-.072-.2882a1.3986,1.3986,0,0,1,.21616-1.369,4.71465,4.71465,0,0,1,1.08079-.86467,4.594,4.594,0,0,0,1.00873-.7205l.07205-.14414c.14412-.2882.14412-.2882-.21615-.79258a3.012,3.012,0,0,1-.28822-.7205c-.21614-.50439-.36026-.72054-.64846-.72054-.50437,0-6.2686,3.17034-9.79919,5.11576-.07205,0-.21615.21615.072.86464a3.60688,3.60688,0,0,0,.64849,1.00873,2.85025,2.85025,0,0,0,1.5131.1441,4.12871,4.12871,0,0,0,.50437-.28824c.57643-.43229,1.29695-.93664,1.87339-.57639.64845.50438,2.81,5.33191,3.24235,6.26859,0,.1441,0,.21615-.072.2882-.07205.21615-.36025.14414-.64847.14414-.21615-.07209-2.738-1.00874-6.91706-2.59391-2.666-1.08082-5.76424-2.23365-6.05244-2.3057a.78336.78336,0,0,1-.36025-.07205,1.76527,1.76527,0,0,0-1.08081-.072,1.26775,1.26775,0,0,0-.43231.072c-4.39523,1.00873-5.04371,1.51312-5.11574,1.65718a1.924,1.924,0,0,0,.79256,1.94546c.64849.43229,2.52186-.14414,3.24239-.36029l.21615-.072.07205.21615,3.09827,9.29479-2.66595,1.15284c-.21615.28823-.57642,1.00873-.36027,1.44107,0,.072.072.1441.14412.21615.21615.5764.4323.79258,1.00873.79258.64847-.072,7.20528-2.4498,9.72712-3.38649a1.604,1.604,0,0,0,.28822-.93668A4.384,4.384,0,0,0,160.26,212.053a1.32075,1.32075,0,0,0-1.00875-.21615c-.57642.1441-1.87335.57644-2.08952.57644a.26482.26482,0,0,1-.21617.072c-.1441-.072-.43232-.21615-.93668-1.29693-.57642-1.369-1.58517-4.82752-1.65721-4.97162l-.14411-.43234.43231.1441c4.82755,1.80132,12.10488,4.53932,12.53719,4.61137.072,0,.21617.07209.28822.07209.2882.072.50437.21615.79257.072.50438-.2882,3.24239-2.01747,3.24239-2.01747h.072a1.03686,1.03686,0,0,1,.21619-.1441.22312.22312,0,0,0-.07207-.1441C171.42815,208.018,166.88882,199.51578,166.81676,198.86729Zm28.677-9.511c-.57644-1.58517-1.44107-2.52185-2.37776-2.52185a64.92817,64.92817,0,0,0-7.42142,2.1616c-.72056.21615-1.369.4323-1.80132.5764-1.58517.50435-6.62888,1.80132-8.142,2.16157h-.072l-.21618.07209V191.59c-.072-.1441.07206-.21615.14411-.21615.1441-.1441,1.72927-1.51312,3.09828-2.66595,3.67467-3.31441,4.61137-4.107,4.89959-4.107h.28822a1.76983,1.76983,0,0,1,1.441.1441c.50439.2882.79259.50435.93668.5764l2.23366-2.23366-2.95417-3.38645-.50437-.1441-.43232.21615-2.30568,2.23365c.50436,1.00874.36025,1.15284.28821,1.29694a.499.499,0,0,1-.36026,0c-.28822-.1441-.86466-.36025-1.00876-.43234a2.01158,2.01158,0,0,0-.64848.36029c-.4323.50435-9.22275,7.42143-9.583,7.70963,0,0-1.80132,1.297-1.51312,2.4498a2.22791,2.22791,0,0,1,.1441.57644c.28822,1.00873.43232,1.65722,1.369,2.01747,1.00873.2882,3.24237-.36025,6.70091-1.297q1.51311-.43225,3.02621-.8646c4.82754-1.22489,8.43018-1.94546,8.93454-2.01747.072-.07209.14412-.07209.14412,0h.21615v.36025h-.14412a2.68906,2.68906,0,0,0-.43229.5764c-.36029.50438-7.27735,6.34064-7.78172,6.34064a1.03731,1.03731,0,0,0-.21615.14414,1.32584,1.32584,0,0,1-1.15283.4323.95438.95438,0,0,1-.64849-.50435c-.21617-.28824-.43232-.50439-1.29695-.21619a14.79054,14.79054,0,0,0-3.31442,2.08956c.072.1441.21615.36025.2882.50434l.1441.28824c1.65722,2.66592,2.16158,3.24235,2.30568,3.3144a6.30676,6.30676,0,0,0,1.15286-.1441,22.25338,22.25338,0,0,0,2.23363-1.65722c-.43231-.50434-1.00873-1.22488-.93668-1.58517.07207-.07205.07207-.14406.1441-.21615.21615-.072.36027,0,.64848.07209a2.17248,2.17248,0,0,0,1.51311.072,4.39039,4.39039,0,0,1,1.2249-.21614c.64848-.64845,7.85376-6.98913,9.36686-8.28607l.36025-.28823C194.91735,191.73406,195.99816,190.79741,195.49379,189.35634ZM33.375,65.35348a64.94384,64.94384,0,0,0-4.107,6.62884,6.6484,6.6484,0,0,0-.57641,5.476,9.65284,9.65284,0,0,0,3.81879,4.82752c7.27733,3.45854,11.67255-4.2511,12.17692-5.11574a8.73028,8.73028,0,0,1,1.15285-1.87339c1.15284-1.87335,3.02621-4.68342,3.09826-5.76421a4.4324,4.4324,0,0,0-1.65721-4.179c-.93668-.57644-1.22489-.36027-1.22489-.36027s-1.44106,1.72927-1.87338,2.37774a2.16862,2.16862,0,0,0-.43231,1.00873,3.03142,3.03142,0,0,1,.57642,3.24239c-.57642,1.5131-.57642,1.58515-.86464,1.94542-.07205.1441-.21615.28822-.28821.43232-.1441.21615-.28821.50437-.43231.72052a9.76189,9.76189,0,0,1-2.30569,3.02622,5.66656,5.66656,0,0,1-6.62886.57641c-1.15284-.64846-2.37774-3.81878-1.08079-6.12447a77.72014,77.72014,0,0,1,4.46727-6.845c.93668-1.22489,1.22489-1.51309,2.16159-1.29694a1.25781,1.25781,0,0,1,.72052.36025l.07206.072h.072a12.37383,12.37383,0,0,0,2.08954-2.738.33906.33906,0,0,0,0-.50435.99549.99549,0,0,1-.28822-.21619,7.812,7.812,0,0,0-2.08953-1.51308,1.35738,1.35738,0,0,0-.57641-.14414,5.27317,5.27317,0,0,0-2.95417,1.51312c-.28821.36029-.86463,1.22489-1.44106,2.16161C34.38374,63.91241,33.80731,64.777,33.375,65.35348Zm174.07955,9.36685A11.31805,11.31805,0,0,1,203.924,77.026a3.36579,3.36579,0,0,1-1.22488.21615,3.71626,3.71626,0,0,1-2.666-1.2249c-.21615-.21615-1.58516-2.30569-3.53058-5.18779-.86465-1.297-1.72928-2.59391-1.80132-2.666a1.05867,1.05867,0,0,1-.28821-.86463,1.22894,1.22894,0,0,1,.43231-.79259c.21615-.1441,5.83626-4.107,6.19653-4.25109a.87664.87664,0,0,1,1.297.2882c.64847.86464,5.83628,8.43017,6.05243,9.72712A3.08985,3.08985,0,0,1,207.45454,74.72033ZM161.629,32.20919s-1.441-.50435-2.44977-.93669c-1.08081-.4323-2.16161-1.00873-2.16161-1.00873l-.2882-.21615.21615-.1441s4.17906-2.59391,4.25113-2.738a.22315.22315,0,0,0,.1441.072,30.97643,30.97643,0,0,1,.57641,4.75548v.36025Zm49.9326,39.557c-.36029-1.44105-1.94542-5.11574-8.93455-13.83412-9.36687-11.81665-12.60924-13.90617-12.60924-13.90617a.58467.58467,0,0,0-.86463.072c-.50437.43233-1.5131,1.44107-1.5131,1.44107a.23769.23769,0,0,0,0,.36025l.36026.36028c1.58514,1.441,2.01747,1.94542,1.94542,2.23362l-.07207.14414c0,.2882-.072.2882-.43229.64845s-2.81008,2.5939-4.68345,4.32317a.36509.36509,0,0,1-.36025.072c-.28821-.072-.36026-.4323-.43233-.57643v-.072l-.1441-13.04157s.07207-1.22492-.79259-1.58517c-.57641-.2882-7.42143-4.97162-8.214-5.54806h-.072a.07058.07058,0,0,0-.07207-.072l-.072.072c-.21615.2882-1.15285,1.65722-1.29695,1.87337a.25093.25093,0,0,0,.072.36025c.21618.21619,1.51314,1.15287,2.0175,1.51312,0,.072.28822.2882.36025.57644a.56033.56033,0,0,1-.1441.57639c-.21615.36029-4.97164,6.26864-5.18781,6.55684l-.072.07205c-.072,0-.64846.28819-1.08078.072-.36027-.1441-3.38649-2.16161-3.53059-2.23362a1.72578,1.72578,0,0,1-.79258-1.22492c0-.5764.50436-12.03281.50436-12.89744a2.82436,2.82436,0,0,0-.2882-.64849,50.63365,50.63365,0,0,0-6.48476-2.8821,1.19341,1.19341,0,0,0-.86463,0c-.36027.21615-5.98038,5.54806-9.65507,9.07865a.96856.96856,0,0,1-.86463.21615c-.72052-.1441-1.80132-.57644-1.87339-.57644l-.072-.072a1.779,1.779,0,0,1-.28822-.79259c0-.36028.1441-2.08955.1441-2.1616.07207-.2882,0-.72054-.21615-.72054-.36027-.07205-2.37776-.2882-2.44981-.2882-.07205-.07205-.2882-.07205-.36025.21615-.14411.43234-.36028,1.80132-.43231,2.01747a.88763.88763,0,0,1-.14412.50439.64674.64674,0,0,1-.64847.1441c-.72053-.07205-4.53934-.79259-4.68342-.79259-.28822-.07205-.79259-.2882-.72054-.79258.072-.79259,1.15284-8.64632,1.15284-8.64632l.07206-.21615,2.81006.21615a1.65179,1.65179,0,0,0,.86463,0,14.819,14.819,0,0,0,.1441-2.5939c-.072-.21615-.21615-.43234-.36026-.43234a1.73119,1.73119,0,0,1-.72054-.1441c-.86462-.1441-2.37774-.50435-4.89959-.79258a43.49848,43.49848,0,0,0-5.90833-.36025c-.072,0-.2882,0-.2882.21615-.072.36028-.1441,2.0175-.21617,2.666,0,.072.14412.14414.50437.21615,1.65724.07205,3.17034.21619,3.17034.21619h.072c.21617.1441.57642.36025.43232.79258,0,.2882-.57644,4.75548-.93669,7.78168a1.08934,1.08934,0,0,1-.14411.57644.60908.60908,0,0,1-.4323.1441c-.43234,0-4.75549-.21615-4.89959-.21615a.89754.89754,0,0,1-.72054-.21619,1.14839,1.14839,0,0,1-.2882-.8646c.072-.64848.072-2.08955.072-2.08955v-.21615H124.81c-.50436,0-2.8821-.07205-3.02622-.07205-.07205-.072-.36027,0-.4323.07205-.07207,0-.07207.07205-.07207.21615v.21618c.07207,1.65719,0,2.738-.57641,2.88211s-7.20528.1441-7.92582.1441h-.072l-.07205-.072a.687.687,0,0,1-.36027-.57644c0-.2882-.07205-.64848-.07205-1.08078-.072-1.58517-.072-2.30567.21615-2.59391.28822-.21615.93671-.1441,1.94544-.1441a7.855,7.855,0,0,0,1.22489.07205c.57643,0,1.2249,0,1.44107-.2882a3.68235,3.68235,0,0,0,.07205-1.80132v-.07205a.09982.09982,0,0,0,0-.14413c-.07205-.072-.1441-.072-.28822-.1441-.50437-.07205-2.81006,0-4.035,0a.96891.96891,0,0,1-.57642-.1441.37433.37433,0,0,1-.1441-.2882V20.969a.85839.85839,0,0,1,.1441-.43234.51859.51859,0,0,1,.50437-.2882c.50437-.072,6.98911-.21615,7.70965-.21615a.48712.48712,0,0,1,.43232.21615.78748.78748,0,0,1,.1441.72054c0,.21615.14411,1.08078.21616,1.58513.14412.07209.36027.36029.57642.36029.43232,0,2.738-.21615,2.738-.21615s.64848-.072.64848-.50439c.07205-.4323-.07207-3.53059-.14412-4.68342,0,0,.07205-.21615-.072-.2882-.07207-.14414-.28822-.14414-.36028-.14414-1.22489,0-14.41056.36029-18.22935.72054a135.65039,135.65039,0,0,0-14.77082,3.31444h-.28821c-.21616.07205-.57641.1441-.57641.2882a8.47935,8.47935,0,0,0,.28819,2.4498v.21615a.54.54,0,0,0,.36026.07205,13.34345,13.34345,0,0,0,1.65723-.2882c2.01747-.4323,2.59389-.50438,2.738-.21615,0,.072.07207.072.07207.1441.1441.21615.1441.2882-.07207.86464-.21615.64848-2.66594,8.35811-3.38646,10.80792,0,.1441-.14411.21615-.21617.2882a.31684.31684,0,0,1-.36026-.07205c-1.15284-.79259-3.60264-2.30571-5.0437-3.53059-2.08952-1.72927-4.107-3.31441-4.39523-3.67469a.55127.55127,0,0,1-.14409-.36025c.07205-.21619.14409-.36029.36026-.43234a9.24793,9.24793,0,0,1,1.80132-.72053c.64848-.2882,1.2249-.50435,1.44106-.64845.14409,0,.14409-.43234-.28821-1.87337a1.02428,1.02428,0,0,1-.14411-.43234c-.1441-.50435-.36026-.5764-.93669-.5764-.50437,0-4.68342,1.80132-12.8254,5.83626a96.2662,96.2662,0,0,0-14.48261,9.07865l-.50437.36025c-.86463.64849-1.15284.86463-1.297,1.22492-.21615.21615,0,.4323.64847,1.08079l.36028.36024c.43231.43234.79257.79259.93668.72054a5.45663,5.45663,0,0,0,.93669-.72054l1.08079-.86463a1.10608,1.10608,0,0,1,1.369-.072c.21615.21615,4.035,5.548,4.46726,6.1965a1.60716,1.60716,0,0,1,.14411,1.51312l-.07205.072c-.14411.07205-2.5939,2.16157-3.31442,2.59391-.50439.2882-1.00875-.1441-1.2249-.43234,0,0-.72053-.79258-1.2249-1.29693a1.17727,1.17727,0,0,0-.50438,0c-.2882.1441-2.23363,2.08952-2.666,2.52185-.14411.1441,0,.5764.14411.79259.1441.1441.86463.79255,1.2249,1.22488a.61618.61618,0,0,1,.21615.64849.42318.42318,0,0,1-.28821.4323c-.43232.50438-3.38648,3.74677-4.107,3.96292a1.05908,1.05908,0,0,1-.79258.072c-.072-.072-5.476-4.75551-5.98037-5.33191-.07206-.072-.07206-.072-.14411-.072a.8813.8813,0,0,1-.14411-1.15287,25.383,25.383,0,0,1,2.44979-2.5939c.14411-.14406.28822-.2882.36026-.2882.07206-.1441.07206-.1441.07206-.21615,0-.1441-.1441-.21615-.1441-.2882a11.977,11.977,0,0,1-1.369-1.369c-.28821-.21615-.36027-.2882-1.00874.07205-.43231.21615-2.66595,2.738-4.03495,4.17907a16.987,16.987,0,0,1-1.297,1.441,24.35238,24.35238,0,0,0-3.17033,4.035c-.072.50439.93669,1.08079,1.72927,1.58517.36026.2882.64848.07205,1.08079-.36028l.07206-.07205c.79258-.79259,1.441-1.51312,1.441-1.51312l.07205-.072h.07206a1.04172,1.04172,0,0,1,.50437-.1441h.2882c.79259.50438,2.52186,1.94542,3.89085,3.09829,1.00875.79258,1.80132,1.51308,2.08954,1.65722a1.1205,1.1205,0,0,1,.43232.5764c.07205.43233-.21616.72053-.43232,1.00873-.36026.50439-1.297,1.72927-1.297,1.72927a.3156.3156,0,0,0-.072.21617.521.521,0,0,0,.28821.4323c0,.07207.07206.14412.1441.21617a10.35568,10.35568,0,0,0,1.80132,1.29695c.1441.07205.43232-.21617.57643-.36027,0-.072,1.94542-2.30567,4.17906-4.89957,1.80132-2.16161,7.34939-6.845,10.66381-9.65509.79258-.64845,1.369-1.15283,1.80132-1.51312,1.2249-1.08078,5.69217-3.89084,8.93455-5.9083,1.80132-1.08079,3.53058-2.16161,3.67469-2.30571a.25443.25443,0,0,0-.07205-.36025l-.07206-.072s-1.94541-3.89084-2.23363-4.39522c-.21617-.43234-.43232-.50435-.64848-.50435-.14411.072-1.00873.5764-1.65721.93664a9.10962,9.10962,0,0,1-1.08079.72054.99547.99547,0,0,0-.28822.21615.07057.07057,0,0,0,.07206.072s.64848,1.58517.79258,1.87341a.96671.96671,0,0,1,0,1.15283c-.28821.21615-4.68344,3.24239-5.25986,3.45854a1.086,1.086,0,0,1-1.08079-.21615c-.14411-.28824-1.5131-2.16161-1.65721-2.4498a.79479.79479,0,0,1,.28822-1.08079c.43231-.28824,2.8821-1.87337,3.24236-2.08955a.36375.36375,0,0,0,.21617-.4323s-.43233-.79259-.64848-1.22493a.48713.48713,0,0,0-.43231-.21614c-.36027.21614-3.17033,1.80132-3.67469,2.08955a.711.711,0,0,1-.72054.1441.43142.43142,0,0,1-.36027-.36028,4.067,4.067,0,0,0-.64846-1.08079c-.21616-.36025-.28822-.57644-.21616-.79258s.21616-.2882.21616-.36025c.57642-.36025,5.69216-3.74674,5.98038-3.89088.43231-.21615.72052.07205.93668.43234a7.50712,7.50712,0,0,0,.72053,1.297c.21615.21615.64848,0,.79259-.07209,0-.072,2.16158-1.15283,2.52183-1.441.28822-.14414.28822-.14414.28822-.2882v-.14414a2.22455,2.22455,0,0,0-.36027-.72053,7.01958,7.01958,0,0,1-.36026-.79259.71263.71263,0,0,1,.07206-.5764.62976.62976,0,0,1,.4323-.2882c.21617-.07205,1.58517-.72053,2.01749-.93672a.94884.94884,0,0,1,1.08079.07209.2516.2516,0,0,0,.14411.07205c.21614.1441.36025.2882.64847.50435a3.94075,3.94075,0,0,0,.79258.72053c.21616.21615,1.369,1.15284,2.738,2.30571,2.30569,1.87337,5.404,4.46727,5.76422,4.61137a1.05881,1.05881,0,0,0,.86463.1441c.07206-.072,3.24238-.93668,3.24238-1.00873.5764-.1441,2.81006-.79259,3.09826-.93669.14412,0,.28822-.1441.50437-.79258,0-.1441,3.5306-12.03281,3.8188-12.53719a.54623.54623,0,0,1,.1441-.2882.96486.96486,0,0,1,.86464-.64849c.57642-.1441,5.54806-.72053,5.98037-.79258a.76557.76557,0,0,1,.57642.072,1.32325,1.32325,0,0,1,.57644.86463c.07205.64849.21615,2.08956.36027,3.53059.14409,1.369.28819,2.88211.36024,3.17034a1.74028,1.74028,0,0,1-.07205,1.22489c-.1441.21615-.28819.36025-.50436.36025a6.01905,6.01905,0,0,1-1.80132.21618c-.21615,0-.43232,0-.50437.07205h-.2882c-.36027.072-.50439.072-.50439.2882a13.57818,13.57818,0,0,0,.14412,2.37772.70068.70068,0,0,0,.4323.43234c.14412,0,1.29695-.072,2.666-.21615,3.24237-.28824,8.57428-.79259,14.19439-.79259a69.16068,69.16068,0,0,1,21.54378,2.95416,80.0294,80.0294,0,0,1,7.9258,2.81,3.516,3.516,0,0,1,.50437.21615c.43233.14414.50438.07209.64848-.14406v-.07209a11.71506,11.71506,0,0,0,.72054-1.80132.53816.53816,0,0,0-.21615-.21615,6.69754,6.69754,0,0,0-.72054-.36025,3.01651,3.01651,0,0,1-.9367-.57643c-.21615-.2882,0-.5764.21617-.93669,0-.07205.14411-.21615.21616-.36025a2.56579,2.56579,0,0,1,1.80132-1.44107h.072a29.71449,29.71449,0,0,1,6.48476,2.666,1.82166,1.82166,0,0,1,.43232,2.01747c0,.1441-.07205.36028-.07205.50438-.072.50435-.14412.93669-.72054.93669a2.345,2.345,0,0,1-1.00873-.28824,6.813,6.813,0,0,0-.64847-.21615c-.14412-.07205-.36027-.1441-.50437-.21615-.36028-.1441-.50437-.21615-.57643-.1441-.21615.2882-.79259,1.58517-1.00874,2.01747a.32535.32535,0,0,0,0,.4323c.21615.21619,1.94542,1.15287,3.53059,2.08956,1.00874.50434,2.01747,1.00873,2.95417,1.58517,2.95416,1.65718,9.511,6.12445,9.583,6.19654a8.69906,8.69906,0,0,0,2.30569,1.29693,5.19309,5.19309,0,0,0,1.44107-1.94542c.07207-.28823.07207-.36024-.86464-1.00873l-.1441-.1441a7.55439,7.55439,0,0,1-.79258-.57644c-.72052-.43229-1.369-.79258-1.00874-1.44107.07207-.072,4.53933-6.845,5.18781-6.845h.21615a.386.386,0,0,1,.36025.36025l.07207.1441c.07205.43234.4323,14.41056.50437,16.13983l.36027.36025c.072.07208.28821.28823.50436.50438a27.71135,27.71135,0,0,0,3.09828,2.95419,1.27486,1.27486,0,0,0,.57643-.36028c3.38645-2.95416,8.5022-7.42143,8.71838-7.70967a.55031.55031,0,0,1,.36025-.1441,1.33644,1.33644,0,0,1,.86464.50439c.21616.36025,3.89085,4.97162,3.89085,5.04367a1.0008,1.0008,0,0,1,.072,1.15287,65.07657,65.07657,0,0,1-6.34063,4.89958,1.08455,1.08455,0,0,1-1.2249,0,8.04059,8.04059,0,0,1-1.369-1.51312c-.07206,0-.21614-.21615-.50436-.21615a1.2163,1.2163,0,0,0-.36025.14413,13.1526,13.1526,0,0,0-1.15285.93665c-.43232.43234.072,1.00874.072,1.00874.072.14413,6.98912,10.0874,7.92579,11.24025a3.9957,3.9957,0,0,1,.43232.57642c1.22492,1.65722,3.74676,5.11574,6.12448,5.11574h.07206a15.19467,15.19467,0,0,0,8.06992-3.89084A7.177,7.177,0,0,0,211.56155,71.76617Z" fill="#fff"/><path d="M144.4804,216.01589a4.09251,4.09251,0,0,1-2.666.79255c-.93667.1441-9.0066,1.15283-11.67254,1.15283h-.72053a2.29527,2.29527,0,0,1-1.441-1.65722c-.07205-.1441-.79259-3.8908-.21615-5.476.64846-1.51312,2.81-2.01747,2.8821-2.01747.36025-.07209,8.79043-1.00877,10.952-1.00877a2.81114,2.81114,0,0,1,2.81005,2.16161s.43232,2.738.50437,4.68342A1.75385,1.75385,0,0,1,144.4804,216.01589Zm-20.67917,2.44977a2.7089,2.7089,0,0,1-1.72925.50438,5.88677,5.88677,0,0,0-1.00874.072h-1.2249c-.86463,0-1.58515-.072-1.72927-.57643a25.40125,25.40125,0,0,0-1.2249-2.81006l-.07205-.2882h.28822a21.028,21.028,0,0,0,3.24237-.64848,3.50821,3.50821,0,0,0,1.94542-1.80132l.43232.21615c-.2882.72053.50436,3.45854,1.15285,5.11576l.07205.1441Zm-7.9258-5.62011c-.36026,0-.72051-.072-1.0808-.072-.21615-.07209-.93667-.07209-1.80132-.1441-2.30569-.14414-5.83626-.28824-6.55679-.50439a1.90649,1.90649,0,0,1-1.44105-.79258c0-.21615-.28822-1.87337.21614-2.52182.43234-.72057,1.65723-.57643,1.72929-.57643,0,0,9.72712.43229,10.59175.72049a1.44978,1.44978,0,0,1,.64847.79259,3.40068,3.40068,0,0,1-.28822,2.37775A2.34079,2.34079,0,0,1,115.87543,212.84555Zm-28.53289-6.62884a.55058.55058,0,0,1-.36026.1441h-.14411c-.50437-.07209-5.1878-1.94542-5.69218-2.16161-.21615-.1441-.72052-.4323-.79258-.72054,0-.1441,0-.21615.07206-.28819a36.372,36.372,0,0,1,6.05244-2.88211.54468.54468,0,0,1,.2882.07205c.50437.57644.86464,4.25113.79258,5.11572A1.03125,1.03125,0,0,1,87.34254,206.21671Zm-20.463-6.12454a1.89537,1.89537,0,0,1-1.87338,1.65722H64.79a10.11342,10.11342,0,0,1-2.5939-1.369,6.67831,6.67831,0,0,0-1.08079-.72053c-.64847-.2882-5.11576-3.96293-5.69217-4.39523a.91339.91339,0,0,1-.57643-1.00873c.21617-.4323,1.00875-1.441,1.15284-1.65719.14411-.36028.50439-.93672,1.00876-.86467.36026.07209,2.44979,1.65722,6.05243,4.53933.72052.57643,1.29694,1.00873,1.44105,1.15287a1.57392,1.57392,0,0,1,.36027.21615C65.7267,198.14676,67.02365,199.01143,66.87954,200.09217Zm-8.0699-10.87993c.36026-.43233,1.65721-1.65722,1.65721-1.7293l.072-.072a1.61466,1.61466,0,0,1,1.297.072c.43232.21618,7.13323,5.62014,7.9258,6.26863h.072c.07205.14406.79259,1.22488.28822,1.94538l-.14411.14414a1.31042,1.31042,0,0,1-1.2249.72053h-.36026a4.93044,4.93044,0,0,1-2.37773-.93668c-.50437-.43234-6.773-5.25986-6.845-5.332a1.00594,1.00594,0,0,1-.50437-.5764A.88758.88758,0,0,1,58.80964,189.21224Zm87.4,17.36472a7.15648,7.15648,0,0,0-2.44978-1.94542,6.16643,6.16643,0,0,0-2.666-.36029c-2.738.21615-13.90619,1.15287-15.059,2.23362,0,0-1.87337,1.72931-2.01749,2.4498a3.04289,3.04289,0,0,1-.36025,1.22492l-.43234.64849v-.79259c0-.14413.21617-3.53062-3.89084-4.107-2.5939-.43234-16.64419-1.80132-18.01319-1.80132-.72054,0-.93671.072-1.00874.1441v.072a14.704,14.704,0,0,0-.36027,2.08956c0,.072.28822.1441.64847.1441.43232.072.86464.072,1.08079.43233a2.30384,2.30384,0,0,1,.07206,1.72923,7.18487,7.18487,0,0,1-.14411,1.15284c0,.07209-.50437,6.34068-1.29694,6.34068h-.072c-2.5939-.21615-6.98913-.64849-7.0612-1.87341,0-.79255-1.9454-12.249-2.16157-13.32973a4.5964,4.5964,0,0,0-.64847-.43234c-.64848-.36025-5.83627-3.0262-6.26859-2.81005-.21616.1441-1.80132,1.00873-3.5306,1.94542-6.41269,3.53058-9.72711,5.3319-10.01533,5.40395a1.5702,1.5702,0,0,1-1.00873-.072c-.57642-.36028-1.2249-.86463-1.15285-1.15283,0-.1441.07206-.2882.21615-.2882.07206-.07209.21617-.07209.36028-.14414.57642-.1441,1.441-.36024,1.72926-1.08078a3.09107,3.09107,0,0,0,.14411-2.52186,4.40842,4.40842,0,0,0-1.00875-1.441l.21616-.36028a3.02983,3.02983,0,0,0,2.08953,0l.43233-.21615c1.00873-.4323,2.08952-.93669,2.16158-2.23362.07205-1.65722-.28821-2.37776-1.00874-3.02621a27.643,27.643,0,0,0-2.95416-2.0175c-.86465-.5764-1.80132-1.15284-2.52186-1.65722-.93667-.64849-2.738-2.30567-4.25111-3.60264-.86464-.79259-1.58515-1.44107-1.80132-1.58517a44.85752,44.85752,0,0,1-3.67469-3.53056,2.81254,2.81254,0,0,0-1.00874-.79258c-.36027.36025-1.94542,1.72927-2.01748,1.80132a.23.23,0,0,0-.21615.21615c0,.1441.072.21615.1441.36028.072.072.28821.28817.50436.50435.86464.86464,1.51312,1.441,1.44107,1.87337a.55036.55036,0,0,1-.14411.36025l-5.476,5.76421a.23007.23007,0,0,1-.21616.21619.90682.90682,0,0,1-.86464,0,3.91833,3.91833,0,0,1-1.80132-1.51309c-.21616-.07208-.64847-.14413-.79258,0a5.38365,5.38365,0,0,1-1.22489,1.2969.741.741,0,0,0,0,.72057c.36026.4323,4.89959,4.61138,6.62885,6.12446a94.2105,94.2105,0,0,0,9.00661,6.62888c.64846.36025,1.94542,1.15283,3.45853,2.08952,3.53059,2.16161,9.36685,5.69216,9.94328,5.83626s.57642.07208.72053,0c.07206-.072.14411-.1441.21616-.1441a6.21778,6.21778,0,0,0,.93668-1.87337c0-.072,0-.2882-.50437-.57644-.79258-.4323-2.37773-1.441-2.44979-1.441l-.07205-.072a1.05974,1.05974,0,0,1,.28821-1.08082,13.08772,13.08772,0,0,1,1.2249-1.00874l.07206-.072h.072a3.72,3.72,0,0,1,1.22489.21615c.57643.1441,8.86251,3.89084,9.43893,4.25109.64847.36028.93668.57643,1.08079,1.00873a12.29781,12.29781,0,0,1,0,2.30571v.21618l-1.72927-.43233c-.14411.1441-.28822.21615-.36027.36025a6.7951,6.7951,0,0,0-.21615,1.44107v.07205a.34792.34792,0,0,0,0,.2882c0,.07208.21615.21618.50437.28823a4.464,4.464,0,0,1,.79259.21615,79.2884,79.2884,0,0,0,12.96948,3.38649,52.12573,52.12573,0,0,0,9.15072,1.22489h.07205a3.90819,3.90819,0,0,0,.1441-1.22489c0-.072.07205-.64848-.28822-.64848-.64846-.072-2.23362-.43234-2.30568-.43234L105.644,217.601v-.1441c.14408-.93668.21615-1.94545.21615-2.08952-.07207-.1441,0-.21618.072-.36028.50437-.5764,5.62013-.072,7.13323.1441h.1441l.07205.1441c.57643,1.7293,1.87339,4.17907,2.5939,5.98039l7.56555.14414c.1441,0,.21617-.07209.36025-.36029a6.87891,6.87891,0,0,0,.07207-1.65722c-.07207-.21615-.07207-.4323.07205-.50438.21617-.1441.50437,0,1.15283.64848a3.85041,3.85041,0,0,0,3.02622,1.51312c1.297.1441,9.87124-.79258,11.74463-1.08078a21.22452,21.22452,0,0,0,5.25984-1.369,9.64,9.64,0,0,0,2.4498-2.37772,7.25919,7.25919,0,0,0,.79259-3.02624,15.11154,15.11154,0,0,0-.64849-3.89084A17.26537,17.26537,0,0,0,146.20965,206.577Z" fill="#fff"/></svg>