<?xml version="1.0" encoding="UTF-8" standalone="no"?>
<svg xmlns:rdf="http://www.w3.org/1999/02/22-rdf-syntax-ns#" xmlns="http://www.w3.org/2000/svg" height="193.62905" width="195.72072" version="1.1" xmlns:cc="http://creativecommons.org/ns#" xmlns:dc="http://purl.org/dc/elements/1.1/" viewBox="0 0 195.72072 193.62905"><path d="M171.41722,124.94324Zm-7.62714.711.06463-.12927Zm-.19392.25855Zm-12.53957,1.422Zm-.51711-1.29272h-.06462C150.66876,125.97744,150.66876,125.97744,150.53948,126.04209Zm0-.06465v0Zm-12.53956,5.68805Zm-1.68057-63.08568Zm-3.61966,69.2262Zm-1.55129,46.02151Zm44.66414-15.25433Zm-70.84211,1.422a8.10915,8.10915,0,0,0-4.00749,1.422,8.00155,8.00155,0,0,1-1.16347.90492,11.82444,11.82444,0,0,1-2.133.1293c-1.2281,0-2.45622.0646-3.6843.0646-.8403,0-3.29648-.38781-3.94286.1293a5.812,5.812,0,0,0-1.0342-1.16348c.90491-.711,1.16347-1.7452,1.80984-2.58548.5171.64638,1.09884,1.48663,2.06839,1.29272,1.16346-.1939,2.00374-1.61592,2.71475-2.52083a21.79578,21.79578,0,0,0,4.00748-7.17471c.84029,2.97331,2.52085,4.5246,5.04169,6.07589a8.84015,8.84015,0,0,0,.51709,3.42575Zm-.32319-3.49038Zm0,.06463ZM70.19574,172.71c-4.58922.38784-9.11381.51711-9.69554.51711-1.48665.06463-2.97331.1293-4.5246.1293-3.03792.12927-6.1405.32317-9.24308.25851-4.9124-.12924-11.50538-1.09882-14.608-5.42949a6.39161,6.39161,0,0,1,2.133-.711,7.78018,7.78018,0,0,1,1.55128.96955c-1.22809,1.48666.19392,1.74519,1.5513,2.00376a13.34235,13.34235,0,0,0,6.593-.58174,4.84343,4.84343,0,0,1,1.03419-.32317c0,1.61592,6.26978-.38784,7.17469-.64638a14.49177,14.49177,0,0,0,4.65387-2.65014c.25855,1.48666,5.49415.58175,6.33442.06467,1.7452-.77568,3.03794-4.00752,3.29649-4.00752,1.03419,1.29275.711,3.29651,5.30023.4525.25856.90492.45246,7.17468,3.16721,6.3344-.06464.06463.19392,1.61592.77565,1.80982C80.53766,172.51605,70.19574,172.71,70.19574,172.71ZM35.93815,169.2842Zm22.75221-47.83137ZM40.9152,108.26692Zm-30.444-15.44826Zm169.47813,23.7864a11.65564,11.65564,0,0,0-2.58549-6.8515,9.48227,9.48227,0,0,1-1.55129-2.39159,11.62053,11.62053,0,0,0-1.93911-3.23184c-1.422-1.87445-13.44447-6.4637-14.80187-6.4637,4.00751-2.52084,7.04543-6.07586,7.8211-10.859.3878-2.26232,1.93909-14.80187-15.83607-18.874-4.58922-.77562-10.40656.711-15.06041.45246-.45246-.06463-3.36114-4.71849-7.75645-7.04542-4.2014-1.87446-13.44449-8.79062-40.97983-4.07213a109.86754,109.86754,0,0,0-17.58125,4.58922c-1.80984.64638-14.02623,4.20141-12.73349,7.17471-6.72224,2.58547-29.92691,8.07962-39.881,16.99952-3.555,2.77939-7.36862,5.882-9.82482,9.76019-1.09883,1.68055-1.87448,4.07211.64636,4.84778a17.63156,17.63156,0,0,0,7.304.711c-.711,2.39155.12927,3.42575,2.90866,4.00747,2.77939.32319,4.84777-.38782,5.68805-.1939-1.2281,1.55127,3.16721,1.61592,4.13677,1.48666,2.19766-.32321,4.45995-.6464,6.65761-.96957,0,3.29647,4.39531,2.52084,6.33442,2.58549-.45246,2.133,2.45621,1.87445,4.00749,2.19765-2.00374,3.23185.77564,4.07211,3.10257,4.33066,1.9391.32319,4.91242-.25855,5.2356.06466-.90492.96954,2.39156,1.93911,3.10258,2.06838-.06464,1.55127,2.4562,2.844,3.81357,3.10258a3.16774,3.16774,0,0,0,2.39157,3.42575c-1.16347,4.65387-8.27353,7.69178-11.37611,10.47117-2.97329,2.65012-5.882,5.30023-8.79063,7.95035C36.45525,147.30764,31.155,153.7067,27.92317,161.14c-.19392.51707-1.03419-1.422-2.19766-6.2698-.77564-3.36115-1.422-4.84777-1.48666-4.78317-.38781-1.422-11.89319-.45244-14.28477-.12927-3.23185.25857-2.71474,4.1368-2.19765,6.4637,2.133,9.0492,8.015,20.87778,15.77142,26.178a29.30536,29.30536,0,0,0,14.47868,4.84778c2.45621.12926,5.2356.06463,7.6918,0,2.00375,0,4.20141.06463,6.20516,0,4.84777-.06464,5.4295.3878,10.27727.12926a33.21319,33.21319,0,0,1,5.688.32321,2.48643,2.48643,0,0,1,1.68056.84024c1.09883,1.55129,2.97331,2.0684,4.7185,2.32694a8.82874,8.82874,0,0,0,2.26228,0c.51711-.06463,1.16347-.45244,1.61593-.38781.90491,0,1.80984,1.16349,2.71476,1.422a5.42313,5.42313,0,0,0,2.65012.38784c1.03418-.1939,2.00373-1.09885,2.97329-1.22808a8.362,8.362,0,0,1,1.68058.51707,4.86209,4.86209,0,0,0,3.1672-.1939,7.45213,7.45213,0,0,0,4.78313-3.61969c.25854-1.16345,11.31147-.58171,11.6993.58174,1.74519,3.29652,5.49414,6.20516,9.437,4.65387.45246-.19393,1.29272-.96955,1.74518-1.03418.64638,0,1.68057.84025,2.45622.96955a6.478,6.478,0,0,0,4.71849-1.22812c1.55129-1.09882,1.93911-2.844,2.4562-4.71847,2.77939-.96958,3.10258-1.8745,3.42577-2.52084,1.03418.0646,3.74894-.06467,4.84777-.06467a53.682,53.682,0,0,0,5.55878-.45244c3.61967-.3232,7.304-.3878,10.92365-.84031,4.2014-.51707,8.40281-.96951,12.60422-1.68053,2.06838-.3232,4.13676-.711,6.14049-1.22811a11.83847,11.83847,0,0,0,4.84778-1.7452c.38782.32318.58172-5.688.58172-5.94662a6.78509,6.78509,0,0,0-.3878-2.58544c-.12927-.38784-.711-2.32693-1.29274-2.3916-9.11382,1.422-30.70256,3.42578-34.51615,3.94286a108.86975,108.86975,0,0,1-13.76767,1.16348,25.686,25.686,0,0,1-6.593-1.16348,4.3569,4.3569,0,0,1-2.97331-5.688c1.09883.45244,2.65012,1.80983,4.07215-.3232.84026,0,.90491,3.42575,5.10631,1.80982.51709.90492,1.29273,5.68805,6.46369,4.2014,1.87448-.84025.96955-3.23185.84028-5.17094-.12927-1.80983-.38782-4.39534-.64636-6.14053-.38784-2.71474-1.16347-7.43324-1.48667-10.148a72.355,72.355,0,0,1-.32317-11.82857,15.39581,15.39581,0,0,0,4.9124-3.94286,19.95543,19.95543,0,0,0,2.71476-5.36488,5.7638,5.7638,0,0,0,2.06838-.1939c.96955-.12927,2.00375-.25856,2.97331-.45246a47.55716,47.55716,0,0,0,5.94659-1.61593c-2.133,2.52084,3.555.711,4.46.38784a42.97536,42.97536,0,0,1,8.015-1.61592c-.96955,1.48664,1.80983,1.22808,2.52084,1.16343,2.19765-.25852,3.6843-1.422,5.23559-2.77935.06464.25852-.12927,1.68054.12929,1.87444a5.892,5.892,0,0,0,1.74519-.32317,9.53584,9.53584,0,0,0,3.42575-1.48666,9.09752,9.09752,0,0,0,3.749-7.43326C179.94932,116.15261,180.014,116.73435,179.94932,116.60506Z" fill="#c60c30"/><path d="M118.221,110.5292v0Zm7.69182-19.585c0-.25853-.12929-2.52083-.64638-2.58547-.45245-.06463-.45245.84028-.45245,1.16347-.12929,2.58547-.12929,4.58922-1.48666,6.91615-2.65011,4.58922-6.01124,8.59672-5.882,14.28477,0,2.52085.1939,5.62341,1.61592,7.82108.32317.51709,1.422,2.06838,1.422.64636-.06463-1.03418-.96954-2.39157-1.2281-3.42575a18.68635,18.68635,0,0,1-.51709-3.74894,17.6346,17.6346,0,0,1,1.2281-6.85152c2.00375-4.97706,6.14051-8.46744,5.94661-14.22015Z" fill="#fff"/><path d="M168.83175,117.38072c.58174.32319,3.36114,2.133,1.422,2.32694-1.09883.06463-2.90866-1.03422-3.81357-1.48667-1.0342-.45246-2.06838-.90492-3.1026-1.29272a10.40219,10.40219,0,0,1,3.1026-.51711,4.60274,4.60274,0,0,1,2.39155.96956C168.961,117.38072,168.7671,117.31607,168.83175,117.38072Zm-7.56253,1.80983c-.12925.58174-1.422.64636-1.87446.77565-1.09883.25855-2.2623.84027-3.36112,1.09883-.711.12928-.96956.1939-.64639-.64638a13.0343,13.0343,0,0,1,1.74521-2.45618c.77566-1.0342,1.422-2.133,2.133-3.2965.32317-.51709.84026-1.35737.96953-.06464.12929,1.35737-1.93909,3.81359-2.71474,4.71851.58174-.12929,3.94286-1.35737,3.74894-.12929C161.20459,119.25518,161.26922,119.06128,161.26922,119.19055Zm-6.14049-2.26228a11.343,11.343,0,0,1-2.97333.32318c-.90491.12927-2.97329.84028-3.81357.51708-1.2281-.45246.77566-2.06838,1.29273-2.52084.58175-.58172,3.94286-3.94286,4.39532-3.555,1.16347.96957-2.65011,3.81358-3.23185,4.45994a22.82969,22.82969,0,0,1,3.61969-.32318c.32317,0,1.68054.711.711,1.09884C155.06408,116.92827,155.19335,116.86362,155.12873,116.92827Zm-6.39908,3.81359c-.32317.64636-2.39155.64636-2.90866.711a37.92453,37.92453,0,0,1-3.81357.32321c-2.2623,0-.90493-2.2623.12927-3.1026.32318-.3878,2.97329-2.844,3.36111-2.45618.64636.711-2.06838,3.42575-2.39155,3.81359.51709-.06465,6.78687-1.22812,5.6234.711C148.72965,120.80647,148.79429,120.61257,148.72965,120.74186ZM129.791,115.9587Zm3.6843-1.35737Zm-2.77937-9.04918Zm16.0946,3.81359c.45246-.77565,2.58546-.58175,3.29647-.45246.51711.12927,1.09885.06462.58174.711a15.59028,15.59028,0,0,1-2.71474.51708c-.38784.12928-1.93911.25855-1.16347-.77563C146.85517,109.17183,146.66127,109.495,146.79055,109.36574Zm-1.03419-1.61593c-.96957-.32319-.32318-1.0342.32318-1.16346s2.9733-.32319,3.555.06465c.45246.25852.38784.51707,0,.77562-.77562.58175-3.03791.58175-3.8782.32319C145.62709,107.74981,145.88564,107.81446,145.75636,107.74981Zm-3.555-10.27728c.45246-1.80983,4.78314,1.422,5.42951,1.87447.06464.12929,3.3611,2.133,2.65013,2.52084-.32321.25856-3.49041-1.74519-3.87824-1.93909-.84028-.38784-1.68055-.8403-2.58548-1.16347C143.2355,98.57138,142.00742,98.37744,142.20132,97.47253Zm0,4.84777c1.35739,0,2.77941.77564,4.2014.90491.38783.06465,4.91242.38784,3.61968,1.35741-.38784.25852-1.74521-.12929-2.19766-.12929-1.09884-.06465-2.133,0-3.16722-.06465a3.679,3.679,0,0,1-2.58549-.711C141.8135,103.3545,141.49033,102.3203,142.20132,102.3203ZM141.03785,113.05a15.36575,15.36575,0,0,1,3.36112-.96955c.45247-.12926,2.39158-.84028,1.61594.19391-.25855.38784-1.55129.64636-2.00375.84029a21.3486,21.3486,0,0,1-2.77939,1.22809c-1.61592.45245-1.22812-.96957-.19392-1.29274Zm12.992-8.59671c0,.1939,0,3.29648-.711,2.65012-.32317-.32319.06465-3.03794.51711-3.03794a.3908.3908,0,0,1,.1939.38782ZM78.85709,126.81771Zm62.05149-3.61967a49.10177,49.10177,0,0,0-5.171,2.71476,8.11186,8.11186,0,0,0-2.65012,2.26229c-1.2281,2.19766,2.71476-.12927,3.42577-.45246a19.50885,19.50885,0,0,1-5.36487,7.6918c-2.19766,2.00374-5.68806,3.16721-8.46746,4.07212a67.16355,67.16355,0,0,0-9.24307,3.68431,63.31647,63.31647,0,0,0-9.56627,4.84779c-3.23185,2.32693-5.36487,6.52833-7.11006,10.01872-1.2281,2.5855-2.0684,5.36488-3.36113,7.88571-.58173,1.16349-1.16347-.06463-1.48664-.711-.58174-1.35735-.12929-2.39157.1939-3.81359.12927-.64634,1.16347-6.7222.32319-6.78687-.06464,0-1.09883,6.01126-1.29274,6.78687-.711,2.58551-1.22812,5.49418-3.36113,7.43328-2.06838,1.80983-2.32692-2.133-2.39155-3.42575,0-3.36112,1.422-6.593,1.35737-9.95412,0-1.68056-.45246-.1939-.58175.51711-.1939,1.422-.45245,2.844-.711,4.266-.32319,2.06837-.32319,7.23934-2.844,8.015-3.16721.90491-2.00374-5.30021-1.87447-6.72224.12927-1.55129.64636-3.94286.1939-5.42951s-.51709,1.55129-.58173,1.9391c-.38782,3.49041-.64637,7.23937-2.19766,10.40655-.32317.58174-.64636,1.03418-1.2281.64638-1.03419-.711-.64636-3.23185-.45246-4.07213a30.05318,30.05318,0,0,0,1.35739-9.30771c0-.711-.06464-1.22811-.32319-.25857a25.25039,25.25039,0,0,0-.32319,3.10258,9.37231,9.37231,0,0,1-.38782,1.9391,15.84233,15.84233,0,0,1-1.35737,3.68432c-.19391.38784-.711,2.06836-1.16347,2.133-.77564,0-.12927-5.94662-.06464-6.85153a14.24454,14.24454,0,0,1,.25855-2.32694,12.87935,12.87935,0,0,1,.77565-1.22808,37.84259,37.84259,0,0,0,1.9391-4.39534c1.2281-3.16721,2.06838-6.52831,3.10258-9.76016,3.42575-1.3574,6.8515-2.39158,10.08335-4.26605a22.35893,22.35893,0,0,0,4.58924-3.555c.19392-.1939,1.16346-.96953.45245-.96953s-2.52083,1.80983-3.10256,2.19765a29.24073,29.24073,0,0,1-4.46,2.32693A39.5878,39.5878,0,0,1,80.7962,139.939a3.83169,3.83169,0,0,1,2.133-2.97329,50.16931,50.16931,0,0,0,4.45995-2.58549c.19392-.12925,2.06838-1.422,1.48665-1.55128-.45246-.12926-1.80983.90492-2.19766,1.09882-3.49039,1.68058-7.43325,3.36113-11.31147,3.61969.5171-1.09885.5171-2.06838,1.422-3.03795a15.76993,15.76993,0,0,1,4.58922-3.16719c.64637-.32319,4.7185-1.35741,4.33068-1.80986-.45246-.58173-4.00748.64639-4.71849.90494a11.96151,11.96151,0,0,0-2.39159,1.22809c-.64636.45245-1.09881,1.0342-1.87446,1.0342-.58172.06461-3.03793-.38784-3.29648-1.0342-.32319-.90492,1.35737-2.90866,2.00375-3.2965a13.20056,13.20056,0,0,1,3.94286-1.68054c.45245-.19391,2.77939-.19391,3.03793-.45246.38782-.51711-.19391-.45246-.58175-.51711-4.39531-.77564-8.98452,4.33068-13.18592,1.48667,1.03419-2.19766,4.33067-3.03794,6.39905-3.81359.5171-.12927,2.71476-.45245,2.9733-.90493.32319-.3878.12927-.25853-.1939-.3878-.64638-.32319-2.19767.3878-2.97331.51707a34.51709,34.51709,0,0,0-3.42575,1.0342c-1.09883.38782-4.33068,1.61592-5.30024.19392,1.0342-2.39159,5.30024-3.81357,7.4979-4.71849.45246-.19393,4.71849-1.29275,4.3953-1.74521-.38782-.5171-4.07212.77565-4.58922.96955-3.16721,1.09883-7.304,4.20141-10.66509,2.32694,1.29273-2.58548,5.17095-3.23185,7.56252-4.0075.64636-.1939,3.23185-.84028,2.58548-1.29273-.38782-.25856-2.65012.5171-3.16721.64636-1.422.25855-2.90867.58172-4.33068.90493-1.7452.45245-4.52459,1.29272-6.07588-.12927.45246-1.29275,1.87448-1.93911,3.03794-2.39159,2.90867-1.09881,5.81733-2.19766,8.59671-3.555,1.22811-.58173,2.45621-1.16347,3.61968-1.80983.84028-.45246,1.22808-1.03418.06464-.64636a37.37688,37.37688,0,0,0-4.65387,2.00373c-1.80983.77564-3.6843,1.29275-5.49415,2.00376a23.13609,23.13609,0,0,1-5.882,1.87448c-1.29273.12925-3.81358.38781-2.844-1.55131,1.03419-2.06838,4.20141-3.6843,6.33442-4.65387.58173-.25852,3.555-1.03418,3.555-1.61592,0-.64636-2.9733.58174-3.29648.711a34.024,34.024,0,0,0-7.11006,3.749c-2.58549,1.61592-5.2356,1.48665-8.14426.45245a16.118,16.118,0,0,1,1.87447-2.77939,4.867,4.867,0,0,1,2.39157-1.48664,48.34088,48.34088,0,0,1,6.26978-2.71477,107.30919,107.30919,0,0,1,13.31521-3.74892h0a40.44247,40.44247,0,0,0-12.92739,2.6501c-2.844.96955-5.49414,2.19767-8.27353,3.42575-.96955.45246-6.07587,2.133-6.20515.19391-.1939-2.39156,4.7185-3.87821,6.4637-4.71849a34.46069,34.46069,0,0,1,4.84777-1.93911c.77564-.25856,4.00749-.58173,4.33067-1.422.25856-.77563-1.68056,0-1.80982.06465a57.16651,57.16651,0,0,0-6.52834,1.74521,56.7357,56.7357,0,0,0-7.43325,3.6843,9.12041,9.12041,0,0,1-6.26979.51708c-.12927-.45246.5171-1.48664.77565-1.87445.58173-.84029,1.74519-1.16347,2.58547-1.61592,1.93911-.96957,3.749-2.00377,5.75269-2.77939,3.94286-1.55131,7.88572-3.2965,11.8932-4.84778.96956-.3232,1.87448-.711,2.844-1.0342.51709-.12926,2.19765-.38782,2.45619-.84028.45247-.77564-1.61592-.25855-1.74518-.1939-1.16347.25852-2.39158.51708-3.55505.84026-4.39531,1.16347-8.4028,3.2965-12.47493,5.171-3.49039,1.61592-6.85152,3.555-10.53582,4.71852,0,.06463,0,0,.06463,0a23.05235,23.05235,0,0,1-5.36486,1.55127c-1.09883.12929-3.03795.45246-4.0075-.12927.5171-1.68055,2.19766-2.26228,3.555-3.03793,1.80983-1.09883,3.61967-2.19764,5.4295-3.16721,3.10258-1.68056,6.46371-2.97329,9.63091-4.58922,2.06838-1.0342,4.20141-1.87448,6.26979-2.97329.38781-.19394,3.10257-1.29276,2.19766-1.68058-.38783-.12928-2.133.84028-2.58548,1.03418-1.29275.51711-2.52085.96957-3.81359,1.48666-1.80983.77566-3.6843,1.61592-5.49414,2.4562a99.43477,99.43477,0,0,0-9.50164,4.65387c-1.55128.90492-3.03793,1.80983-4.52458,2.65013-1.422.77562-2.90866,1.87444-4.45995,2.19765a7.64279,7.64279,0,0,1-3.42576-.12927c-1.48665-.51711-1.09884-1.422-.38783-2.52084,1.35738-2.133,4.39532-3.555,6.39907-4.84777A130.569,130.569,0,0,1,44.98733,85.7086c1.03419-.45246,7.69179-2.844,7.304-3.74892-.25854-.58175-4.45995,1.422-5.36486,1.74517a183.53029,183.53029,0,0,0-18.163,8.20889c-3.36113,1.80986-6.4637,3.94286-9.82482,5.68807A8.93869,8.93869,0,0,1,15.125,98.70064c-1.16346.06464-3.74894.38781-4.65385-.5171C8.726,96.30906,22.17047,87.25991,23.65713,86.09644a42.5823,42.5823,0,0,1,7.82107-4.84777c3.29648-1.55131,6.78688-2.133,10.21264-3.10258.90491-.25856,1.87447-.45246,2.77939-.711,4.45994-1.09882,8.59672-2.90866,12.992-4.13677,2.52084-.77564,5.75268-.90491,8.015-2.4562.96955-.64638,1.48664-1.80984-.06464-1.93911-.77565-.12927-2.45621.45245-3.10257-.12927.58172-.96957,2.77938-1.35739,3.74894-1.68056,2.39156-.711,4.78314-1.35739,7.11006-2.133l3.87822-1.35737a73.62505,73.62505,0,0,1,23.39858-3.4904c6.52834.12927,13.89695.38782,20.23137,2.4562h0c2.7794,1.0342,5.62342,1.80984,8.07963,3.4904a15.81688,15.81688,0,0,1,4.00749,3.74894c.32317.51711.64637,1.74519,1.16347,2.06838.77562.45246,2.844-.06463,3.6843-.12927,2.2623-.19392,4.52459-.32318,6.78687-.32318,3.81361,0,7.56253,0,11.24683,1.16346h-.06461c5.6234,1.48666,9.24308,8.79063,8.27352,14.22015-.51711,2.77936-2.71474,4.977-4.84777,6.72222-1.16347.90491-2.39157,1.93913-3.555,2.90867-.90491.711-2.4562,1.87448-2.65011,3.038a13.41772,13.41772,0,0,1-5.55878-2.00376c-2.06838-1.22809-4.33068-2.26229-6.52835-3.29647-1.2281-.58174-4.46-2.844-3.42575.06462a9.5191,9.5191,0,0,0,2.19765,3.2965,11.699,11.699,0,0,1-2.58547-.25856c-.38782-.06465-1.87446-.64637-2.2623-.32317-1.35737,1.16347,2.97331,4.07211,3.61969,4.52457-1.87448.84028-3.749,1.61592-5.55879,2.52085-.711.38781-3.61967,1.74518-1.48665,1.93912,3.29648.25855,6.4637-.8403,9.76018-.12929a35.83358,35.83358,0,0,0-5.62342,2.39157l-2.52084,1.35737c-.32319.12927-1.87448.58173-1.87448,1.09883-.25853,1.74521,8.46745.8403,9.63092.64636a47.317,47.317,0,0,1-7.11008,3.2965c-.64636.25856-4.20139.711-3.94284,1.55128.25854.64639,2.19765.96956,2.77939,1.09884a18.51471,18.51471,0,0,0,7.304.25856,34.487,34.487,0,0,1-7.56253,4.52457c-.64638.25855-4.46,1.80984-3.74894,2.39158.3878.32317,2.06838.12927,2.45619.06462a22.90871,22.90871,0,0,0,3.03794-.45246c2.32694-.45245,4.78314-1.422,7.17471-.84028ZM108.073,152.02614Zm22.17046-.06463c.58175,4.3953,1.0342,8.79063,1.80985,13.18593.12927.90491.58172,2.2623.32317,3.10258-.45246,1.35738-1.74518.38784-2.39155-.25854a9.73068,9.73068,0,0,1-2.52084-5.882c-.06464-.45244-.12929-.90491-.19392-1.422l-.06463-.45244c-.19392-1.87446,0-4.00749-.38783-5.88195-.06463-.12931,0-.64638-.25855-.711-.32317,0-.12927,3.36111-.12927,3.749a46.72541,46.72541,0,0,1,.1939,6.72224c-.3878,3.10258-2.844.90491-3.42575-.77565a33.14,33.14,0,0,1-1.422-8.33816c-.06463-1.09885-.06463-2.19766-.1939-3.29651,0-.32317.06463-1.87443-.51711-1.16345-.51709.77564.06465,3.68428.06465,4.58923.06464,1.35739.12927,2.71474.12927,4.07213,0,1.29272-.19392,6.26979-2.32694,4.71847-1.61592-1.16342-2.00374-4.13676-2.26228-6.01119-.25855-1.80986-.51709-3.61969-.84028-5.42951-.32319-1.61593-.38782-.64638-.32319.1939.06464,1.16345.19391,2.39157.32319,3.555v.25857c.06464.96951.32319,2.4562.38781,3.36112.12928,1.61592.77566,3.81359-.12925,5.23557-1.09884,1.7452-1.74521.06464-2.19767-1.09881a20.599,20.599,0,0,1-1.422-5.882c-.06462-.45247-.06462-3.81359-.38782-3.87826-.45246.12931-.84027,4.1368-1.03419,4.91244a38.10221,38.10221,0,0,1-1.48665,5.94659c-.1939.58175-.58173,1.7452-1.35737,1.7452-.90492,0-1.2281-1.9391-1.35737-2.65011a16.28906,16.28906,0,0,1-.38783-3.03791,11.91131,11.91131,0,0,1,.64636-3.36115,37.50281,37.50281,0,0,0,.84028-3.87823c.06465-.12927.58175-2.39157.06465-2.06836-.3232.25854-.64637,2.4562-.77566,2.844a14.54193,14.54193,0,0,1-.51709,1.55126,14.15582,14.15582,0,0,1-1.48664,3.87822c-1.48665,2.52084-2.39158-2.77937-2.52083-3.749-.19392-1.03419-.38784-2.06837-.51711-3.10255-.19391-1.03422-.45246-1.55132.12927-2.39157,1.61592-2.32693,4.78313-3.68432,7.23934-4.97706,2.4562-1.16346,5.04167-2.19766,7.56253-3.23185,2.133-.84029,4.33068-1.68057,6.52833-2.39158a29.37428,29.37428,0,0,0,5.75269-2.19767C128.82147,142.65378,129.66175,147.43691,130.24347,151.96151Zm-14.09084,20.55454c1.22809,2.133,3.16721,2.19766,5.30023,2.45623a18.05613,18.05613,0,0,1,5.55877,1.422,4.87226,4.87226,0,0,1,3.03794,5.04171,3.40159,3.40159,0,0,1-3.10256,3.49035,5.02036,5.02036,0,0,0-1.03422-3.29645c-.25853-.25857-1.29272-1.22811-1.61592-1.03421-.77563.3232.51711,1.74523.711,2.133.96956,1.422,2.133,4.84777.45246,6.14049-1.87447,1.48666-5.171,1.422-5.6234-1.35735,3.6843.1939.96954-4.266-.45246-5.42952-.32319-.32317-1.93911-1.80982-2.39157-1.55125-.64638.2585,1.03418,2.52084,1.29274,2.97328,1.29273,2.39157,1.35737,4.20139-1.09884,5.75268-1.68056,1.03418-4.00749,1.29275-5.10632-.51711,1.29275-.25853,3.03794-1.422,2.90867-2.844-.19392-1.7452-1.80984-2.77941-2.844-3.94286a4.10954,4.10954,0,0,1-.84028-1.8745c-.12929-.96951.38782-2.19763.1939-3.03791-.45246-1.35735-1.0342.77564-1.16347,1.29275-2.26228-.12927-4.58922-.711-6.91615-.64637-.90491.06463-3.16721.12926-2.06838-1.29276.77564-1.09881,3.16721-1.61592,4.46-1.74519a10.1172,10.1172,0,0,1,3.94284.3232c.12929,0,.25855.06461.38784.06461l.06463.06466c.45246-2.19766,0-4.71853.12927-6.91617a77.30112,77.30112,0,0,1,1.422-9.437c.06464,1.29275,1.16347,8.726,3.42576,8.27355a9.47183,9.47183,0,0,0,.90493,5.49412c.12925.1293-.06466-.25854,0,0Zm12.53955,3.23185c3.2965,0,6.65762-.64635,9.9541-.96955,4.0075-.32317,8.07962-.84028,12.08713-1.03418,7.43323-.32321,14.86649-1.22812,22.17049-2.2623a1.07016,1.07016,0,0,1,1.16346.84028c.12926,1.09881.25852,2.19766.32317,3.29648a1.18679,1.18679,0,0,1-.84027,1.22808c-5.882,2.133-12.34567,2.32694-18.48618,3.10262-3.61966.3878-7.304.58174-10.98828.90491-4.266.38781-8.59671,1.03418-12.9274,1.22808A7.8379,7.8379,0,0,0,128.69218,175.7479Zm-15.44823,8.726c-2.844.25854-5.81732,0-8.726,0-3.2965.06464-6.593,0-9.88945.12927,0-4.07209-2.90867-5.88195-5.7527-8.14425,3.81358-.12927,7.75643.3232,11.50539-.06464a1.85085,1.85085,0,0,0,1.03418,2.65011,3.78607,3.78607,0,0,0,1.87446-.25854,7.5165,7.5165,0,0,1,3.16723.19391,18.23724,18.23724,0,0,0,3.74894.1939c-.58172,2.19766,1.80983,3.87826,3.10258,5.30024ZM86.16106,170.44768c2.7794.77565,4.2014-3.49041,4.78314-5.36488.32319.96955,1.03419,3.23185,2.39157,2.19767.84028-.58174,1.61593-2.97331,2.00375-3.87822a79.79314,79.79314,0,0,1,5.62342-10.6651c.32318,1.61593.58174,3.23185.96954,4.84777.32319,1.22812,1.74521,6.3344,3.68431,3.68429.12928,1.55129,1.35739,9.30774,3.94286,5.94663a11.68613,11.68613,0,0,0-.1939,3.68428c-.06466.96959-.06466,1.93913-.19391,2.97332a18.62888,18.62888,0,0,0-5.36488.38783,14.78782,14.78782,0,0,1-1.48665.64635,5.85709,5.85709,0,0,1-2.133.12927c-1.35737,0-2.65012-.06461-4.00749-.12927-1.48666,0-2.90866.06466-4.33067.06466-.90493,0-1.80984,0-2.71475-.06466-.38784,0-1.35739-.25854-1.68056-.06464a9.63364,9.63364,0,0,1-1.29276-4.3953Zm7.36863,14.73722a3.36618,3.36618,0,0,1-.90493,2.00377,4.662,4.662,0,0,1-4.39531.90491c1.87447-.90491.90493-4.00749.38783-5.49415-.25855-.77564-1.16346-4.20139-2.133-4.3307-.77564,0,.19391,2.00377.25856,2.19767a13.62922,13.62922,0,0,1,.90491,3.16721c.32319,4.71851-4.84777,7.43325-7.88572,3.42576,3.03795-.64635,2.77939-3.94286,1.87448-6.07586-.32319-.711-.51709-1.48666-.711-.45244-.32317,1.22808.06465,2.52084-.45246,3.74892-1.68056,4.13676-6.399,4.13676-9.63089,2.00376,2.19766-.25857,3.555-1.16348,4.07212-3.42578a7.39587,7.39587,0,0,0-.64637-5.36485c-.25855-.38784-2.19766-2.00376-1.68057-.64641a10.51538,10.51538,0,0,1-3.61966,1.03422c-.96956,0-1.48665,0-1.03419-.90491,1.03419-1.93913,3.68431-2.26231,5.55878-2.26231a8.753,8.753,0,0,0,4.78313-.96954c1.7452-1.22812,2.00375-3.55506,2.133-5.49415,1.48665,2.00376,3.81359.1939,4.5246-1.55129.06462,1.29275.1939,2.52087.32317,3.81359v-.06464a8.808,8.808,0,0,0,3.74894,7.36861c2.65012,1.87447,4.7185,3.8782,4.5246,7.36861ZM70.325,184.86173c-6.39906-.1293-12.79813-.1939-19.19719-.25857-3.42575-.06463-6.91615-.32317-10.34191-.3878a23.0015,23.0015,0,0,1-9.11381-1.61593,30.22511,30.22511,0,0,1-9.50164-5.94662c3.29649-1.61592,6.91616-2.90864,10.27728-4.45993,5.04169,3.61965,10.79438,3.87822,16.80562,4.00749,6.07587.12927,12.15174-.32317,18.163-.45247-.711.77564-1.16347,2.32693-.06463,2.7794,1.55128.711,4.07213-.25857,5.49414-.96958.38782.96958,1.09883,1.61593,1.22811,2.71478a6.92227,6.92227,0,0,1-.25856,2.58547c-.5171,1.93913-1.61592,2.00376-3.49039,2.00376ZM20.36064,174.77835a32.48942,32.48942,0,0,1-6.33442-10.92363c1.61592-.32321,3.29648-.58174,4.91241-.84031,1.93911-.32318,4.39531-.64635,6.07588-.96952a23.70371,23.70371,0,0,0,5.49413,8.40279C27.40607,171.41723,20.68383,174.64908,20.36064,174.77835Zm-6.78688-12.86276-.25855.06463c-1.09883-2.6501-1.80983-5.42951-2.77939-8.07962a.93054.93054,0,0,1,.90492-1.22808c3.10257-.06467,6.26978-.1939,9.37235-.32317.5171,0,1.09884-.06467,1.16347.45244.12928.45247,1.55129,5.42951,2.26229,7.1747-1.48664.32318-3.29648.58175-4.78313.84028C17.51661,161.14,15.57751,161.52778,13.57376,161.91559ZM73.169,156.80928a10.14312,10.14312,0,0,1-4.45995,3.42575c-.25855-3.16721,1.35738-5.94659,2.52084-8.7906,0-.1293,1.16347-2.97334.711-2.90867-.711.12926-1.422,2.77937-1.68056,3.36111A37.99248,37.99248,0,0,1,66.059,158.813a22.32172,22.32172,0,0,1-2.71475,3.29645c-.64638.51711-2.133,1.61593-3.03794,1.422a13.09366,13.09366,0,0,1,.06463-4.20139,7.39808,7.39808,0,0,1,1.61592-3.16722c.77566-1.09881,2.71476-2.97331,2.65012-4.33066,0-1.48666-1.55128,1.55129-1.87446,1.93909-1.16347,1.61593-2.58549,3.10258-3.87823,4.65387-1.2281,1.48666-2.32693,2.97328-3.6843,4.3307a16.82831,16.82831,0,0,1-7.56252,4.00746,14.19856,14.19856,0,0,1,2.26229-4.3953,29.02668,29.02668,0,0,0,3.42575-4.91244c.06464-.12923,1.48665-2.71474,1.03419-2.77934-.51709-.06467-2.19766,3.10255-2.58547,3.61966-1.68057,2.19763-3.29649,4.65387-5.36487,6.39906a7.60956,7.60956,0,0,1-2.90867,1.80983c-.84027.1939-3.03793.84027-3.81358.32317a16.76276,16.76276,0,0,1,2.90866-8.07962c1.16347-1.55126,2.71476-2.844,3.94286-4.33067a75.62507,75.62507,0,0,1,6.20515-6.65763c1.87447-1.68054,3.87822-3.23185,5.81732-4.91239.25856-.25856.77565-.64636.32319-.8403-.64637-.25852-3.36112,2.133-3.87821,2.52084a36.12111,36.12111,0,0,0-4.977,4.39533c-2.90866,2.90868-5.42951,6.20516-8.33817,9.17847a24.24794,24.24794,0,0,1-4.91241,4.00746c-.77564.38784-5.4295,2.71478-6.14051,2.0684,0-1.422.96955-3.16721,1.61592-4.39533,1.03419-1.9391,2.39157-3.68429,3.555-5.49412,2.45621-3.555,5.81734-6.6576,8.79063-9.82483a76.26168,76.26168,0,0,1,10.79437-9.04918c4.07214-2.77938,8.33818-5.171,12.281-8.14426-.51709,2.45622,4.46,1.87448,5.94661,1.422-.38783.64636-1.7452,3.03793-1.5513,3.81359.19391.64636,3.42576,1.03419,4.07214,1.22809-.64638.96956-2.65012,4.45995-.77566,4.91241,1.422.38782,3.555-.45246,4.84777-.90492-.84026,2.2623-1.09882,4.78314-1.87446,7.11007C77.04726,149.05283,75.94843,153.31886,73.169,156.80928Zm0-91.84914ZM154.93479,107.362c.12929-.3878.58175-4.20138,1.0342-4.266.51711.06465,0,3.68432,0,4.07213-.06463.25855-.06463,1.29275-.45245,1.422-.64636.25856-.64636-.84028-.58175-1.22812C154.99944,107.16807,154.87018,107.74981,154.93479,107.362Zm22.29977,9.17847a11.58062,11.58062,0,0,0-2.77939-6.6576c-2.90868.38781-5.10633-.711-7.6918-1.80986a12.15063,12.15063,0,0,0-4.266-1.03418c-.711-.12928-2.65012-.25854-2.06838-1.55127.84026-1.87448,4.977.64636,5.94659,1.22808,2.2623,1.22811,4.84777,2.7794,7.56253,2.52084-.96957-1.55127-1.35739-3.29646-2.844-4.52458a14.31617,14.31617,0,0,0-4.20138-2.133c-4.07215-1.61592-8.46746-2.26228-12.79813-2.90866,3.03793-4.26605,8.98454-6.26979,10.60046-11.69931a13.55893,13.55893,0,0,0-4.52458-14.22011c-7.23935-5.55878-17.19345-3.23185-25.59625-3.10258a26.9638,26.9638,0,0,0-2.39157-3.61967,17.80646,17.80646,0,0,0-4.266-3.36112,34.57812,34.57812,0,0,0-7.17471-2.844A70.61221,70.61221,0,0,0,105.94,58.56109a74.577,74.577,0,0,0-16.09462.58171,70.46937,70.46937,0,0,0-9.76016,1.93913c-3.1026.96955-6.14052,2.26228-9.24309,3.23185-2.90867.96955-6.33444,1.61592-9.04919,3.10256-1.9391,1.09884-1.74519,2.844.64637,3.23185A78.66416,78.66416,0,0,0,50.41684,73.88c-3.749,1.2281-7.43326,2.45622-11.24685,3.555A45.35345,45.35345,0,0,0,25.85478,83.2524a69.06434,69.06434,0,0,0-10.21264,7.69181,24.38979,24.38979,0,0,0-5.68806,5.23558c-1.61592,2.2623-.64636,2.77939,2.00376,3.23185a14.77586,14.77586,0,0,0,6.52833-.51709c-.58174.90491-1.7452,2.58547-1.2281,3.6843a3.63939,3.63939,0,0,0,2.32693,1.35737,9.154,9.154,0,0,0,5.55878-.84028c-.84028,1.55129.12927,1.87448,1.55128,1.93913a17.62136,17.62136,0,0,0,3.68431-.19393,34.61409,34.61409,0,0,0,6.14051-1.68055c-1.2281,1.7452.12928,2.844,1.7452,2.90866a15.15094,15.15094,0,0,0,4.84777-.64637c-.32318.96956-.90491,2.52084.32319,3.10256a9.45751,9.45751,0,0,0,4.45994,0c-1.03419,1.48667-2.97329,3.42579-.32318,4.1368,2.133.58172,5.30023,1.22808,7.304-.06465-1.22809,2.90866,2.19766,2.90866,4.266,2.844-1.16346,1.35741-.90492,2.26232.84029,2.844a7.46359,7.46359,0,0,0,3.555.51709c-.90491.84028-2.97329,2.2623-.90491,3.03794a15.23328,15.23328,0,0,0,3.29648.77563,5.21012,5.21012,0,0,0-.77564,1.16347c-.58174,1.29275,2.32693,1.48665,3.10257,1.68057-1.35737,1.48666-3.49039,2.52084-5.17095,3.61966-2.32694,1.5513-4.5246,3.16723-6.85152,4.65387a63.43378,63.43378,0,0,0-10.79437,8.66136c-1.7452,1.74519-3.4904,3.4904-5.171,5.30025a39.62732,39.62732,0,0,0-5.171,5.75268c-1.16347,1.80983-2.19766,3.68429-3.29649,5.55879a17.08238,17.08238,0,0,0-1.29274,2.39153c-.25855.51711-.96955,2.45624-.77564,3.10258.58174,1.61593,4.52459-.06463,5.49414-.45244a28.37042,28.37042,0,0,0,5.4295-3.61965c-.711,1.422-2.97329,6.6576-1.29273,7.36861.96955.45244,2.844,0,3.81358-.32321a11.66,11.66,0,0,0,3.749-2.00373c-.12928.51711-.5171,1.9391-.25855,2.39154.32318.58174.90491.1293,1.55129-.0646a37.68141,37.68141,0,0,0,3.74894-1.48666c2.90866-1.422,5.42951-4.39533,7.49789-6.85153a16.09466,16.09466,0,0,0,0,3.94286c.1939,1.80982,1.29273,1.422,2.58548.711,2.39157-1.422,4.13676-3.81359,5.688-6.01123-.12926,1.22809-.96955,3.87819.96956,3.42575A8.00779,8.00779,0,0,0,73.363,158.4252a46.91384,46.91384,0,0,0-.12928,6.01123c.06463,1.61592.77564,3.87822,2.19766,1.68056-.06465,1.09885.25855,4.33069,1.93911,4.20143,1.35737-.12931,2.00375-2.77941,2.26228-3.87823.38783,2.52084.12927,5.882-2.844,6.72223a25.98484,25.98484,0,0,1-4.45994.38784c-1.35739.19391-2.58548.58171-3.94286.77562a55.314,55.314,0,0,1-7.304.38783c-2.71475,0-5.36486.06464-8.07962.12927-6.52833.1293-13.31522.711-19.06791-2.97327-5.36486-3.42579-8.4028-9.88949-10.01873-15.83607-.32318-1.09885-.45246-4.3953-1.68055-4.65387-1.422-.32318-10.34193.12926-11.44075.25857-1.48665.25853-1.61592,1.22808-1.2281,2.4562.64637,2.19767,1.48665,4.33066,2.133,6.52833,2.06838,6.6576,5.171,12.86276,10.40656,17.58126,4.91241,4.3953,10.92365,7.36861,17.58125,7.43322,7.43326.06466,14.93114.3232,22.3644.38783h2.844a18.72832,18.72832,0,0,1,3.29649.06464c1.35737.38784,2.77938,1.55129,4.07212,2.19766,2.45621,1.22812,4.78314,1.61593,6.78687-.711a4.79982,4.79982,0,0,0,7.49791,1.29272c3.23185,1.29276,7.304.84032,8.015-3.16718,3.2965,0,6.52835-.06466,9.82482,0a53.25828,53.25828,0,0,0,9.63092,0c0,1.16345-1.22811,1.61593-2.133,2.06837-.711.3232-.90491.1293-.64636,1.03421a3.421,3.421,0,0,0,.84027,1.48662c1.80984,2.0684,6.01124.38784,7.304-1.74519.1939,2.00376,2.52084,2.97331,4.266,2.52084a4.43909,4.43909,0,0,0,3.36112-4.977,4.40082,4.40082,0,0,0,3.87822-2.65011c7.17471-.64637,14.3494-1.35739,21.52411-2.00373,3.81359-.38784,7.62716-.711,11.37612-1.09885a54.48732,54.48732,0,0,0,10.66509-2.52084c1.422-.25857,1.09883-2.19766,1.03418-3.29648-.06462-.77564-.1939-4.266-.84028-4.58923-.96955-.58175-29.53909,3.29648-36.326,3.68429-3.10257.19393-6.14051.58174-9.24308.711a10.83936,10.83936,0,0,1-3.23185-.06461c-1.09883-.1939-2.2623-.38783-3.42576-.5171-2.65011-.32321-5.04169-.1293-6.01124-3.03795a9.55487,9.55487,0,0,1-.45246-4.07213c.32319-1.16345,1.16347-2.133,1.29275-3.42575.45246.84028,1.48664,2.19767,2.58548,2.0684,1.35737-.19394,1.80982-2.133,2.00374-3.16725a7.10007,7.10007,0,0,0,1.74519,3.55506c1.48666,1.422,3.16722,1.29272,3.61968-.77565a8.76828,8.76828,0,0,0,3.03792,4.78314c1.80985,1.22808,2.97332.38781,3.03795-1.55129a54.43127,54.43127,0,0,0-.90493-6.39906c-.25854-1.87446-.45246-3.749-.711-5.62342-.38783-2.77941-.64638-5.55878-.90493-8.33819-.25854-3.03791-1.09882-6.52832-.38781-9.56626.25855-1.0342.96955-1.35737,1.74519-2.133a18.88927,18.88927,0,0,0,2.71476-3.2965,30.7646,30.7646,0,0,0,1.80984-3.16719,13.63221,13.63221,0,0,1,1.03419-2.19765c.38782-.45246.90491-.45246,1.55129-.711a20.51228,20.51228,0,0,0,3.16721-.77565c.96955-.19392,2.00373-.32317,3.03794-.51711,2.7794-.3878,5.36485-1.35737,8.20888-1.55127-.51709.38781-.64636.96955-.06464,1.09882,1.16347.32318,3.10258-.77563,4.20142-1.09882a24.81855,24.81855,0,0,1,7.56251-.64638c-.1939,2.2623,6.26979-.77564,4.00749-2.844,1.35739.25855,3.36112.38784,2.2623-1.68058a6.82883,6.82883,0,0,0-2.844-2.39155,5.80037,5.80037,0,0,1,4.71852,2.58549,3.57978,3.57978,0,0,1,.45246,2.71474c0,.25855-.32321.96956-.25856,1.16347.32319.711,2.133-1.48666,2.45622-1.93912a7.0522,7.0522,0,0,0,1.09882-4.266Z" fill="#fff"/><path d="M167.08656,108.20225a1.93546,1.93546,0,0,1-.51711-.25853c-1.2281,1.422-2.65011.96954-2.97329-.84028-.45246-.06464-.90492-.06464-1.422-.12929.64637,2.844,3.61967,4.26605,5.49414,1.68058.06464,0,.06464-.06465.06464-.12929C167.539,108.39617,167.28046,108.33154,167.08656,108.20225Z" fill="#161616"/><path d="M51.12782,42.2726V29.92691l1.35739-.5817a36.936,36.936,0,0,1,7.75643-2.00377l2.39157-.32317V39.42856l-1.68056.38784q-3.58736.7756-7.17471,1.74519Zm15.12506-3.49042V2.00376l1.7452-.25857c2.97329-.3878,5.9466-.711,8.9199-1.03418l2.32693-.1939V24.3035c3.42575-.25854,7.56251-.45244,12.53956-.58171l2.19766-.1293V36.13207l-2.06838.06464a164.7577,164.7577,0,0,0-23.2693,2.133ZM107.362,24.10959c.90492.06464,1.74519.12927,2.65012.19391V11.76394c-.90493-.06463-1.7452-.12927-2.65012-.12927Zm7.304,13.25057-.90492-.12927c-3.74894-.45244-7.43326-.77564-11.11756-.90491l-.96955-.06464-7.17471-8.85526V6.14053L103.09593,0h.711c3.74895.19394,7.49789.45247,11.1822.77564l.77564.06464,7.36861,7.23934v21.718Zm28.18172,6.20516-1.16347-.38781c-3.87822-1.22812-7.75643-2.2623-11.69929-3.16721l-.90491-.1939-5.55879-9.50165V1.80986l2.39157.38781c3.10258.45244,6.20516,1.03418,9.30773,1.61592l1.68055.38781V28.8281l2.06838.51711V4.58924l2.52086.64637q4.7508,1.06651,9.30772,2.52084l1.48664.38781V34.45152Zm23.01076,9.50162-2.97329-1.422c-2.97331-1.48666-6.01124-2.77939-9.04919-4.07213l-1.29274-.51711V8.20889l2.7794.96958a98.60107,98.60107,0,0,1,9.30772,3.49039l1.2281.58174ZM184.28,64.44305,171.7404,56.04026l-5.81733-7.6918v-8.726l10.79438,6.07589v1.9391l8.27353,5.171v-3.038L170.83548,41.303l-4.91241-8.98454V21.33022l12.60421-2.844,11.05293,5.882L195.72072,32.06V42.53114l-10.92365-6.7869V33.999l-7.69179-4.13676V33.3527L191.39,41.303l4.33068,6.14052V62.11613Z" fill="#c60c30"/><path d="M9.95409,62.18076,0,59.33674V53.84259l10.79437-7.23933v2.77938l7.88571-4.91241V41.36765L7.304,47.83135,0,46.28009V29.15127l8.79062-8.9199,10.859-5.10631,9.88945,1.16345V25.467l-10.859,4.78314V27.53535l-7.88571,3.87822v3.749l8.53208-4.46,10.21264.96955V45.89225l-6.26978,8.4028ZM35.93815,47.83135l.32318-24.88521c-2.06838.711-3.16721,1.22809-3.23184,1.22809L30.12083,25.467V10.859l1.422-.45247A196.27824,196.27824,0,0,1,53.45477,4.3307l2.52084-.51711v13.1213l-1.61592.38784c-.77565.1939-3.16722.711-4.977,1.22808V42.78967l-1.48665.45248a78.86372,78.86372,0,0,0-8.9199,3.23185Z" fill="#c60c30"/><path d="M9.82479,61.34047.77562,58.755v-4.46l9.24309-6.20514v2.71475l9.50162-5.882v-4.9124L7.17468,46.99107.77562,45.63368V29.47444l8.46744-8.59669,10.53583-4.91241,8.98453.96955v8.015L19.52033,29.022V26.24259l-9.50162,4.65387v5.55879l9.50162-4.977,9.24309.90492V45.63368l-6.01124,8.015ZM36.77841,46.60323l.32319-24.82057c-2.844,1.03418-4.39532,1.68056-4.39532,1.68056l-1.80984.84028V11.44074l.84029-.32317A214.26972,214.26972,0,0,1,53.584,5.10631L55.2,4.78314v11.57l-1.03419.19391c-.90491.1939-3.749.84028-5.55878,1.422V42.20793l-.90492.25854a89.88288,89.88288,0,0,0-9.04917,3.29648Zm15.12505-5.36485V30.444l.84029-.32317a32.58557,32.58557,0,0,1,7.62715-2.00373l1.48666-.19394V38.84681l-1.03419.19391c-2.45621.51711-4.84777,1.09881-7.23934,1.74519Zm15.125-3.42575V2.71474l1.09883-.1939c2.9733-.38784,5.9466-.711,8.91989-1.03418l1.422-.12931V25.14378c3.555-.25854,7.95035-.51711,13.37985-.64638l1.29274-.06463V35.35643l-1.22809.06463a167.47061,167.47061,0,0,0-23.39859,2.133Zm39.55783-12.99206c1.35737.1293,2.77939.19394,4.20139.32321V11.0529c-1.422-.12927-2.77939-.1939-4.20139-.25854Zm7.82106,11.69931-.58172-.06463c-3.68431-.45248-7.43326-.77565-11.1822-.90492l-.58173-.06463-6.78688-8.40283V6.593l8.015-5.81733h.45247c3.74894.19391,7.49788.45245,11.18219.77565l.45247.06463,6.98079,6.78687V29.47444Zm28.24636,6.14052-.711-.19393c-3.87821-1.22809-7.82107-2.32694-11.76393-3.23185l-.58172-.12927-5.30025-8.98453V2.71474l1.48666.1939c3.10258.51711,6.20516,1.03422,9.30772,1.68056l1.0342.19394V29.40981l3.61967.96954V5.62342l1.61592.3878c3.10257.711,6.14051,1.55129,9.24309,2.45621l.90492.3232V34.12831Zm22.429,9.17843-1.87448-.90492c-2.9733-1.48665-6.01124-2.844-9.04919-4.07211l-.84028-.3232V9.30771l1.74521.58174a92.26989,92.26989,0,0,1,9.24309,3.49038l.77565.38784Zm19.39109,11.76392-12.2164-8.14425-5.55877-7.36861V40.97981l9.24307,5.171v1.87446l9.82483,6.20515V49.318l-14.34941-8.53208-4.71849-8.66133v-10.148l11.69928-2.6501,10.6651,5.62341,5.81733,7.36861v8.79064l-9.30773-5.75269V33.54657l-9.24309-4.977v5.23561l14.54332,8.07962,4.0075,5.81732V61.46974Z" fill="#fff"/><path d="M27.47072,18.09834l-7.43326-.84028-10.01874,4.7185L2.06839,30.05618V44.5995L6.9808,45.63368l13.8323-7.821v7.82105L8.726,53.13158V50.54611l-6.6576,4.39531v2.844l7.56251,2.133,12.21639-7.23934,5.62343-7.49788V33.5466l-7.69182-.711L8.726,38.58828V30.12082L20.8131,24.17423v2.844l6.65762-2.90865ZM53.90724,6.39906a192.50163,192.50163,0,0,0-21.718,5.94659v9.95412s2.19766-.96958,6.20516-2.32694L38.07118,44.5995a92.3524,92.3524,0,0,1,9.24309-3.36112V17.06416c1.61592-.64638,5.30023-1.48666,6.593-1.80983ZM53.26086,31.2843v8.27353c2.39158-.64638,4.84778-1.29276,7.304-1.80983V29.40981A31.71521,31.71521,0,0,0,53.26086,31.2843Zm23.851-4.7185V2.77938c-2.90867.3232-5.882.64637-8.79063,1.03421V36.26134a168.48125,168.48125,0,0,1,23.52785-2.19766V25.79015C86.61354,25.91942,81.44258,26.178,77.11191,26.5658Zm34.96859.06463c-2.2623-.25854-4.58922-.45247-6.78688-.58174V9.37237c2.32693.12927,4.58923.32318,6.78688.45244ZM114.79526,2.844c-3.68432-.3232-7.36863-.58174-11.11757-.711L96.56762,7.23934V26.63043l6.14053,7.62715c3.74893.1293,7.49787.45247,11.24683.90495l7.11006-6.2698V8.98453Zm15.64213,35.1625c4.0075.90491,7.95036,1.93909,11.89321,3.16721l7.88571-7.62715V9.76018c-3.03793-.90491-6.07588-1.74519-9.17844-2.52084V32.06L134.83271,30.444V5.882c-3.10256-.64637-6.14051-1.16345-9.24309-1.68055V29.733Zm24.23887-26.889V45.63368c2.97331,1.29276,6.07587,2.65013,9.11382,4.13678V14.608S160.55823,13.1213,154.67626,11.11757Zm13.37986,11.89317v8.79064l4.33067,8.015,14.6726,8.726V56.622l-12.47494-7.88572V46.92644l-6.52833-3.68429v4.3953l5.10631,6.8515,11.57,7.6918,8.85526-1.80983V48.0899l-3.61967-5.171-14.93114-8.33816V26.37189L186.86547,32.771v1.80982l6.72225,4.2014V32.771l-5.36488-6.7869-10.01871-5.30022Z" fill="#c60c30"/></svg>