<?xml version="1.0" encoding="UTF-8" standalone="no"?>
<svg xmlns:rdf="http://www.w3.org/1999/02/22-rdf-syntax-ns#" xmlns="http://www.w3.org/2000/svg" height="191.16828" width="229.59882" version="1.1" xmlns:cc="http://creativecommons.org/ns#" xmlns:dc="http://purl.org/dc/elements/1.1/" viewBox="0 0 229.59882 191.16828"><path d="M223.56679,55.11387a10.485,10.485,0,0,0-2.79381-3.74622l5.71459-1.65087-.69846-2.53982a34.363,34.363,0,0,0-7.23845,2.41284c-8.0004-5.77808-23.87421-10.54022-38.28765-10.54022a127.35859,127.35859,0,0,0-30.35072,4.19071l13.715-14.03247A95.094,95.094,0,1,0,167.564,156.57929L151.49967,140.388l61.65389-2.79379a2.40227,2.40227,0,0,0,2.15884-1.52389l5.71457-13.715a2.49576,2.49576,0,0,0-2.47631-3.42875l-69.7178,4.1907c-7.87341.44446-11.61962-2.03185-13.3975-3.93671l49.20882-13.588c9.84177-2.7303,11.17518-8.06391,11.17518-12.88955V81.59139c0-5.52408,27.303-15.55633,28.06489-24.25518,1.58738-.127,3.42875-.254,5.71457-.254v-2.5398A31.36369,31.36369,0,0,0,223.56679,55.11387Z"/><path d="M193.34305,92.70305V81.59138c0-7.42894,26.287-17.39769,28.0014-23.93771a15.414,15.414,0,0,0-3.42875.76195l-.381-.635a10.13134,10.13134,0,0,1,3.68273-1.96834,10.32628,10.32628,0,0,0-3.23825-3.68274l-4.1907,1.20641-.381-.69843a20.56653,20.56653,0,0,1,2.7303-1.84137c-7.429-4.69864-21.46139-9.2703-35.87481-9.2703-17.08023,0-33.843,5.27011-33.843,5.27011l-1.71436-1.71439L160.135,29.20779a92.5965,92.5965,0,1,0,4.06369,127.49849l-15.61983-15.68334-2.79379-2.85728,67.24147-3.04778,5.71458-13.715-69.71779,4.19068c-14.98489.82544-17.33421-7.9369-17.33421-7.9369l52.32009-14.41342C192.32712,100.89394,193.34305,96.83025,193.34305,92.70305Z" fill="#fff"/><path d="M148.57891,141.02294l-2.79381-2.85728-20.06449-16.06429a3.39408,3.39408,0,0,0-4.63516-.1905c-22.47731,13.588-54.47892,22.98529-73.464,22.98529-5.3336,0-6.98448-1.71437-7.36545-2.79379a1.96308,1.96308,0,0,1-.127-.508,5.00249,5.00249,0,0,1,1.52389-3.04778l19.04857-21.52489-27.049-1.01593a3.19365,3.19365,0,0,1-3.42873-2.98427c0-1.52389.57145-2.41282,2.22232-3.36525s47.05-22.79479,50.54223-22.28684L68.00343,75.36885a23.82921,23.82921,0,0,1-5.01612-5.71456l.95242-1.20643,1.01592-1.2699a24.00319,24.00319,0,0,1,6.667,3.68274l5.3336,4.25417,2.22233,1.77787C81.02,71.49564,85.7186,60.638,95.62386,52.828c4.38117-4.19067,18.6676-14.92135,45.58959-10.85766,1.20641.95242,2.34933,2.03183,3.49224,3.11127L160.135,29.20779a92.59651,92.59651,0,1,0,4.0637,127.49849Z" fill="#00965e"/><path d="M189.34285,56.2568,191.3112,53.209l3.30175-.19047,4.69865-.254-1.58738,3.17476-4.69865.127Zm4.69865,7.048,1.3334-1.1429,7.175,3.74621.82544.44447c6.47651-4.63516,11.42915-8.63536,11.42915-8.63536l-4.95264,1.01593-.69844-2.22234,6.34953-1.90484-6.921.127L207.185,52.44708h3.68272A82.80124,82.80124,0,0,0,174.231,43.36727a58.9005,58.9005,0,0,0-28.06491,7.11146c3.68272,1.46039,30.66821,12.76254,42.41484,25.3346,3.8097-2.09533,7.8099-4.63515,11.49264-7.175l-6.7305-4.76214Z" fill="#00965e"/><path d="M93.6555,165.46862c-40.002,0-72.51158-31.49364-72.51158-70.35274,0-38.92259,32.50957-70.41623,72.51158-70.41623a73.61758,73.61758,0,0,1,47.55794,17.27072c1.2064.95242,2.34932,2.03186,3.49224,3.11127L160.135,29.20782a92.5965,92.5965,0,1,0,4.06369,127.49846L148.57889,141.023A73.12711,73.12711,0,0,1,93.6555,165.46862Z" fill="#ffc72c"/><path d="M122.48235,43.87521c-11.61964,0-20.382,3.80971-26.85849,8.95282C85.7186,60.638,81.02,71.49564,79.17859,76.89274a28.50062,28.50062,0,0,0-.95243,3.30175l10.54021,8.31788S105.27513,63.55873,146.42006,46.796C146.42006,46.796,141.27694,43.87521,122.48235,43.87521Zm-74.8609,101.021c18.98508,0,50.98669-9.39731,73.464-22.98529a3.39407,3.39407,0,0,1,4.63516.19048c-3.87321-3.04776-5.52409-2.28582-6.60351-1.58737-21.39791,13.715-56.63777,22.98527-71.49565,22.98527-4.19069,0-6.286-.69843-7.36546-1.39688C40.637,143.18179,42.28785,144.89616,47.62145,144.89616ZM71.62266,70.86068a24.00282,24.00282,0,0,0-6.667-3.68272l-1.01592,1.2699L75.11489,77.4007l1.84136-2.28583Z" fill="#ffc72c"/><path d="M199.3116,52.76454l-4.69865.254-1.58738,3.04776,4.69865-.127Zm-3.9367,9.39731-1.3334,1.1429,6.6035,3.9367,1.90486-1.33339ZM146.16607,50.47871a17.95307,17.95307,0,0,0-2.03184,1.20641s30.03326,11.93711,42.28785,25.27112c.69843-.381,1.46037-.76195,2.15883-1.14292C176.83428,63.24125,149.84879,51.93911,146.16607,50.47871Zm38.66862,45.84358.31747-15.11187-50.98669,31.93811C139.75306,113.14853,182.80285,99.11608,184.83469,96.32229ZM32.00161,112.38658c0,.88893,1.01592,1.52389,2.22233,1.52389l24.25519.127c2.92078,0,3.93672-1.07941,4.57166-1.71437l20.255-21.01693c.635-.635.19048-1.58738-1.96835-1.01593-21.27092,6.286-48.51039,20.636-48.51039,20.636A1.9911,1.9911,0,0,0,32.00161,112.38658Zm11.61963,29.96977c15.17536,0,51.17718-11.04818,71.30518-23.30276,2.4128-1.52389.63494-2.85728.381-3.11127L88.3219,94.73491a1.74262,1.74262,0,0,0-2.79378.127L42.73231,139.24508C41.71638,140.261,41.5259,142.35635,43.62124,142.35635ZM181.21547,77.59118c-22.9218-20.382-45.52611-23.55674-45.52611-23.55674-34.60491,17.65169-44.82764,36.1288-44.82764,36.1288l32.19208,25.33461L180.898,80.44848A1.71445,1.71445,0,0,0,181.21547,77.59118Z" fill="#ffc72c"/></svg>