<?xml version="1.0" encoding="UTF-8" standalone="no"?>
<svg xmlns:rdf="http://www.w3.org/1999/02/22-rdf-syntax-ns#" xmlns="http://www.w3.org/2000/svg" height="100.559" width="106.86501" version="1.1" xmlns:cc="http://creativecommons.org/ns#" xmlns:dc="http://purl.org/dc/elements/1.1/" viewBox="0 0 106.86501 100.559"><path d="M104.7107,77.62153a8.83135,8.83135,0,0,1,2.00722-4.358.60945.60945,0,0,0-.03268-.82925l-1.38789-1.38789a.61544.61544,0,0,0-.93143.07c-1.36024,1.84885-5.62106,7.47314-6.97088,7.27508a1.51259,1.51259,0,0,1-1.34767-1.598c.10738-1.66012,2.37193-8.23505,3.292-10.36923a.61222.61222,0,0,0-.36883-.82242,6.29882,6.29882,0,0,1-2.58292-1.93235.61307.61307,0,0,0-.933-.00987,29.53879,29.53879,0,0,1-3.68118,3.25774c-6.77658,4.77457-11.01209,1.84831-11.01209,1.84831-4.77439-2.54126,1.54017-2.2333,1.54017-2.2333,8.0474,0,7.31566-7.54677,7.31566-7.54677-.385-2.4064-3.23405-3.23422-3.23405-3.23422C80.14543,53.74923,76.834,62.066,76.834,62.066c-.847,1.92516-3.54237,2.0022-3.54237,2.0022-2.44483.48124-1.75187-2.46944-1.75187-2.46944l.75078-3.53716c6.39177-1.0011,4.69753-5.6216,4.69753-5.6216-.94992-3.43965-6.85362-1.617-6.85362-1.617L89.6064,31.79327a.616.616,0,0,0-.32322-1.04725L82.109,29.47629a.61592.61592,0,0,0-.57552.20614L63.12675,51.20795c-1.64287,2.18176-6.16066,2.69534-6.16066,2.69534C53.47562,54.15989,55.503,50.438,55.503,50.438L60.324,42.37888a.61591.61591,0,0,0-.21211-.84482q-.018-.0108-.03677-.02034l-2.89627-1.4766a.61591.61591,0,0,0-.75778.16036l-.38069.46867c-.69134.83895-2.899-.23918-2.899-.23918-5.90388-2.95213-8.79513,2.43567-10.72963,5.23642-1.71991,2.48991-3.46533,1.38627-3.46533,1.38627-1.43745-.66746-.53907-2.2333-.53907-2.2333l5.20572-9.61594a.6159.6159,0,0,0-.32951-.87163l-2.619-.96213a.61592.61592,0,0,0-.74557.26953l-5.36194,9.255a2.88861,2.88861,0,0,1-3.69643,1.54017c-1.84813-.73318-.23093-3.57613-.23093-3.57613L35.692,31.99169a.61593.61593,0,0,0-.229-.84041q-.01928-.011-.0393-.02062L32.6849,29.81621a.61591.61591,0,0,0-.80034.2478l-4.95127,8.59168c-2.54126,3.88894-8.08582,1.23221-8.08582,1.23221,5.92974-5.69864,11.55115-18.40479,11.55115-18.40479,6.66113-15.363-8.23972-20.407-8.23972-20.407C10.53071-2.85122,3.75412,5.2346,3.75412,5.2346-2.25247,11.78009.75082,22.02218.75082,22.02218c2.04063,5.62142,6.42787,6.67711,8.66458,7.17164a.61577.61577,0,0,0,.63729-.951,22.88976,22.88976,0,0,1-2.83324-6.1436C3.98505,6.54366,13.534,4.2335,13.534,4.2335c6.93066-2.00219,9.39507,6.0066,9.39507,6.0066C26.93347,20.55905,13.534,38.11662,13.534,38.11662a25.24919,25.24919,0,0,0-8.62472-1.617c-2.69533,0-2.2333,4.92846-2.2333,4.92846.57749,4.62032,4.2355,5.08235,4.2355,5.08235,3.85033.69314,8.39379-3.46533,8.39379-3.46533,2.54127,2.38738,11.08894,1.61721,11.08894,1.61721,1.23221,4.77456,7.0077,3.31126,7.0077,3.31126,2.54126,5.15956,8.62471,2.41215,8.62471,2.41215.84721,6.03138,8.31694,4.90369,8.31694,4.90369,2.00219,5.00549,8.99049,2.15608,8.99049,2.15608l-2.22342,2.42562a.61592.61592,0,0,0,.15676.95585l2.67738,1.47534a.61592.61592,0,0,0,.73731-.10809l3.59983-3.6704c3.05448-2.87491,2.56659.30077,2.56659.30077l-.41031,4.55065c-.46221,4.77439,8.23971,3.77329,8.23971,3.77329,0,.92407,3.61941,6.69973,9.70285,6.46863,3.88086-.14725,7.51086-2.33153,9.63085-3.89414a.61586.61586,0,0,1,.92837.74108L94.08379,72.462c-1.38627,2.31034-1.54017,6.46863-1.54017,6.46863.077,3.77329,4.92845,3.69644,4.92845,3.69644.53835,2.63158,2.81871,4.47361,3.81029,5.16495.31478.21962,2.136,1.63408,2.136,1.63408,3.12127,3.05789-4.48313,2.44179-4.48313,2.44179L74.4468,89.01862c-19.591-3.10852-54.588-.72007-58.8-.41588a.61465.61465,0,0,0-.543.43187L11.7771,99.76172a.61433.61433,0,0,0,.733.77934C45.558,92.54429,88.1289,95.35743,96.856,96.02632c7.74033.5933,10.14567-3.75408,9.66442-5.73724-.27385-1.12788-3.4269-3.63844-2.8108-5.48657a61.09408,61.09408,0,0,0,1.0011-7.181ZM84.84278,59.9097c3.34988,1.50174-2.38719,3.54236-4.92845,3.38847C79.59738,63.27878,82.35826,58.796,84.84278,59.9097ZM6.21835,42.8912C5.14021,42.6601,5.06318,41.351,5.06318,41.351a1.15171,1.15171,0,0,1,1.0011-1.15517c1.92516-.2311,4.46643,1.15517,4.46643,1.15517S7.29648,43.12213,6.21835,42.8912Zm45.51131,5.08235c-2.59262,4.85161-4.92846,2.41216-4.92846,2.41216s-1.54017-1.38538.82242-4.64546c2.27264-3.13582,4.491-1.848,4.491-1.848C53.54888,44.71365,51.72966,47.97355,51.72966,47.97355Zm16.24851,6.6227c.38518-.15407,5.0055-2.07923,4.6205,0s-4.62031,0-4.62031,0ZM100.8979,82.31888c-.49956.1925-1.15409-.385-1.03863-1.0011a16.33065,16.33065,0,0,1,2.07923-2.92626S101.65658,82.02637,100.8979,82.31888Z" fill="#010101"/></svg>