<?xml version="1.0" encoding="UTF-8" standalone="no"?>
<svg xmlns:rdf="http://www.w3.org/1999/02/22-rdf-syntax-ns#" xmlns="http://www.w3.org/2000/svg" height="218.96792" width="227.64715" version="1.1" xmlns:cc="http://creativecommons.org/ns#" xmlns:dc="http://purl.org/dc/elements/1.1/" viewBox="0 0 227.64715 218.96792"><polygon points="155.696 78.643 118.329 0 98.983 40.68 93.749 33.458 83.744 54.46 80.432 49.889 0 218.968 227.647 218.968 158.81 74.403 155.696 78.643" fill="#00205b"/><path d="M37.632,160.3998H77.78166a38.79964,38.79964,0,0,0,70.62626,0h40.14965l23.785,50.02141H13.78073ZM80.233,70.825l2.65014,3.644,9.60677-20.20732,5.89656,8.14918,19.6773-41.3422L154.437,97.59144l2.58389-3.44518,16.29836,34.25307H148.40792a38.758,38.758,0,0,0-70.69252,0H52.87032ZM158.081,82.88314,154.967,87.12338l-36.6382-76.9866-18.551,39.02333-5.234-7.22164L84.53952,62.94083l-3.31268-4.57148L6.89037,214.66143H220.7568Z" fill="#fff"/><path d="M113.09479,161.45985a17.09343,17.09343,0,1,1,15.1058-25.04383l15.96711-9.01049a35.41254,35.41254,0,1,0,0,33.85556l-15.96711-8.94423A17.04946,17.04946,0,0,1,113.09479,161.45985Z" fill="#c8102e"/><path d="M113.09479,129.79064a14.5427,14.5427,0,1,0,14.50953,14.5758A14.53381,14.53381,0,0,0,113.09479,129.79064Z" fill="#ffc72c"/></svg>