<?xml version="1.0" encoding="UTF-8" standalone="no"?>
<svg xmlns:rdf="http://www.w3.org/1999/02/22-rdf-syntax-ns#" xmlns="http://www.w3.org/2000/svg" height="209.41231" width="209.41231" version="1.1" xmlns:cc="http://creativecommons.org/ns#" xmlns:dc="http://purl.org/dc/elements/1.1/" viewBox="0 0 209.41231 209.41231"><path d="M104.23769,0A104.20616,104.20616,0,1,0,208.41231,104.23769,104.31261,104.31261,0,0,0,104.23769,0Z" fill="#c8102e"/><circle cx="104.23769" cy="104.2377" r="93.58059" fill="#fff"/><path d="M86.0765,76.93283a5.75826,5.75826,0,0,1-6.49515-1.70261S83.11269,81.03172,86.0765,76.93283Zm-.3153-32.8541h0Zm-5.297,35.50261s4.41419,6.1168,5.9276.18919C86.39178,79.77053,84.56306,82.10374,80.46418,79.58134Zm44.58321-43.19587a.32763.32763,0,0,1,.12612-.25226Zm-40.42127,7.378V42.31307l-4.225.44143-.06305.4414S83.5541,42.81756,84.62612,43.76345Zm-.56753-5.0448c0-2.90072,1.95484-2.58544,1.95484-2.58544a24.687,24.687,0,0,0-.56753-4.41416c-4.09888,2.58544-2.9638,5.73843-2.9638,5.73843C83.61716,36.13321,84.05859,38.71865,84.05859,38.71865Z" fill="#041e42"/><path d="M140.74925,33.04328c.44141-.4414,4.98172,1.89182,4.98172,1.89182a11.0642,11.0642,0,0,0,.7567-3.59442c-1.70261-.31529-1.3873-1.57649-1.3873-1.57649-1.072-4.79254-2.144,1.7026-2.144,1.7026-.81979,2.01793-1.57649.63061-1.57649.63061a35.78831,35.78831,0,0,0-4.35113-2.33321C137.02872,32.0974,140.74925,33.04328,140.74925,33.04328Zm-11.666-1.072s.12613-.6306,1.38732-.50449c0,0-.12612-5.297,1.57649-6.99963,0,0,.3153-1.072-.94591-1.072,0,0-.18917-4.54031-1.26119-2.77461a17.76984,17.76984,0,0,0-2.64849,10.72013S127.5067,33.3586,129.0832,31.97128ZM115.52537,169.9459s-1.70263,1.072-.44142-1.76566c0,0,6.369-15.70187,5.73842-20.24218v-4.98172l1.5765-.12611s.56754,10.08954-1.5765,14.62985C118.61529,162.00038,115.52537,169.9459,115.52537,169.9459Zm.75671-77.24815c.81978-20.55744,5.92762-19.92685,5.92762-19.92685,3.27909.44143-5.92762,37.52052-5.92762,37.52052C112.43544,117.29105,116.28208,92.69775,116.28208,92.69775Zm-4.79253-8.5761s-6.1168,10.40484-7.5041,10.594c0,0,3.153-11.8552,3.5944-14.50371,0,0,.44141-9.14366,7.1888-13.55783C114.76865,66.65412,116.47126,77.122,111.48955,84.12165Zm-3.5944,21.31417c-.12613,10.90932-9.01754,11.85523-9.01754,11.85523l1.51344,2.77462v5.92763H99.319c-.31531-5.42314-2.45933-6.99963-2.45933-6.99963-2.20709-2.64853-.50447-3.08994-.50447-3.08994l2.9638-2.20708c-6.24292-3.08993-3.27912-4.47724-3.27912-4.47724-2.45932.75672-1.51342,2.6485-1.51342,2.6485a3.06851,3.06851,0,0,1,1.072,3.40523c-7.31491-.75674-6.8735,5.10782-6.8735,5.10782-5.42313-.7567-5.297,5.92763-5.297,5.92763-.44141,2.33321-1.70261,1.57649-1.70261,1.57649-1.3873-1.072,0-2.33323,0-2.33323,3.40523-10.90932,5.73843-14.18843,5.73843-14.18843,1.76568-6.87348,7.18882-8.38692,7.18882-8.38692,2.83768.12611,6.05372-2.01791,6.05372-2.01791,3.9097-2.64853,2.33321,3.2791,2.33321,3.2791l1.45038-2.20709C108.02126,96.41829,107.89515,105.43582,107.89515,105.43582ZM74.41044,97.67948c-4.66641,0-6.5582,1.2612-6.5582,1.2612,1.13508-4.41419,7.1888-3.5944,7.1888-3.5944,6.05374-.50449,12.29665,2.77461,12.29665,2.77461,3.5944,4.98172-1.70262,2.96382-1.70262,2.96382C81.72536,97.49031,74.41044,97.67948,74.41044,97.67948Zm-10.594-36.88992c.18919-2.64851-4.35111-6.4321-4.35111-6.4321C67.72612,47.67315,73.77984,48.619,73.77984,48.619c-1.26119,1.38732-1.072,6.87351-1.072,6.87351.63059,1.70261.63059,7.75634.63059,7.75634a2.77635,2.77635,0,0,1-.06307,1.89179c.81979-.06306,1.76568,1.51344,1.76568,1.51344,6.68432,9.39588,8.70225,7.63021,8.70225,7.63021,1.57649,0,1.70259-.44141,1.70259-.44141h1.76568L87.02237,76.05l.94591.75673-.63059,1.26118,1.072.6306V76.80673c3.153,1.89178,4.54031,7.31492,4.54031,7.31492.75672,1.57647-2.96381,7.94552-2.96381,7.94552,1.95485-2.2071,2.39626,1.63955,2.45932,2.77462.06307-.3153.06307-.44141.06307,0,0,.37836,0,.31529-.06307,0a3.61832,3.61832,0,0,1-3.216,3.2791c-3.5944.3153-6.5582-3.08991-6.5582-3.08991l4.54029-2.01792-1.76568-6.68432,2.33323-.1892V82.73433C81.284,92.06717,73.33843,68.54589,72.58172,66.40187c-.88285,1.072-2.2071,1.45038-2.39628.12612C69.93321,64.19479,63.81641,60.78956,63.81641,60.78956Zm1.38732,65.7082s2.64851.63058,4.225-2.96382c0,0,.3153.12613.3153,1.38732,0,0,.44141,24.15188.94589,24.9086,0,0,.9459,14.18845-.50448,15.70185,0,0-.44141,3.2791-6.17984-20.55746C64.0056,144.97425,63.50112,126.62389,65.20373,126.49776Zm4.09888-14.0623c2.01791,3.153.3153,9.71119.3153,9.71119-.50449-1.13507-2.081-1.13507-2.081-1.13507C64.13172,119.93954,69.30261,112.43546,69.30261,112.43546ZM58.39329,131.16419a11.14177,11.14177,0,0,0-6.87351,7.31492A75.36493,75.36493,0,0,0,50.13246,153.109c-1.57649-.94592-2.83769-6.05374-2.83769-6.05374-.88284.88283,0,3.7205,0,3.7205,1.89179,3.09,4.8556,12.29666,4.8556,12.29666-3.9097-1.26121-7.63022-13.36866-7.63022-13.36866-4.225,2.45932-5.1709,14.31458-5.1709,14.31458-.25224,4.16193-1.70261,1.7026-1.70261,1.7026-.9459-1.7026-1.38731-8.57612-1.38731-8.57612-.12613-7.75635,2.77462-12.17054,2.77462-12.17054a36.09084,36.09084,0,0,1,3.46829-7.31492,20.01357,20.01357,0,0,1,10.90932-8.19776,91.73087,91.73087,0,0,0,9.14367-2.33323C63.18582,128.831,58.39329,131.16419,58.39329,131.16419ZM85.31978,66.08657c1.70259-.94589,1.26118,3.72053,1.26118,3.72053-.31529,1.70261-1.5765.44142-1.5765.44142C83.428,67.2847,85.31978,66.08657,85.31978,66.08657Zm48.556-.18919c3.5944-3.08991-4.35112,16.33247-4.35112,16.33247-.63059,1.26119-8.38693,30.20561-8.38693,30.20561-3.72053,6.74738,1.7026-13.81008,1.7026-13.81008C124.54291,85.69812,133.87573,65.89738,133.87573,65.89738Zm-7.44105,64.19478c-1.26117,10.84627-5.61231,11.16158-5.61231,11.16158,2.01791-9.33284-5.6123-12.92725-5.6123-12.92725.63058-2.45932,4.225-4.35113,4.225-4.35113a4.82056,4.82056,0,0,1,2.9638-.31529C127.56976,124.2276,126.43468,130.09216,126.43468,130.09216Zm.44142,55.8709s-4.98171-.31529-4.03582-1.5765c0,0,0-1.51343,1.38732-1.19811,0,0-2.33321-4.8556-3.84664-5.17088a1.62994,1.62994,0,0,1,1.82874-.63064l-1.5765-2.01789s-.44141-.75672.18917-3.72053c0,0-.75671-3.72053,1.8918-15.57575,0,0,1.82874-9.20671,1.19813-15.13433,0,0,4.03582-10.02648,3.153-14.94513a43.7674,43.7674,0,0,0-1.70261-10.40486s-1.45038-4.66644,2.33321-2.33321a6.94446,6.94446,0,0,0,4.35112,1.072s6.81044.50449,10.90933-9.20671c0,0,5.297-9.14365,6.49514-43.44813,0,0,2.64852.31531,3.46827-.12611,0,0,2.45936-3.72053,4.66644-4.225V54.98807h-.63059s1.072,1.7026-2.64852.50448a7.69636,7.69636,0,0,1-2.52237-.94588c-1.19815-.75672-.75673-.18921-.75673-.18921s2.96381,4.09889-2.33321,5.4862c0,0-.56753,34.872-6.43209,44.83545,0,0-4.91865,14.18843-16.14328,5.61231,0,0,2.144-6.24292,1.3873-11.22462,0,0,2.52238-5.42314,2.2071-9.33283,0,0,.44142-4.98172,2.64851-7.31493a29.82822,29.82822,0,0,0,1.072-10.46792l2.2071-4.47725s4.98171.31532,6.68433-2.52238c0,0,2.01791-3.84663,4.03582-4.79253l-1.072-2.64851V52.844s1.51345,0-.31529-2.0179c0,0-2.8377,3.84665-8.76529,2.96382,0,0,.88283,3.7205,4.03581,4.54029a2.68173,2.68173,0,0,1,.69366.12611s2.90074,2.144-2.39628,2.64851c0,0-4.98171,1.82872-6.05372-5.61231l.6306-2.52238s-4.54031-1.072-4.225-7.75635c0,0-.44143-5.48619,4.54029-5.48619a2.54194,2.54194,0,0,1,2.45933.94589s-.44142-4.3511,5.8015-4.98171c0,0-.18918-1.072-3.2791-1.072,0,0-.44142-1.70261-4.54031-1.70261,0,0-5.297-.94589-6.49514,5.73842a6.70087,6.70087,0,0,1-2.6485,5.73846s-2.01792,2.96381-2.01792-1.072c0,0,1.00894-5.17087,2.33321-6.93654a35.90339,35.90339,0,0,0-4.98172,7.69326c-1.5765,3.59442-6.24292,17.46755-7.63022,20.11606,0,0-5.92761,15.26044-7.81941,16.33246,0,0-4.98172,10.90931-5.73842,6.24291,0,0,.12611,3.90969-2.01791,3.90969,0,0-2.01792,1.19815-2.5224-5.61231a14.869,14.869,0,0,0-4.225-8.70222s.81979-1.4504-1.70261-3.90972c0,0,1.13508-7.94552.18917-9.33283,0,0,.44142-2.96381,1.26121-6.24291l-.94589-.63059s0,6.369-2.5224,6.369c0,0-3.40522-1.70262-1.072-3.5944,0,0-.44143-2.77463.1261-3.08995l.81979-.31528.12611-.75672-.75671-.31528v-2.2071L87.46379,53.79h1.13507l.31532.56751.7567.18921v-2.2071l-1.7026-.31529-.50449-.6306H85.95037a.87937.87937,0,0,1,.12611-1.51343s.3153-.94589,1.8918-.94589c0,0,.88283-4.91868-2.081-4.85563.31531,0,1.009.12615,1.009,1.32427,0,0-7.25187.12611-8.00858,1.19815H74.91492a3.2874,3.2874,0,0,0-3.5944.06305,7.80458,7.80458,0,0,0-3.53134.63061s-9.01754,2.90072-10.34179,3.7205c0,0-2.20709.81977-3.08994-.63061,0,0-2.83767-4.03581-2.83767-.31528a14.88416,14.88416,0,0,0,.69366,5.04476s2.39626,9.83731,8.45,16.71083c0,0,.25225,19.67463,2.58547,25.413a24.20678,24.20678,0,0,1,.1261,14.56681s-2.58544,5.92759.63061,9.58505c0,0,2.6485,3.53134-1.45037,4.66642,0,0-5.42314,2.45933-9.7112,2.77463,0,0-9.33284,3.78359-12.3597,11.603,0,0-5.10784,7.81943-5.42314,23.52128a4.07808,4.07808,0,0,0,.88284,3.40524s8.95448,10.594,20.24216,16.45859c0,0,.50448-3.4683,3.78359-.75672a14.91,14.91,0,0,1,3.97275,4.41419s.37836.94586,2.83769,1.95484c0,0,6.99962,3.2791,9.522,3.34215,0,0,.75671.63061.69365-6.62128a5.96609,5.96609,0,0,1,.37836-1.51341s.56754-1.32426-.37836-1.38732c0,0-1.89179-.18917-2.64851.94589a8.89742,8.89742,0,0,1-5.80149-1.38732s-3.27909-1.70261.9459-7.1888a12.05663,12.05663,0,0,1,.12612-3.59439c.44142-.94592,4.225-4.60336,3.9097,0,0,0-.75672,3.34216-.18918,4.288,0,0,.69366.56755.81978-.4414l4.16194.06306s-4.47725-13.747-4.47725-23.01682c0-9.20671.56754-13.11641.56754-20.55746,0-7.50409-.25223-19.73768-1.76566-22.07089,0,0-1.51343-3.5944-3.02687-4.8556,0,0-.9459-.63058.88284-.44141,0,0-1.072-1.57649-4.79254,1.072,0,0-1.38732-.44143,0-2.01793,0,0,1.072-2.64849,6.68432-3.08991,0,0,6.05374-.18917,8.57612,4.98172,0,0,.12613.75671-2.52238-.31531a18.551,18.551,0,0,0,3.27909,2.45934s-3.90969,6.24289-4.79253,6.24289c0,0-2.01791-2.01791-2.01791-2.64849,0,0,1.072,16.64775,1.072,20.68357,0,0-.81976,23.206-.50447,24.341,0,0,.18918,6.68431,4.54031,19.29625,0,0,.31529,1.70264,1.57649.12615,0,0-.50448-4.98171,6.05372-4.162,0,0,.3153,8.82839-.31529,11.03545,0,0-1.072.94592-.12613,5.17091,0,0,1.072,3.53136.56755,5.42314,0,0-.44142,2.45932,3.78357,2.33321,0,0,.75672.75672.75672-1.89181,0,0,.44141-4.7925-1.38731-5.42314,0,0-.81979-.18917-.81979-3.08989,0,0-.25223-1.26121,1.26121-4.225a11.33293,11.33293,0,0,0-.63061-8.1347L90.93209,160.55l2.144-16.14328s.94589-4.98172,2.01791.12611a18.35821,18.35821,0,0,1,1.26121,9.33286S94.022,165.09031,94.52649,167.928a19.3013,19.3013,0,0,0,5.86456-6.43209s1.45036-3.59438,4.41416,2.64853c0,0,1.38732,3.153.88284,11.35073,0,0,1.8918-8.513,3.90971-10.531,0,0,2.83768-5.17087,3.153,1.19815l.12612,9.96345h.6306V174.297h.7567l.18919,5.61231s-.94589,5.73842-1.57649,7.6302l.94588-.63057-.31528-.50449.44141-.88283s.81978-.63061,2.01791.56754C115.96678,186.0892,125.36268,186.59366,126.8761,185.96306Z" fill="#041e42"/><path d="M167.29739,135.01082l-7.5041,6.87352-3.08993-7.25188,11.0985-10.08954,2.96382,6.99962h13.68394l-6.5582-17.46754H159.541l-9.3959,9.14366L154.181,114.075H141.25374l-15.07128,38.40335H139.1097l4.66642-11.91827,4.98172,11.91827h16.9l19.10708-17.46753Zm-49.12351,52.65484s11.66605,7.18882,12.17052.18919C130.3444,187.85485,128.13731,186.909,118.17388,187.66566Zm-6.99963,6.87352s-1.13508.94589-.50447,1.82874C110.66978,196.36792,112.12015,194.66529,111.17425,194.53918Zm-16.96306-.94589a4.79541,4.79541,0,0,0,1.19813-4.85561S93.8959,192.52127,94.21119,193.59329ZM107.769,186.909s-3.27911,2.33319-2.64851-6.87352c0,0-2.52238,11.53994-.81977,16.64776,0,0,2.52238,1.57649,4.85559-2.64849C109.15634,194.03471,103.85933,192.0168,107.769,186.909Zm-28.18768-7.63023c-1.45037-1.5765-5.297-.50448-5.297-.50448-2.83768.81978-.18918,1.8918-.18918,1.8918a11.22371,11.22371,0,0,0,4.03583.44141C81.59926,181.10746,79.58135,179.27873,79.58135,179.27873ZM157.08172,54.23135s2.01791-5.17088.63059-9.64813c0,0-1.5765-1.38732-2.01791-.50449,0,0-.31531,1.13509-2.90074-.4414.25224.18917,2.90074,1.89178-.50448,8.57613C152.28918,52.21346,155.88358,52.52874,157.08172,54.23135Zm-6.81045-9.33284s-2.01792-2.52238-1.76568.44143C148.50559,45.33994,151.46941,47.35786,150.27127,44.89851Z" fill="#041e42"/><polygon points="159.226 144.281 155.001 134.254 168.306 122.147 171.712 130.155 182.432 130.155 176.946 115.525 160.109 115.525 145.857 129.399 151.974 115.525 142.2 115.525 128.263 151.028 138.101 151.028 143.713 136.776 149.704 151.028 165.09 151.028 181.044 136.461 167.865 136.461 159.226 144.281" fill="#ffd100"/></svg>