<?xml version="1.0" encoding="UTF-8" standalone="no"?>
<svg xmlns:rdf="http://www.w3.org/1999/02/22-rdf-syntax-ns#" xmlns="http://www.w3.org/2000/svg" height="230.18727" width="230.38527" version="1.1" xmlns:cc="http://creativecommons.org/ns#" xmlns:dc="http://purl.org/dc/elements/1.1/" viewBox="0 0 230.38527 230.18727"><path d="M183.809,145.08818l-45.07224,1.83656a6.12169,6.12169,0,0,1-4.43834-1.607l-1.76-1.53046,51.50017-15.22814h.07652a18.07254,18.07254,0,0,0,5.28011-2.67832A72.84862,72.84862,0,0,1,183.809,145.08818ZM114.6319,190.23692a75.4733,75.4733,0,0,1-35.12419-8.64713,74.66118,74.66118,0,0,1-21.12042-16.376l54.102-15.53423,17.14124,15.68728a21.46766,21.46766,0,0,0,15.07508,5.5862l20.81433-.53566A76.76388,76.76388,0,0,1,114.6319,190.23692Zm0-151.28655a75.801,75.801,0,0,1,36.50161,9.41237c-2.90789.68872-5.81577,1.53048-8.64713,2.44872-3.74965-1.45392-7.11665-2.7548-9.948-3.74964l-1.83656-.68868c-21.12042-7.80537-44.3835,9.18277-46.9853,11.17239l-.07653.07652C73.998,65.12132,68.48836,74.99283,65.42744,83.1043l-5.81578-5.2801L48.13317,90.75663,64.3561,105.60215l-25.32921,5.81577A75.77286,75.77286,0,0,1,114.6319,38.95037ZM228.72814,65.50394c-1.83656-5.89229-6.581-10.25411-14.46291-13.39156q-2.06615-.80352-4.59139-1.607a118.36572,118.36572,0,0,0-14.00378-16.91166,114.5411,114.5411,0,0,0-162.07634,0A114.5554,114.5554,0,0,0,114.6319,229.18727a113.7879,113.7879,0,0,0,81.03816-33.51721,115.94429,115.94429,0,0,0,19.59-26.09443h6.19838V156.33709a115.36385,115.36385,0,0,0,3.061-74.45717A17.01145,17.01145,0,0,0,228.72814,65.50394Z"/><path d="M211.66342,160.08676l-65.19784,1.83654c-3.52008.07654-9.41237-2.21916-10.56021-5.50967l75.75805-2.90788Zm-81.34426-10.48369-9.41235-8.4941,61.4482-18.136v-.07652c4.821-1.45394,8.035-5.43314,9.02975-11.17239a22.466,22.466,0,0,0,.153-6.81059,34.72024,34.72024,0,0,0-1.83656-7.88189l3.90268-2.44874a81.18635,81.18635,0,0,1-5.96881,56.24461l-48.66882,1.91308A11.99379,11.99379,0,0,1,130.31916,149.60307Zm-16.29946-6.50449,19.59,17.983a15.91481,15.91481,0,0,0,10.94283,4.05572l34.74158-.9948c-14.92206,19.13083-38.56775,31.91022-64.6622,31.91022A81.48882,81.48882,0,0,1,48.2862,161.99984ZM54.86721,130.16614,39.25645,145.70038a77.216,77.216,0,0,1-4.59139-15.53424Zm21.65608-21.35-43.31219,9.948c-.07652-1.37742-.07652-2.75483-.07652-4.13225a81.46484,81.46484,0,0,1,133.45663-62.7491,99.27014,99.27014,0,0,0-24.33441,5.127c-4.36183-1.76-8.41755-3.214-11.70806-4.43833q-.9183-.3444-1.83656-.68872c-18.59516-6.81057-40.48081,9.64194-41.3991,10.33064h-.07652C74.61021,72.085,69.94229,86.70091,68.41183,93.66454l-8.341-7.57581-3.74964,4.20878Zm151.057-39.25646c-.07654-.45913-.76524-.53566-.76524-.53566s-2.37222-.153-3.367-.22957a12.23248,12.23248,0,0,0-.38262-1.607,3.31553,3.31553,0,0,1-.07652-.38262l1.22436-1.3009s.76524-.84176.22958-1.45394c-.3061-.3061-.91828,0-.91828,0s-.6887.38262-1.45394.84176c-1.76005-2.98442-5.05055-5.43317-9.948-7.34625A64.22116,64.22116,0,0,0,206.0007,55.556,118.8952,118.8952,0,0,0,191.5378,37.726a108.62951,108.62951,0,0,0-153.81181,0,108.73961,108.73961,0,0,0,76.90589,185.64551,108.32722,108.32722,0,0,0,76.90592-31.8337,109.76448,109.76448,0,0,0,20.43172-28.31362l3.59659-.07652v-7.95843a109.76263,109.76263,0,0,0,2.14266-75.45195l1.37742-.84176.30608-.22956a11.95017,11.95017,0,0,0,4.05575-7.42277l3.13744-.61218S227.6568,70.32493,227.58028,69.55969Z" fill="#fff"/><path d="M217.55573,114.63192a102.01145,102.01145,0,0,0-4.974-31.68064l-13.77419,8.41757a87.43082,87.43082,0,0,1-4.59139,59.15252l17.14122-.68872A102.65153,102.65153,0,0,0,217.55573,114.63192Z" fill="#00205b"/><path d="M186.71685,163.98944a88.77587,88.77587,0,0,1-10.33065,12.39678A87.25546,87.25546,0,0,1,42.39391,163.68336l-10.78978,3.13745a23.895,23.895,0,0,1-4.974-8.57061l8.188-8.11145A87.52667,87.52667,0,0,1,52.87761,52.87762a87.23243,87.23243,0,0,1,122.13117-1.3774c3.2905.07652,6.65753.22956,10.02455.53564,4.66793.53568,8.80017,1.07136,12.54982,1.76a108.7664,108.7664,0,0,0-10.1776-11.93762A102.91748,102.91748,0,1,0,41.85825,187.40557a102.90216,102.90216,0,0,0,145.5473,0,103.23591,103.23591,0,0,0,17.82992-23.95179Z" fill="#00205b"/><path d="M80.65554,104.68387s27.39533-33.82328,52.80107-44.84264c-2.52527-.91828-4.821-1.76-6.73405-2.44876-15.84032-5.81577-35.88943,9.48889-35.88943,9.48889C75.83457,78.51292,73.46235,98.25592,73.46235,98.25592Zm103.68907-4.20879-45.76094,29.30844,42.08781-12.47329c6.428-1.91309,5.12707-11.70808,5.12707-11.70808A22.0546,22.0546,0,0,0,184.34461,100.47508Z" fill="#00965e"/><path d="M80.88512,112.79538l-1.3009,1.14786-25.6353,25.48225L33.13458,160.01026l75.83458-21.50305Zm62.97866-49.434a2.54815,2.54815,0,0,0-1.6835-.07652h-.07652s-15.99338,1.45394-57.23943,45.22525l.53567.53566,30.45626,27.47188L181.81935,95.042C176.38618,85.62962,152.664,67.72316,143.86378,63.36134ZM60.7595,124.35039l7.95842-7.88189L34.665,124.35039Z" fill="#ffc72c"/><path d="M197.81271,72.46757c-4.51487,0-4.13225-1.6835-4.13225-1.6835,0-1.98961,4.13225-2.21919,4.13225-2.21919s4.13226.07652,4.13226,2.06615C201.945,70.631,202.40411,72.46757,197.81271,72.46757Zm10.63675-.91828a2.18223,2.18223,0,0,1-2.14266-1.76c-.3061-1.83657,1.9896-1.83657,1.9896-1.83657s5.73925-.45914,8.26451-.61218c-2.52526-3.367-10.56021-7.26973-32.29282-9.48889a93.029,93.029,0,0,0-33.74678,2.6783c18.0595,8.87672,30.37975,23.87527,35.8129,31.60414l10.56021-6.581c-3.2905-4.51489-5.6627-3.367-6.734-3.82617a2.21846,2.21846,0,0,1-1.37743-2.6018c.3061-1.53046,2.21919-1.45394,2.21919-1.45394,4.36182.15306,7.95843,3.67312,9.56541,5.66272l14.922-9.18279a6.93611,6.93611,0,0,0,1.76-2.6018Z"/></svg>