<?xml version="1.0" encoding="UTF-8" standalone="no"?>
<svg xmlns:rdf="http://www.w3.org/1999/02/22-rdf-syntax-ns#" xmlns="http://www.w3.org/2000/svg" height="255.33936" width="205.16408" version="1.1" xmlns:cc="http://creativecommons.org/ns#" xmlns:dc="http://purl.org/dc/elements/1.1/" viewBox="0 0 205.16408 255.33936"><path d="M51.94525,127.20817c0-16.31466,1.61607-39.70927,9.15776-58.40955,3.8478-9.69644,9.00384-17.23813,15.23728-22.39416,7.003-5.84865,15.699-8.773,25.78023-8.773s18.70029,2.92432,25.78024,8.773c6.15646,5.156,11.31251,12.69772,15.23726,22.39416,7.54169,18.70028,9.0808,42.09489,9.0808,58.40955,0,16.2377-1.53911,39.63229-9.0808,58.40956-3.92475,9.69642-9.0808,17.23811-15.23726,22.39416-7.08,5.7717-15.699,8.773-25.78024,8.773s-18.77725-3.00128-25.78023-8.773c-6.23344-5.156-11.38948-12.69774-15.23728-22.39416C53.56132,166.84046,51.94525,143.44587,51.94525,127.20817Zm124.97644-92.578C158.914,11.92819,133.05679,0,102.12052,0S45.25009,11.92819,27.2424,34.63017C9.46557,56.94742,0,88.96106,0,127.20817c0,38.17013,9.46557,70.18381,27.2424,92.578,18.00769,22.62505,43.94184,34.55322,74.87812,34.55322s56.79347-11.92817,74.80117-34.55322c17.85377-22.39416,27.24239-54.40784,27.24239-92.578C204.16408,88.96106,194.77546,56.94742,176.92169,34.63017Z" fill="#cf0a2c"/><path d="M102.12054,220.78657c-47.174,0-54.177-58.64042-54.177-93.5784,0-35.015,7.003-93.65538,54.177-93.65538,47.097,0,54.177,58.64042,54.177,93.65538C156.2975,162.14615,149.21755,220.78657,102.12054,220.78657Zm0-216.78487c-60.48737,0-98.04187,47.251-98.04187,123.20647s37.5545,123.12947,98.04187,123.12947c60.41039,0,97.96488-47.174,97.96488-123.12947S162.53093,4.0017,102.12054,4.0017Z" fill="#fff"/><path d="M39.94013,127.20817c0-56.10087,17.23813-101.58183,62.18039-101.58183,44.86532,0,62.10343,45.481,62.10343,101.58183S146.98584,228.79,102.12052,228.79C57.17826,228.79,39.94013,183.30905,39.94013,127.20817Zm152.21884,0c0-63.64253-27.935-115.203-90.03845-115.203-62.18039,0-90.11539,51.56049-90.11539,115.203s27.935,115.203,90.11539,115.203C164.224,242.41121,192.159,190.85073,192.159,127.20817Z"/></svg>