<?xml version="1.0" encoding="UTF-8" standalone="no"?>
<svg xmlns:rdf="http://www.w3.org/1999/02/22-rdf-syntax-ns#" xmlns="http://www.w3.org/2000/svg" height="113.67928" width="331.12918" version="1.1" xmlns:cc="http://creativecommons.org/ns#" xmlns:dc="http://purl.org/dc/elements/1.1/" viewBox="0 0 331.12918 113.67928"><path d="M53.399,113.48654c-4.3448-.42047-6.86759-2.87318-7.07783-7.1479-.07008-1.19131,0-2.38264,0-3.644h5.466a5.03013,5.03013,0,0,0,5.396,5.6062c1.12124.07007,2.24248,0,3.29364,0,1.68186,0,3.36372-.21023,4.13457-1.96217.84093-2.10233,1.12124-4.41488-.28031-6.307-.56062-.84093-2.10232-1.2614-3.22356-1.40155-2.45271-.35039-4.9755-.28031-7.42821-.56062-4.555-.56062-6.307-2.24248-7.07783-6.72744a10.37994,10.37994,0,0,1-.21023-1.33147c-.911-7.7786,2.03225-11.28248,9.88092-11.63286a43.84351,43.84351,0,0,1,5.25581.07007c6.65736.35039,9.25023,3.36372,8.6896,10.23131h-5.6062s.49054-4.90542-5.04558-4.83534c-1.12124,0-2.24248,0-3.29364.07007-3.15349.21023-4.20465,1.2614-4.27473,4.13457-.07008,3.4338.98108,4.555,4.27473,4.83534,3.01333.28031,5.95658.49054,8.96992.911,3.22356.42047,4.90542,1.822,5.25581,4.9755a26.47765,26.47765,0,0,1,0,8.47938c-.6307,4.27473-2.733,5.81643-7.00775,6.2369C62.71933,113.55665,54.0998,113.55665,53.399,113.48654Zm219.62278.14016c-4.3448-.35039-6.79752-2.87318-7.07782-7.1479-.07007-1.19131,0-2.31256,0-3.644h5.53613a5.03013,5.03013,0,0,0,5.396,5.6062,25.82111,25.82111,0,0,0,3.29365,0c1.61179,0,3.36372-.21023,4.06449-1.96217.84093-2.10233,1.12125-4.41488-.21022-6.307-.63069-.84093-2.1724-1.19131-3.29365-1.40155-2.45272-.28031-4.97549-.28031-7.42821-.56062-4.555-.56062-6.23689-2.24248-7.07782-6.72744-.07007-.42047-.14015-.84093-.21022-1.33147-.84093-7.77859,2.10233-11.28247,9.88093-11.63286,1.75194-.07007,3.50387,0,5.25581.07007,6.65736.35039,9.25022,3.36372,8.68961,10.23131h-5.6062s.49054-4.90542-5.04559-4.83534c-1.12125,0-2.24248,0-3.29365.07007-3.15348.21023-4.20466,1.2614-4.20466,4.13457-.14015,3.4338.911,4.555,4.20466,4.83534,3.01333.28031,6.02667.56062,8.96991.911,3.22356.42047,4.90542,1.822,5.32588,4.9755a28.64133,28.64133,0,0,1-.07007,8.47938c-.63069,4.27473-2.733,5.81643-7.00775,6.23689-.77084.07011-9.39037.07011-10.09115,0Zm43.93858-65.172c-.07007,0,.07011.07008,0,0,1.12123-3.15349,2.31257-6.307,3.22357-9.60061,1.05115-3.78418.14015-6.16682-3.36372-7.7786A64.45255,64.45255,0,0,0,306.659,27.57157a5.21115,5.21115,0,0,0-6.65737,3.22356q-2.733,6.307-5.04559,12.82417a94.65741,94.65741,0,0,0-3.01333,9.88092c-.84093,3.36372.14015,5.6062,3.08341,6.93767a61.25677,61.25677,0,0,0,9.32032,3.29364c4.27473,1.05116,6.44711.07008,8.33924-3.99442C314.36752,56.0931,315.48875,52.23885,316.96039,48.45466Zm-3.36372-27.61052c3.22357,1.47163,6.72745,2.31256,9.74076,4.06449,5.81644,3.4338,8.0589,7.98883,6.09678,14.436A259.80574,259.80574,0,0,1,320.4643,65.063c-2.59287,6.377-7.84868,9.11007-14.57613,7.56837a74.69275,74.69275,0,0,1-15.90758-5.396c-6.72743-3.15349-9.04-7.42821-7.00775-14.71627a202.84493,202.84493,0,0,1,9.67069-27.47037c2.87318-6.58728,8.129-8.05891,15.55721-5.95659,1.822.49054,3.644,1.19132,5.396,1.75194.07-.07008-.00007.14016-.00007,0ZM262.86061,60.57806l-8.89983-1.822c2.87318-14.08557,5.74635-27.96091,8.68961-42.18663l-13.6651-2.87318,1.61179-8.129,36.44028,7.49829-1.61179,8.129-13.87534-2.733ZM93.83376,103.74578H89.9795s-.07007-14.506.07007-19.2713H84.30322v-3.4338h15.417v3.36372H93.83372v19.34138Zm151.998-24.80742v5.32588h-8.96994v29.01208h-5.88652s0-21.02324.14015-29.01207H222.0054V78.93837Zm-97.40768,5.53612V96.38764c3.43379,0,6.65736.07007,9.951-.07007a2.83158,2.83158,0,0,0,2.733-2.94325,38.369,38.369,0,0,0,0-5.67628c-.14015-1.68186-1.05115-3.08341-2.80309-3.15348-3.22359-.21025-6.51722-.07008-9.88095-.07008Zm-.21023,28.87192h-5.396V79.07852c5.95658,0,11.8431-.14016,17.7296.07007a5.803,5.803,0,0,1,5.8865,5.74635,49.88555,49.88555,0,0,1,.07007,10.72185c-.49054,4.27473-2.66294,6.02666-7.07782,6.377-2.94326.21023-11.14232.07007-11.14232.07007Zm42.67719-11.4927H201.6129c-1.75194-6.02667-5.18574-18.43037-5.396-18.43037-1.61182,5.74635-3.574,12.40369-5.32592,18.43035Zm-9.18015,11.42263c1.12125-3.92434,2.1724-7.70852,3.29365-11.4927,2.03225-7.00775,6.65736-23.05548,6.65736-23.05548h8.82976s7.42821,24.94758,10.37147,34.68835c-1.75194,0-5.53613.07007-5.53613.07007l-2.31255-6.58728c-2.03225,0-11.773-.07007-11.773-.07007h-1.6819s-1.96216,6.51721-2.03225,6.65736ZM38.47257,68.70705l-8.54945,2.87318L15.9777,30.86522,2.80314,35.2801,0,27.43142,35.249,15.44818l2.733,7.84868L24.66727,27.922ZM177.50627,25.18895h0c0-3.4338.07007-6.79751-.07007-10.16123-.21022-3.92434-1.822-5.88651-5.67628-6.377a78.20658,78.20658,0,0,0-10.72186,0c-3.15348.07008-4.97549,2.03225-5.25581,5.11566-.42047,4.555-.70078,9.18015-.77086,13.80526a101.2,101.2,0,0,0,.35039,10.30139c.28032,3.50387,1.89209,5.25581,5.11566,5.6062a65.52289,65.52289,0,0,0,9.81084.14015c4.485-.35039,6.16682-1.96217,6.72743-6.377.42043-3.99442.28028-8.05891.4905-12.05332ZM165.523.03115c3.50387.35039,7.07782.07008,10.44155.77085,6.65736,1.40155,10.2313,5.04558,10.44155,11.773a270.74755,270.74755,0,0,1-.35039,27.19006c-.42047,6.86759-4.555,11.14232-11.42263,11.84309a79.37146,79.37146,0,0,1-16.81858-.07008c-7.35814-.84093-10.93209-4.20465-11.28248-11.70294a213.0747,213.0747,0,0,1,.42047-29.15223C147.58316,3.535,152.13819.45161,159.77663.03115,161.73879-.03893,163.63089.03115,165.523.03115ZM68.88615,52.30894c2.87318-.6307,5.88651-1.12124,8.68961-1.96217,5.396-1.5417,6.86759-3.99441,5.95658-9.53054-.56062-3.29364-1.2614-6.58728-1.96217-9.88092-.70077-3.50387-1.40155-7.00775-2.31256-10.51162-.77086-2.94325-2.733-4.90542-5.88651-4.90542-4.62511.14015-9.25022.911-13.24464,3.29364a4.37541,4.37541,0,0,0-2.03225,3.08341,55.94625,55.94625,0,0,0,.84093,9.74077c1.05116,5.32589,2.1724,10.65178,3.574,15.83751,1.05116,3.644,2.66294,4.555,6.377,4.83532Zm.21023,8.26914c-8.47938.14015-12.54386-2.59287-14.36588-7.91875A128.4893,128.4893,0,0,1,50.80617,36.962a106.06592,106.06592,0,0,1-2.24248-14.01549C48.14323,16.149,50.666,12.64509,56.973,10.40262A55.3166,55.3166,0,0,1,74.84275,7.0389c6.65736,0,10.44155,2.38263,12.54386,8.82976,1.61178,4.9755,2.52279,10.16123,3.644,15.347a86.79533,86.79533,0,0,1,1.822,10.37147c1.05116,10.23131-3.22357,13.94541-10.16123,15.97766-5.25582,1.54168-10.79194,2.38261-13.595,3.0133Zm40.29454-32.23564c5.53612-.49054,10.862-.911,16.1879-1.5417a3.73557,3.73557,0,0,0,3.50387-3.644,80.028,80.028,0,0,0-.70077-10.862c-.21023-1.75194-1.89209-2.66294-3.644-2.66294-5.466.21023-10.93209.56062-16.60836.84093Zm21.93425,2.24248a12.446,12.446,0,0,0,2.1724.56062c2.94325.6307,4.9755,2.38263,5.466,5.32589.77086,4.83535,1.19131,9.74077,1.89209,14.9265-3.08341.21023-9.53054.6307-9.53054.6307s-.35039-6.65736-.49054-9.18015c-.42047-5.81643-2.59287-7.70852-8.33922-7.218-4.0645.35039-6.93767.42047-10.30139.77085-2.24248.21023-2.24248.6307-2.10233,2.733.49054,4.62511,1.05116,13.94541.98108,14.436l-8.82976.6307c-.28031-3.08341-.56062-6.09674-.77086-9.04-.98108-13.17456-2.10233-29.08215-3.08341-42.25671,0,0,18.57053-1.19132,26.48928-1.68186a17.52609,17.52609,0,0,1,3.29364.14018c4.485.49054,7.70852,2.66291,8.96992,7.14786a35.70307,35.70307,0,0,1,1.19131,14.15565,7.80129,7.80129,0,0,1-5.67628,7.28806c-.35038.14015-.70076.35038-1.33146.63069ZM233.07765,3.88541l8.89983.84093L237.002,55.81281c-2.1724-.14015-14.9265-1.33147-14.9265-1.33147-4.62512-13.52495-15.417-44.07873-16.04775-44.56927L202.59395,52.379l-8.96991-.84093L198.59954.31146C203.505.87208,213.526,1.99332,213.526,1.99332c4.76527,13.3848,15.347,43.5181,16.11782,44.07873Z" fill="#046a38"/></svg>