<?xml version="1.0" encoding="UTF-8" standalone="no"?>
<svg xmlns:rdf="http://www.w3.org/1999/02/22-rdf-syntax-ns#" xmlns="http://www.w3.org/2000/svg" height="68.875" width="73.54461" version="1.1" xmlns:cc="http://creativecommons.org/ns#" xmlns:dc="http://purl.org/dc/elements/1.1/" viewBox="0 0 73.54461 68.875"><path d="M73.54449,68.875H43.1928V58.36864h6.71239V43.77648H23.6393V58.36864h6.71239V68.875H0V58.36864H6.71239V43.77648H4.77479L1.0392,25.09852H6.71251V10.50636H.00012V0H30.35181V10.50636H23.63942V25.09852H49.90531V10.50636H43.19292V0H73.54461V10.50636H66.83222V25.09852h1.93761l3.73559,18.678h-5.6732V58.36864h6.71239V68.875Z" fill="none"/><path d="M72.96081,9.92267V.58369H43.77648v9.339h6.7124V25.6822H23.05561V9.92267H29.768V.58369H.58369v9.339H7.29608V25.6822h-5.545L5.25318,43.1928h2.0429V58.95233H.58369v9.339H29.768v-9.339h-6.7124V43.1928H50.48888V58.95233h-6.7124v9.339H72.96081v-9.339h-6.7124V43.1928h5.545L68.29131,25.6822h-2.0429V9.92267Z" fill="#010101"/><path d="M12.4728,40.99405V30.09137H9.2742V27.87161H17.84v2.21976H14.649V40.99405Zm6.70539,0V27.871h2.17622v13.1229H19.17819Zm9.26392-4.82464V33.95853h4.69074v5.22784a5.81224,5.81224,0,0,1-1.98138,1.41871,6.1001,6.1001,0,0,1-2.62846.61322,5.07364,5.07364,0,0,1-2.9482-.86385,5.21687,5.21687,0,0,1-1.88939-2.47051,9.46176,9.46176,0,0,1-.63214-3.49559,8.9176,8.9176,0,0,1,.70557-3.64325,5.34861,5.34861,0,0,1,2.06625-2.44378,4.751,4.751,0,0,1,2.58048-.65373,4.49409,4.49409,0,0,1,3.13556,1.025,4.84242,4.84242,0,0,1,1.45221,2.83321l-2.16162.49228a2.85451,2.85451,0,0,0-.8565-1.52634,2.27418,2.27418,0,0,0-1.56965-.55952A2.7071,2.7071,0,0,0,26.13737,31.013a5.32825,5.32825,0,0,0-.84191,3.26736,5.93037,5.93037,0,0,0,.853,3.5041A2.6434,2.6434,0,0,0,28.38363,38.953a3.16949,3.16949,0,0,0,1.37108-.32652,4.53075,4.53075,0,0,0,1.18021-.79288V36.169H28.44211v.00046ZM35.14,40.99405V27.871h7.99218V30.0909H37.31636v2.90933h5.41113v2.21112H37.31625v3.57181H43.338v2.21077H35.14Zm10.0505,0V27.871H49.7713a6.5302,6.5302,0,0,1,2.5109.35371,2.65483,2.65483,0,0,1,1.25329,1.2575A4.416,4.416,0,0,1,54.00582,31.55a3.98653,3.98653,0,0,1-.71268,2.43912,3.22485,3.22485,0,0,1-2.13267,1.21325,5.36336,5.36336,0,0,1,1.16574,1.10083A15.35437,15.35437,0,0,1,53.565,38.43389l1.31609,2.56005H52.27846l-1.57361-2.85551A18.74719,18.74719,0,0,0,49.558,36.20934a1.69875,1.69875,0,0,0-.65419-.54609,2.983,2.983,0,0,0-1.0957-.14779h-.4408v5.47813H45.19065v.00035Zm2.17657-7.573h1.61016A6.87507,6.87507,0,0,0,50.933,33.26a1.22175,1.22175,0,0,0,.61054-.55509,1.992,1.992,0,0,0,.22087-.98456,1.80668,1.80668,0,0,0-.29033-1.0699,1.27848,1.27848,0,0,0-.82-.51469A15.05113,15.05113,0,0,0,49.066,30.091H47.36791v3.33005H47.3671Zm8.13915,3.30343,2.11762-.251a3.424,3.424,0,0,0,.776,1.907,2.083,2.083,0,0,0,1.57712.60855,2.12836,2.12836,0,0,0,1.58412-.54143,1.74794,1.74794,0,0,0,.53315-1.2666,1.36554,1.36554,0,0,0-.22437-.79253,1.77132,1.77132,0,0,0-.78308-.568q-.38172-.16092-1.74242-.57318a5.46757,5.46757,0,0,1-2.45557-1.29812,3.76491,3.76491,0,0,1-.99238-2.6406,3.9155,3.9155,0,0,1,.46672-1.87526,3.1317,3.1317,0,0,1,1.34562-1.32917,4.555,4.555,0,0,1,2.12112-.45645,4.01306,4.01306,0,0,1,3.05478,1.08309A4.21683,4.21683,0,0,1,63.96152,31.622l-2.17622.11638a2.44453,2.44453,0,0,0-.59909-1.45489,1.91468,1.91468,0,0,0-1.37867-.44279,2.16425,2.16425,0,0,0-1.48513.47454,1.03172,1.03172,0,0,0-.34531.81447,1.09921,1.09921,0,0,0,.32336.79685,5.14653,5.14653,0,0,0,1.99971.87728,9.32471,9.32471,0,0,1,2.34911.94418,3.35039,3.35039,0,0,1,1.19083,1.33384,4.582,4.582,0,0,1,.43029,2.09018,4.49308,4.49308,0,0,1-.5148,2.11248,3.31458,3.31458,0,0,1-1.456,1.46388,5.14051,5.14051,0,0,1-2.3456.479A4.12932,4.12932,0,0,1,56.815,40.07709a5.48256,5.48256,0,0,1-1.30874-3.35258Z" fill="#ffc72c"/></svg>