<?xml version="1.0" encoding="UTF-8" standalone="no"?>
<svg xmlns:rdf="http://www.w3.org/1999/02/22-rdf-syntax-ns#" xmlns="http://www.w3.org/2000/svg" height="183.9147" width="186.20513" version="1.1" xmlns:cc="http://creativecommons.org/ns#" xmlns:dc="http://purl.org/dc/elements/1.1/" viewBox="0 0 186.20513 183.9147"><path d="M92.63312,183.9147,87.674,180.85354c-6.18355-3.73463-14.93848-6.97946-26.01989-9.61206A187.30775,187.30775,0,0,0,42.91982,167.813h-.12245c-9.36715-1.22448-17.3262-3.79584-23.63219-7.71415A37.27758,37.27758,0,0,1,5.75729,145.89505c-3.73463-6.79579-5.63255-14.9997-5.755-24.36686a79.4933,79.4933,0,0,1,3.18361-22.3465c1.16325-3.85707,2.6326-8.02025,4.16318-12.42832,3.36728-9.73451,7.53047-21.73427,7.22435-28.04026a25.419,25.419,0,0,0-2.6326-10.46919,23.45943,23.45943,0,0,0-2.93873-4.46928L4.47159,38.387,29.51192,0l8.02025,5.38765c8.57127,5.87744,20.571,10.28549,34.71358,12.79564a140.05439,140.05439,0,0,0,20.38737,2.0816,138.88739,138.88739,0,0,0,20.32612-2.0816c14.14258-2.51015,26.14233-6.9182,34.7136-12.79564L155.69309,0l25.10154,38.387-4.59175,5.38765a23.45981,23.45981,0,0,0-2.93871,4.46928,25.419,25.419,0,0,0-2.6326,10.46919c-.30612,6.306,3.85707,18.30575,7.22435,27.979,1.53058,4.46931,2.99993,8.63249,4.16317,12.48956a77.33307,77.33307,0,0,1,3.18362,22.3465c-.12246,9.36716-2.02036,17.57107-5.69377,24.36686a37.44112,37.44112,0,0,1-13.46911,14.20379c-6.306,3.91831-14.265,6.48967-23.63219,7.71415h-.12244a187.30711,187.30711,0,0,0-18.73433,3.42849c-11.08141,2.6326-19.83634,5.87743-26.01989,9.61206Z" fill="#e4002b"/><path d="M92.63312,182.01677l-4.16319-2.51015c-6.306-3.85706-15.18338-7.16312-26.44845-9.79572a155.13278,155.13278,0,0,0-18.918-3.42851h-.06122c-9.1835-1.22446-16.89763-3.73461-23.01995-7.53045A35.71377,35.71377,0,0,1,7.10419,145.16037c-3.55094-6.61211-5.38765-14.57114-5.51009-23.63219A75.77256,75.77256,0,0,1,4.71649,99.67147c1.16324-3.85707,2.6326-8.02025,4.16318-12.42832,3.36728-9.79573,7.59169-22.04038,7.28557-28.59127A26.4815,26.4815,0,0,0,13.349,47.57046a24.66154,24.66154,0,0,0-3.12239-4.77539L6.43074,38.26455,30.00171,2.204l6.61211,4.53056C45.36875,12.6732,57.6134,17.1425,72.00087,19.71387a147.54787,147.54787,0,0,0,20.63225,2.14282,144.31552,144.31552,0,0,0,20.63222-2.14282c14.32626-2.57137,26.57092-7.04067,35.32585-12.9793L155.26452,2.204l23.571,36.06054-3.85706,4.53052a24.663,24.663,0,0,0-3.1224,4.77539,27.43674,27.43674,0,0,0-2.81627,11.08142c-.3061,6.55089,3.91829,18.79554,7.34681,28.59127,1.53058,4.40807,2.9387,8.57125,4.10195,12.42832a75.77323,75.77323,0,0,1,3.12238,21.85671c-.06122,9.061-1.95914,17.02008-5.51009,23.63219a36.01493,36.01493,0,0,1-12.85689,13.59157c-6.18355,3.79584-13.89768,6.306-23.01995,7.53045h-.12244a157.34085,157.34085,0,0,0-18.918,3.42851c-11.26508,2.6326-20.14245,5.93866-26.44846,9.79572Z" fill="#fff"/><path d="M172.958,101.93672c-4.04074-13.4079-12.36711-32.50955-11.8161-43.6522a34.898,34.898,0,0,1,3.67339-14.265,30.8021,30.8021,0,0,1,4.16319-6.36724l-15.918-24.36684c-23.571,15.97928-58.77435,16.40782-60.36615,16.469h-.12246c-1.653-.06122-36.8564-.48976-60.36613-16.469L16.22645,37.65228a33.818,33.818,0,0,1,4.2244,6.36724,35.838,35.838,0,0,1,3.61218,14.265c.551,11.14265-7.77536,30.2443-11.75487,43.6522-3.36728,11.26509-4.653,27.61171,1.77547,39.4278a28.081,28.081,0,0,0,10.10185,10.65284c5.14276,3.24484,11.81607,5.38766,19.83634,6.36722.85712.12245,9.42838,1.16325,19.83634,3.61219Q82.04146,166.313,92.6331,172.772c6.97945-4.28562,16.65272-7.89779,28.71372-10.77527,10.46917-2.44894,18.9792-3.48974,19.83632-3.61219,8.02025-.97956,14.6936-3.12238,19.83635-6.36722a27.1845,27.1845,0,0,0,10.10185-10.65284C177.54978,129.54843,176.32531,113.20181,172.958,101.93672Z" fill="#e4002b"/><path d="M130.714,48.67247,114.97959,90.97776a1.33686,1.33686,0,0,1-2.44893.12244L95.0208,56.26416a2.72467,2.72467,0,0,0-4.83663,0L72.73554,91.1002a1.38333,1.38333,0,0,1-2.51016-.12244L54.491,48.67247H30.98126l34.89727,93.67161a2.67234,2.67234,0,0,0,4.89786.2449L92.6331,98.38577,114.42859,142.589a2.72,2.72,0,0,0,4.95908-.2449l34.89727-93.67161Z" fill="#fff"/></svg>